SplineFontDB: 2.0
FontName: Sawasdee-Oblique
FullName: Sawasdee Oblique
FamilyName: Sawasdee
Weight: Regular
Copyright: Created by Pol Udomwittayanukul,,, with FontForge 2.0 (http://fontforge.sf.net)
Version: 001.000
ItalicAngle: -12
UnderlinePosition: -75
UnderlineWidth: 50
Ascent: 750
Descent: 250
NeedsXUIDChange: 1
XUID: [1021 180 1442959360 14105407]
UniqueID: 4256560
FSType: 8
OS2Version: 0
OS2_WeightWidthSlopeOnly: 0
OS2_UseTypoMetrics: 1
CreationTime: 1178430034
ModificationTime: 1181211715
PfmFamily: 17
TTFWeight: 400
TTFWidth: 5
LineGap: 90
VLineGap: 0
OS2TypoAscent: 0
OS2TypoAOffset: 1
OS2TypoDescent: 0
OS2TypoDOffset: 1
OS2TypoLinegap: 90
OS2WinAscent: 0
OS2WinAOffset: 1
OS2WinDescent: 0
OS2WinDOffset: 1
HheadAscent: 2
HheadAOffset: 1
HheadDescent: 40
HheadDOffset: 1
OS2Vendor: 'PfEd'
Lookup: 4 0 1 "'liga' Standard Ligatures in Latin lookup 0"  {"'liga' Standard Ligatures in Latin lookup 0"  } ['liga' ('latn' <'dflt' > ) ]
Lookup: 4 0 0 "'frac' Diagonal Fractions in Latin lookup 42"  {"'frac' Diagonal Fractions in Latin lookup 42"  } ['frac' ('latn' <'dflt' > ) ]
Lookup: 6 0 0 "'ccmp' Glyph Composition/Decomposition in Thai lookup 0"  {"'ccmp' Glyph Composition/Decomposition in Thai lookup 0"  } ['ccmp' ('thai' <'KUY ' 'PAL ' 'THA ' 'dflt' > ) ]
Lookup: 6 0 0 "'ccmp' Glyph Composition/Decomposition in Thai lookup 1"  {"'ccmp' Glyph Composition/Decomposition in Thai lookup 1"  } ['ccmp' ('thai' <'KUY ' 'PAL ' 'THA ' 'dflt' > ) ]
Lookup: 5 0 0 "Required Feature in Thai lookup 2"  {"Required Feature in Thai lookup 2"  } [' RQD' ('thai' <'PAL ' > ) ]
Lookup: 1 0 0 "Single Substitution lookup 3"  {"Single Substitution lookup 3"  } []
Lookup: 1 0 0 "Single Substitution lookup 4"  {"Single Substitution lookup 4"  } []
Lookup: 2 0 0 "Multiple Substitution lookup 5"  {"Multiple Substitution lookup 5"  } []
Lookup: 1 0 0 "Single Substitution lookup 6"  {"Single Substitution lookup 6"  } []

StartChar: exclam
Encoding: 1 33 1
Width: 223
VWidth: 1333
Flags: HW
HStem: 647 20G<227 280>
VStem: 80 77<4.2 57.8>
Fore
151 120 m 1
 124 120 l 1
 227 667 l 1
 280 667 l 1
 151 120 l 1
80 24 m 0
 80 50 106 68 126 68 c 0
 144 68 157 55 157 38 c 0
 157 12 131 -7 111 -7 c 0
 93 -7 80 7 80 24 c 0
EndSplineSet
EndChar
StartChar: quotedbl
Encoding: 2 34 2
Width: 309
VWidth: 1333
Flags: HW
Fore
225 520 m 1
 199 520 l 1
 222 693 l 1
 275 693 l 1
 225 520 l 1
332 520 m 1
 305 520 l 1
 329 693 l 1
 382 693 l 1
 332 520 l 1
EndSplineSet
EndChar
StartChar: numbersign
Encoding: 3 35 3
Width: 477
VWidth: 1333
Flags: HW
HStem: 0 28G<47 88 233 273> 207 40<52 140 198 327 384 475> 420 40<143 236 295 421 482 567> 640 27G<347 388 534 575>
VStem: 44 531<207 460>
Fore
273 0 m 1
 233 0 l 1
 327 207 l 1
 181 207 l 1
 88 0 l 1
 47 0 l 1
 140 207 l 1
 44 207 l 1
 52 247 l 1
 158 247 l 1
 236 420 l 1
 135 420 l 1
 143 460 l 1
 254 460 l 1
 347 667 l 1
 388 667 l 1
 295 460 l 1
 440 460 l 1
 534 667 l 1
 575 667 l 1
 482 460 l 1
 575 460 l 1
 567 420 l 1
 463 420 l 1
 384 247 l 1
 483 247 l 1
 475 207 l 1
 367 207 l 1
 273 0 l 1
198 247 m 1
 343 247 l 1
 421 420 l 1
 276 420 l 1
 198 247 l 1
EndSplineSet
EndChar
StartChar: dollar
Encoding: 4 36 4
Width: 527
VWidth: 1333
Flags: HW
VStem: 93 41<50.1 189.773> 94 41<168.607 194.262> 213 41<437.1 554.1> 475 43<115.6 302.8> 508 40<535 609.816>
Fore
272 -67 m 1x30
 231 -67 l 1
 243 -12 l 1
 161 -5 93 49 93 162 c 0xb0
 93 169 93 177 94 185 c 1
 135 191 l 1x60
 134 184 134 177 134 171 c 0
 134 78 187 36 252 29 c 1
 322 360 l 1
 265 388 213 420 213 486 c 0
 213 565 283 661 388 671 c 1
 401 731 l 1
 441 731 l 1
 428 671 l 1
 488 663 539 621 548 548 c 1
 508 535 l 1xa8
 500 592 464 623 421 631 c 1
 369 388 l 1
 440 355 518 320 518 230 c 0
 518 124 422 8 285 -7 c 1
 272 -67 l 1x30
292 29 m 1
 404 45 475 139 475 217 c 0
 475 283 419 313 358 341 c 1
 292 29 l 1
379 627 m 1
 295 616 254 540 254 493 c 0
 254 450 288 425 331 403 c 1
 379 627 l 1
EndSplineSet
EndChar
StartChar: percent
Encoding: 5 37 5
Width: 701
VWidth: 1333
Flags: HW
HStem: -8 41<464.5 606.2> 212 41<489.5 619.5> 411 41<225.1 351.2> 631 41<246.2 376.2>
VStem: 167 41<470 597.4> 393 41<480.7 613.3> 408 41<51.7 179.1> 635 41<77.3 193>
Fore
408 96 m 0xfb
 408 172 482 253 570 253 c 0
 633 253 676 209 676 150 c 0
 676 74 601 -8 514 -8 c 0
 451 -8 408 37 408 96 c 0xfb
561 212 m 0
 506 212 449 162 449 105 c 0
 449 64 478 33 523 33 c 0
 587 33 635 92 635 141 c 0
 635 181 606 212 561 212 c 0
167 513 m 0
 167 593 243 672 328 672 c 0
 391 672 434 627 434 568 c 0xfd
 434 490 360 411 273 411 c 0
 211 411 167 455 167 513 c 0
319 631 m 0
 263 631 208 580 208 522 c 0
 208 482 238 452 281 452 c 0
 335 452 393 499 393 560 c 0
 393 601 363 631 319 631 c 0
704 667 m 1
 754 667 l 1
 139 0 l 1
 89 0 l 1
 704 667 l 1
EndSplineSet
EndChar
StartChar: ampersand
Encoding: 6 38 6
Width: 605
VWidth: 1333
Flags: HW
HStem: -7 39<180.4 396.2> 636 40<375.8 512.3>
VStem: 101 40<74.8 327.8> 301 42<486.729 610.8> 540 41<527.308 631.2>
Fore
459 636 m 0
 395 636 343 591 343 525 c 0
 343 507 346 487 356 465 c 2
 520 137 l 1
 544 168 559 201 567 239 c 1
 609 239 l 1
 599 188 573 141 538 103 c 1
 589 0 l 1
 540 0 l 1
 504 71 l 1
 449 23 377 -7 305 -7 c 0
 184 -7 101 78 101 190 c 0
 101 296 177 419 309 468 c 1
 304 484 301 501 301 516 c 0
 301 599 370 676 468 676 c 0
 530 676 581 641 581 570 c 0
 581 558 580 546 577 532 c 1
 537 532 l 1
 539 543 540 552 540 561 c 0
 540 615 500 636 459 636 c 0
322 432 m 1
 243 405 141 318 141 197 c 0
 141 103 211 32 313 32 c 0
 377 32 441 60 488 103 c 1
 322 432 l 1
EndSplineSet
EndChar
StartChar: quoteright
Encoding: 300 8217 7
Width: 234
VWidth: 1333
Flags: HW
HStem: 653 20G<233.5 257>
VStem: 189 102<593 659.3>
Fore
189 619 m 0
 189 650 221 673 246 673 c 0
 268 673 291 659 291 627 c 0
 291 598 267 532 192 481 c 1
 158 481 l 1
 196 507 231 553 237 584 c 1
 234 583 230 583 227 583 c 0
 205 583 189 599 189 619 c 0
EndSplineSet
EndChar
StartChar: parenleft
Encoding: 8 40 8
Width: 218
VWidth: 1333
Flags: HW
VStem: 100 41<19.7 410.9>
Fore
100 125 m 0
 100 380 212 576 307 703 c 1
 337 703 l 1
 234 546 141 338 141 95 c 0
 141 24 149 -48 165 -120 c 1
 134 -120 l 1
 112 -38 100 44 100 125 c 0
EndSplineSet
EndChar
StartChar: parenright
Encoding: 9 41 9
Width: 205
VWidth: 1333
Flags: HW
VStem: 204 43<377.339 573.4>
Fore
2 -120 m 1
 101.171 34.7505 204 250.8 204 498 c 0
 204 567 196 635 180 703 c 1
 211 703 l 1
 235 627 247 550 247 472 c 0
 247 399.184 241.984 178.847 33 -120 c 1
 2 -120 l 1
EndSplineSet
EndChar
StartChar: asterisk
Encoding: 10 42 10
Width: 407
VWidth: 1333
Flags: HW
HStem: 547 243<350 380>
VStem: 219 259<681 681>
Fore
350 789 m 1
 393 789 l 1
 373 696 l 1
 477 720 l 1
 478 681 l 1
 377 659 l 1
 418 569 l 1
 380 547 l 1
 339 636 l 1
 260 547 l 1
 232 569 l 1
 311 659 l 1
 219 681 l 1
 237 720 l 1
 331 696 l 1
 350 789 l 1
EndSplineSet
EndChar
StartChar: plus
Encoding: 11 43 11
Width: 463
VWidth: 1333
Flags: HW
HStem: 313 40<130 279 327 476>
VStem: 121 363<313 353>
Fore
285 156 m 1
 245 156 l 1
 279 313 l 1
 121 313 l 1
 130 353 l 1
 287 353 l 1
 321 511 l 1
 361 511 l 1
 327 353 l 1
 484 353 l 1
 476 313 l 1
 319 313 l 1
 285 156 l 1
EndSplineSet
EndChar
StartChar: comma
Encoding: 12 44 12
Width: 234
VWidth: 1333
Flags: HW
VStem: 80 85<1.9 57.8>
Fore
80 24 m 0
 80 50 106 68 126 68 c 0
 145 68 165 56 165 28 c 0
 165 -45 72 -108 72 -108 c 1
 52 -108 l 1
 83 -87 125 -33 132 0 c 1
 124 -5 119 -7 111 -7 c 0
 93 -7 80 7 80 24 c 0
EndSplineSet
EndChar
StartChar: hyphen
Encoding: 13 45 13
Width: 383
VWidth: 1333
Flags: HW
HStem: 247 40<116 382>
VStem: 107 283<247 287>
Fore
390 287 m 5
 382 247 l 5
 107 247 l 5
 116 287 l 5
 390 287 l 5
EndSplineSet
EndChar
StartChar: period
Encoding: 14 46 14
Width: 223
VWidth: 1333
Flags: HW
VStem: 80 77<4.2 57.8>
Fore
80 24 m 0
 80 50 106 68 126 68 c 0
 144 68 157 55 157 38 c 0
 157 12 131 -7 111 -7 c 0
 93 -7 80 7 80 24 c 0
EndSplineSet
EndChar
StartChar: slash
Encoding: 15 47 15
Width: 522
VWidth: 1333
Flags: HW
HStem: 0 28G<0 49> 640 27G<615 664>
VStem: 0 664<0 667>
Fore
615 667 m 1
 664 667 l 1
 49 0 l 1
 0 0 l 1
 615 667 l 1
EndSplineSet
EndChar
StartChar: zero
Encoding: 16 48 16
Width: 533
VWidth: 1333
Flags: HW
HStem: -7 40<177.8 423.5> 633 40<251.5 497.2>
VStem: 104 41<77.7 494.8> 530 41<164.5 589.6>
Fore
571 440 m 0
 571 224 420 -7 265 -7 c 0
 162 -7 104 95 104 227 c 0
 104 433 248 673 410 673 c 0
 513 673 571 571 571 440 c 0
401 633 m 0
 286 633 145 439 145 235 c 0
 145 114 200 33 274 33 c 0
 389 33 530 226 530 431 c 0
 530 553 475 633 401 633 c 0
EndSplineSet
EndChar
StartChar: one
Encoding: 17 49 17
Width: 533
VWidth: 1333
Flags: HW
HStem: 0 28G<247 287>
VStem: 247 182<0 667>
Fore
247 0 m 1
 372 595 l 1
 291 552 l 1
 278 587 l 1
 428 667 l 1
 287 0 l 1
 247 0 l 1
EndSplineSet
EndChar
StartChar: two
Encoding: 18 50 18
Width: 533
VWidth: 1333
Flags: HW
HStem: 0 40<94 480> 461 21G<171 211> 633 40<293.8 494>
VStem: 523 40<455.522 602.1>
Fore
563 510 m 0
 563 258 161 236 94 40 c 1
 488 40 l 1
 480 0 l 1
 45 0 l 1
 49 19 l 2
 98 247 481 281 519 461 c 0
 522 475 523 489 523 502 c 0
 523 579 473 633 403 633 c 0
 319 633 232 559 211 461 c 1
 171 461 l 1
 196 577 302 673 410 673 c 0
 502 673 563 603 563 510 c 0
EndSplineSet
EndChar
StartChar: three
Encoding: 19 51 19
Width: 533
VWidth: 1333
Flags: HW
HStem: -7 40<172.3 406.3> 364 40<345 447.7> 633 40<315.9 477.1>
VStem: 99 42<67.5 197.595> 480 39<96.8 325.2> 500 41<499.9 608.9>
Fore
519 242 m 0xf8
 519 118 400 -7 265 -7 c 0
 167 -7 99 62 99 155 c 0
 99 169 101 184 104 199 c 1
 145 199 l 1
 143 187 141 176 141 165 c 0
 141 90 196 33 275 33 c 0
 376 33 480 128 480 232 c 0xf8
 480 307 424 364 345 364 c 1
 354 404 l 1
 431 404 500 464 500 540 c 0
 500 593 460 633 403 633 c 0
 336 633 271 580 257 515 c 1
 217 515 l 1
 236 603 323 673 411 673 c 0
 488 673 541 620 541 548 c 0xf4
 541 511 524 431 434 385 c 1
 486 359 519 306 519 242 c 0xf8
EndSplineSet
EndChar
StartChar: four
Encoding: 20 52 20
Width: 533
VWidth: 1333
Flags: HW
HStem: 0 28G<377 417> 124 40<115 404 452 504>
VStem: 26 534<124 675>
Fore
412 164 m 1
 495 555 l 1
 115 164 l 1
 412 164 l 1
417 0 m 1
 377 0 l 1
 404 124 l 1
 26 124 l 1
 561 675 l 1
 452 164 l 1
 526 164 l 1
 504 124 l 1
 444 124 l 1
 417 0 l 1
EndSplineSet
EndChar
StartChar: five
Encoding: 21 53 21
Width: 533
VWidth: 1333
Flags: HW
HStem: -8 40<160.2 421.5> 437 38<286.7 469.8> 627 40<259 543>
VStem: 85 41<72.3 197> 504 41<112 398>
Fore
272 32 m 0
 387 32 504 151 504 281 c 0
 504 371 444 437 358 437 c 0
 290 437 220 395 175 333 c 1
 131 333 l 1
 230 667 l 1
 564 667 l 1
 543 627 l 1
 259 627 l 1
 193 404 l 1
 243 448 305 475 366 475 c 0
 474 475 545 394 545 287 c 0
 545 142 413 -8 264 -8 c 0
 156 -8 85 74 85 180 c 0
 85 186 86 191 86 197 c 1
 126 197 l 1
 126 188 l 0
 126 99 186 32 272 32 c 0
EndSplineSet
EndChar
StartChar: six
Encoding: 22 54 22
Width: 533
VWidth: 1333
Flags: HW
HStem: 0 39<162.2 423.5> 444 39<323.175 471.8> 652 20G<420 468>
VStem: 87 41<78 364> 506 41<116.4 405>
Fore
274 39 m 0
 389 39 506 156 506 288 c 0
 506 378 446 444 360 444 c 0
 245 444 128 325 128 195 c 0
 128 105 188 39 274 39 c 0
87 187 m 0
 87 347 223 448 420 672 c 1
 468 672 l 1
 287 468 l 1
 313 477 341 483 368 483 c 0
 476 483 547 402 547 295 c 0
 547 150 416 0 265 0 c 0
 158 0 87 80 87 187 c 0
EndSplineSet
EndChar
StartChar: seven
Encoding: 23 55 23
Width: 533
VWidth: 1333
Flags: HW
HStem: 0 28G<177 221> 627 40<215 592>
VStem: 177 484<0 667>
Fore
215 667 m 1
 662 667 l 1
 221 0 l 1
 177 0 l 1
 592 627 l 1
 193 627 l 1
 215 667 l 1
EndSplineSet
EndChar
StartChar: eight
Encoding: 24 56 24
Width: 533
VWidth: 1333
Flags: HW
HStem: -7 40<171.3 401.4> 364 40<277.6 444> 633 40<311.3 476.4>
VStem: 99 41<67.8 257.7> 215 41<432.1 592.2> 478 41<93.9 326.5> 498 41<465.5 608.6>
Fore
215 488 m 0xfc
 215 580 306 673 410 673 c 0
 485 673 539 620 539 550 c 0xfa
 539 485 492 418 432 387 c 1
 486 361 519 307 519 242 c 0
 519 119 401 -7 265 -7 c 0
 167 -7 99 62 99 155 c 0
 99 234 151 340 266 387 c 1
 234 408 215 445 215 488 c 0xfc
344 364 m 0
 245 364 140 272 140 164 c 0
 140 90 195 33 274 33 c 0
 372 33 478 126 478 233 c 0xfc
 478 307 423 364 344 364 c 0
401 633 m 0
 332 633 256 570 256 496 c 0
 256 444 295 404 353 404 c 0
 423 404 498 468 498 541 c 0xfa
 498 593 459 633 401 633 c 0
EndSplineSet
EndChar
StartChar: nine
Encoding: 25 57 25
Width: 533
VWidth: 1333
Flags: HW
HStem: 0 21G<205 253> 189 39<202.2 349.776> 633 39<250.5 511.8>
VStem: 127 41<267 555.6> 546 41<308 594>
Fore
400 633 m 0
 285 633 168 516 168 384 c 0
 168 294 228 228 314 228 c 0
 429 228 546 347 546 477 c 0
 546 567 486 633 400 633 c 0
587 485 m 0
 587 325 451 224 253 0 c 1
 205 0 l 1
 386 204 l 1
 360 195 332 189 306 189 c 0
 198 189 127 270 127 377 c 0
 127 522 259 672 408 672 c 0
 516 672 587 591 587 485 c 0
EndSplineSet
EndChar
StartChar: colon
Encoding: 26 58 26
Width: 223
VWidth: 1333
Flags: HW
HStem: 441 20G<200 218.5>
VStem: 80 77<4.2 57.8> 164 76<398.2 450.8>
Fore
80 24 m 0
 80 50 106 68 126 68 c 0
 144 68 157 55 157 38 c 0
 157 12 131 -7 111 -7 c 0
 93 -7 80 7 80 24 c 0
164 417 m 0
 164 443 190 461 210 461 c 0
 227 461 240 448 240 432 c 0
 240 406 214 387 194 387 c 0
 176 387 164 400 164 417 c 0
EndSplineSet
EndChar
StartChar: semicolon
Encoding: 27 59 27
Width: 223
VWidth: 1333
Flags: HW
HStem: 441 20G<200 218.5>
VStem: 80 85<1.9 57.8> 164 76<398.2 450.8>
Fore
80 24 m 0xc0
 80 50 106 68 126 68 c 0
 145 68 165 56 165 28 c 0
 165 -45 72 -108 72 -108 c 1
 52 -108 l 1
 83 -87 125 -33 132 0 c 1
 124 -5 119 -7 111 -7 c 0
 93 -7 80 7 80 24 c 0xc0
164 417 m 0xa0
 164 443 190 461 210 461 c 0
 227 461 240 448 240 432 c 0
 240 406 214 387 194 387 c 0
 176 387 164 400 164 417 c 0xa0
EndSplineSet
EndChar
StartChar: less
Encoding: 28 60 28
Width: 529
VWidth: 1333
Flags: HW
HStem: 0 28G<425 503> 427 27G<522 599>
VStem: 103 496<227 453>
Fore
503 0 m 1
 425 0 l 1
 103 227 l 1
 522 453 l 1
 599 453 l 1
 180 227 l 1
 503 0 l 1
EndSplineSet
EndChar
StartChar: equal
Encoding: 29 61 29
Width: 463
VWidth: 1333
Flags: HW
HStem: 193 40<104 450> 300 40<127 473>
VStem: 96 386<193 340>
Fore
482 340 m 1
 473 300 l 1
 118 300 l 1
 127 340 l 1
 482 340 l 1
459 233 m 1
 450 193 l 1
 96 193 l 1
 104 233 l 1
 459 233 l 1
EndSplineSet
EndChar
StartChar: greater
Encoding: 30 62 30
Width: 538
VWidth: 1333
Flags: HW
HStem: 0 28G<55 132> 427 27G<151 228>
VStem: 55 496<0 227>
Fore
132 0 m 1
 55 0 l 1
 474 227 l 1
 151 453 l 1
 228 453 l 1
 551 227 l 1
 132 0 l 1
EndSplineSet
EndChar
StartChar: question
Encoding: 31 63 31
Width: 463
VWidth: 1333
Flags: HW
HStem: -7 75<207 248.2> 633 40<265.5 456.6>
VStem: 187 77<10.7 57.8> 480 41<496.609 611.7>
Fore
187 24 m 0
 187 50 213 68 233 68 c 0
 251 68 264 55 264 38 c 0
 264 17 241 -7 217 -7 c 0
 199 -7 187 7 187 24 c 0
269 137 m 1
 229 137 l 1
 243 204 l 2
 277 360 457 415 477 505 c 0
 479 515 480 525 480 535 c 0
 480 594 438 633 376 633 c 0
 291 633 215 567 202 505 c 1
 162 505 l 1
 181 593 280 673 384 673 c 0
 467 673 521 621 521 543 c 0
 521 388 317 357 283 204 c 2
 269 137 l 1
EndSplineSet
EndChar
StartChar: at
Encoding: 32 64 32
Width: 907
VWidth: 1333
Flags: HW
HStem: -221 38<198.9 496.6> -9 41<296.7 475.2 677.1 824> 419 40<407.9 652.3> 631 41<290 804.8>
VStem: 91 42<-105.7 463.7> 238 44<54.2 298.6> 613 41<47.6 123> 873 41<145.6 555.1>
Fore
914 333 m 0
 914 186.05 832.8 -9 711 -9 c 0
 652 -9 613 43 613 115 c 2
 613 123 l 1
 545 47 450 -8 366 -8 c 0
 285 -8 238 43 238 119 c 0
 238 271 423 459 579 459 c 0
 647 459 691 423 703 367 c 1
 743 453 l 1
 786 453 l 1
 685 231 l 2
 678 217 654 172 654 123 c 0
 654 65 687 32 720 32 c 0
 800 32 873 187 873 325 c 0
 873 502 755 631 589 631 c 0
 359 631 133 386 133 127 c 0
 133 -52 249 -183 416 -183 c 0
 478 -183 541 -164 600 -132 c 1
 614 -165 l 1
 549 -201 478 -221 408 -221 c 0
 218 -221 91 -75 91 121 c 0
 91 395 332 672 597 672 c 0
 785 672 914 526 914 333 c 0
376 33 m 0
 501 33 668 190 668 323 c 0
 668 380 634 419 573 419 c 0
 446 419 282 259 282 127 c 0
 282 71 315 33 376 33 c 0
EndSplineSet
EndChar
StartChar: A
Encoding: 33 65 33
Width: 591
VWidth: 1333
Flags: HW
HStem: 0 28G<16 59 533 576> 207 40<215 484>
VStem: 16 560<0 0>
Fore
215 247 m 1
 484 247 l 1
 419 571 l 1
 215 247 l 1
492 207 m 1
 188 207 l 1
 59 0 l 1
 16 0 l 1
 439 675 l 1
 576 0 l 1
 533 0 l 1
 492 207 l 1
EndSplineSet
EndChar
StartChar: B
Encoding: 34 66 34
Width: 578
VWidth: 1333
Flags: HW
HStem: 0 40<123 454.5> 351 40<198 491.9> 627 40<248 519.5>
VStem: 529 41<96.3 316.2> 544 41<453.5 600.2>
Fore
318 40 m 2xf0
 423 40 529 126 529 225 c 0
 529 296 471 351 384 351 c 2
 189 351 l 1
 123 40 l 1
 318 40 l 2xf0
544 530 m 0xe8
 544 584 500 627 435 627 c 2
 248 627 l 1
 198 391 l 1
 384 391 l 2
 467 394 544 456 544 530 c 0xe8
570 233 m 0xf0
 570 118 450 0 309 0 c 2
 75 0 l 1
 216 667 l 1
 446 667 l 2
 528 667 585 611 585 538 c 0xe8
 585 473 541 410 474 375 c 1
 533 350 570 297 570 233 c 0xf0
EndSplineSet
EndChar
StartChar: C
Encoding: 35 67 35
Width: 719
VWidth: 1333
Flags: HW
HStem: -5 38<214.1 528.7> 633 42<282.3 656.7>
VStem: 118 41<94.8 516>
Fore
528 633 m 0
 339 633 159 459 159 269 c 0
 159 135 257 33 400 33 c 0
 499 33 596 81 666 155 c 1
 694 133 l 1
 614 49 504 -5 392 -5 c 0
 230 -5 118 110 118 264 c 0
 118 471 317 675 537 675 c 0
 649 675 736 620 779 536 c 1
 742 512 l 1
 703 585 627 633 528 633 c 0
EndSplineSet
EndChar
StartChar: D
Encoding: 36 68 36
Width: 602
VWidth: 1333
Flags: HW
HStem: 0 40<123 461.1> 627 40<248 530.2>
VStem: 586 41<149.3 570.5>
Fore
218 40 m 2
 405 40 586 206 586 395 c 0
 586 530 487 627 343 627 c 2
 248 627 l 1
 123 40 l 1
 218 40 l 2
627 404 m 0
 627 197 430 0 209 0 c 2
 75 0 l 1
 216 667 l 1
 351 667 l 2
 514 667 627 556 627 404 c 0
EndSplineSet
EndChar
StartChar: E
Encoding: 37 69 37
Width: 489
VWidth: 1333
Flags: HW
HStem: 0 40<123 461> 367 40<201 513> 627 40<248 596>
VStem: 75 530<0 667>
Fore
521 407 m 1
 513 367 l 1
 193 367 l 1
 123 40 l 1
 470 40 l 1
 461 0 l 1
 75 0 l 1
 216 667 l 1
 604 667 l 1
 596 627 l 1
 248 627 l 1
 201 407 l 1
 521 407 l 1
EndSplineSet
EndChar
StartChar: F
Encoding: 38 70 38
Width: 489
VWidth: 1333
Flags: HW
HStem: 0 28G<75 115> 367 40<201 513> 627 40<248 596>
VStem: 75 530<0 667>
Fore
521 407 m 1
 513 367 l 1
 193 367 l 1
 115 0 l 1
 75 0 l 1
 216 667 l 1
 604 667 l 1
 596 627 l 1
 248 627 l 1
 201 407 l 1
 521 407 l 1
EndSplineSet
EndChar
StartChar: G
Encoding: 39 71 39
Width: 786
VWidth: 1333
Flags: HW
HStem: -7 40<214.1 606.7> 313 40<468 757> 633 40<282.3 656.7>
VStem: 118 41<94.8 516>
CounterMasks: 1 00
Fore
118 261 m 0
 118 474 321 673 536 673 c 0
 647 673 735 619 779 536 c 1
 742 512 l 1
 703 585 627 633 528 633 c 0
 339 633 159 459 159 269 c 0
 159 135 257 33 400 33 c 0
 559 33 715 157 757 313 c 1
 460 313 l 1
 468 353 l 1
 807 353 l 1
 803 333 l 2
 763 145 579 -7 392 -7 c 0
 229 -7 118 108 118 261 c 0
EndSplineSet
EndChar
StartChar: H
Encoding: 40 72 40
Width: 623
VWidth: 1333
Flags: HW
HStem: 0 28G<75 115 509 549> 367 40<201 587> 640 27G<216 256 651 691>
VStem: 75 616<0 667>
Fore
651 667 m 1
 691 667 l 1
 549 0 l 1
 509 0 l 1
 587 367 l 1
 193 367 l 1
 115 0 l 1
 75 0 l 1
 216 667 l 1
 256 667 l 1
 201 407 l 1
 596 407 l 1
 651 667 l 1
EndSplineSet
EndChar
StartChar: I
Encoding: 41 73 41
Width: 189
VWidth: 1333
Flags: HW
HStem: 0 28G<75 115> 640 27G<216 256>
VStem: 75 182<0 667>
Fore
115 0 m 1
 75 0 l 1
 216 667 l 1
 256 667 l 1
 115 0 l 1
EndSplineSet
EndChar
StartChar: J
Encoding: 42 74 42
Width: 457
VWidth: 1333
Flags: HW
HStem: -7 40<151.6 315.4> 647 20G<487 524>
VStem: 87 41<59.4 171.67>
Fore
487 667 m 1
 524 667 l 1
 420 173 l 2
 399 75 309 -7 217 -7 c 0
 138 -7 87 53 87 132 c 0
 87 145 89 159 92 173 c 1
 132 173 l 1
 130 162 128 151 128 140 c 0
 128 78 169 33 227 33 c 0
 295 33 365 95 382 173 c 2
 487 667 l 1
EndSplineSet
EndChar
StartChar: K
Encoding: 43 75 43
Width: 514
VWidth: 1333
Flags: HW
HStem: 0 28G<75 115 457 509> 640 27G<216 256 567 627>
VStem: 75 552<0 667>
Fore
216 667 m 1
 256 667 l 1
 196 384 l 1
 567 667 l 1
 627 667 l 1
 304 421 l 1
 509 0 l 1
 457 0 l 1
 271 395 l 1
 185 329 l 1
 115 0 l 1
 75 0 l 1
 216 667 l 1
EndSplineSet
EndChar
StartChar: L
Encoding: 44 76 44
Width: 489
VWidth: 1333
Flags: HW
HStem: 0 40<123 463> 640 27G<216 256>
VStem: 75 396<0 40>
Fore
463 0 m 1
 75 0 l 1
 216 667 l 1
 256 667 l 1
 123 40 l 1
 471 40 l 1
 463 0 l 1
EndSplineSet
EndChar
StartChar: M
Encoding: 45 77 45
Width: 774
VWidth: 1333
Flags: HW
HStem: 0 28G<16 55 717 759>
VStem: 717 41<0 139>
Fore
55 0 m 1
 16 0 l 1
 287 675 l 1
 407 96 l 1
 778 675 l 1
 759 0 l 1
 717 0 l 1
 733 536 l 1
 384 -8 l 1
 271 536 l 1
 55 0 l 1
EndSplineSet
EndChar
StartChar: N
Encoding: 46 78 46
Width: 750
VWidth: 1333
Flags: HW
HStem: 0 28G<75 115> 640 27G<778 818>
Fore
75 0 m 1
 218 676 l 1
 655 89 l 1
 778 667 l 1
 818 667 l 1
 674 -9 l 1
 237 577 l 1
 115 0 l 1
 75 0 l 1
EndSplineSet
EndChar
StartChar: O
Encoding: 47 79 47
Width: 786
VWidth: 1333
Flags: HW
HStem: -7 40<214.1 641.8> 633 40<282.3 715.2>
VStem: 118 41<94.8 516> 770 41<146.4 572.8>
Fore
118 261 m 0
 118 474 321 673 536 673 c 0
 699 673 811 558 811 404 c 0
 811 197 612 -7 392 -7 c 0
 229 -7 118 108 118 261 c 0
528 633 m 0
 339 633 159 459 159 269 c 0
 159 135 257 33 400 33 c 0
 586 33 770 204 770 396 c 0
 770 532 672 633 528 633 c 0
EndSplineSet
EndChar
StartChar: P
Encoding: 48 80 48
Width: 538
VWidth: 1333
Flags: HW
HStem: 0 21G<75 115> 313 42<190 493> 628 40<248 525.6>
VStem: 550 42<405.3 600.3>
Fore
592 530 m 0
 592 423 494 313 380 313 c 2
 181 313 l 1
 115 0 l 1
 75 0 l 1
 217 668 l 1
 454 668 l 2
 537 668 592 608 592 530 c 0
389 355 m 2
 469 355 550 432 550 521 c 0
 550 582 507 628 445 628 c 2
 248 628 l 1
 190 355 l 1
 389 355 l 2
EndSplineSet
EndChar
StartChar: Q
Encoding: 49 81 49
Width: 786
VWidth: 1333
Flags: HW
HStem: -7 40<214.1 502.7> 633 40<282.3 715.2>
VStem: 118 41<94.8 516> 770 41<349.237 572.8>
Fore
528 633 m 0
 339 633 159 459 159 269 c 0
 159 135 257 33 400 33 c 0
 479 33 556 64 620 113 c 1
 550 227 l 1
 601 227 l 1
 654 143 l 1
 719 206 770 295 770 396 c 0
 770 532 672 633 528 633 c 0
811 404 m 0
 811 372 805 233 673 111 c 1
 743 0 l 1
 689 0 l 1
 639 81 l 1
 567 27 480 -7 392 -7 c 0
 229 -7 118 108 118 261 c 0
 118 474 321 673 536 673 c 0
 699 673 811 558 811 404 c 0
EndSplineSet
EndChar
StartChar: R
Encoding: 50 82 50
Width: 538
VWidth: 1333
Flags: HW
HStem: 0 21G<75 115 475 520> 313 40<190 369> 627 40<248 525.6>
VStem: 550 42<408.4 599.6>
Fore
592 528 m 0
 592 436 518 336 414 316 c 1
 520 0 l 1
 475 0 l 1
 369 313 l 1
 181 313 l 1
 115 0 l 1
 75 0 l 1
 216 667 l 1
 454 667 l 2
 537 667 592 607 592 528 c 0
388 353 m 2
 469 353 550 431 550 519 c 0
 550 581 507 627 445 627 c 2
 248 627 l 1
 190 353 l 1
 388 353 l 2
EndSplineSet
EndChar
StartChar: S
Encoding: 51 83 51
Width: 526
VWidth: 1333
Flags: HW
HStem: -9 41<175.7 411> 633 42<287.8 467.2>
VStem: 94 41<43.3 193.328> 95 41<169.345 196.237> 214 41<339.4 577.3> 476 41<94.9 408.2> 507 40<536 623.719>
Fore
214 489 m 0xec
 214 575 295 675 406 675 c 0
 474 675 537 632 547 549 c 1
 507 536 l 1xca
 499 603 451 633 397 633 c 0
 313 633 255 559 255 498 c 0
 255 376 517 395 517 230 c 0
 517 110 398 -9 259 -9 c 0
 172 -9 94 44 94 164 c 0xec
 94 172 94 180 95 188 c 1
 136 193 l 1xd8
 135 186 135 179 135 172 c 0
 135 73 197 32 268 32 c 0
 378 32 476 124 476 221 c 0
 476 365 214 342 214 489 c 0xec
EndSplineSet
EndChar
StartChar: T
Encoding: 52 84 52
Width: 439
VWidth: 1333
Flags: HW
HStem: 0 28G<200 240> 627 40<168 333 373 547>
VStem: 160 395<627 667>
Fore
555 667 m 1
 547 627 l 1
 373 627 l 1
 240 0 l 1
 200 0 l 1
 333 627 l 1
 160 627 l 1
 168 667 l 1
 555 667 l 1
EndSplineSet
EndChar
StartChar: U
Encoding: 53 85 53
Width: 623
VWidth: 1333
Flags: HW
HStem: -7 40<201.7 459.1> 647 20G<216 256 651 691>
VStem: 122 41<73.3 240.531>
Fore
216 667 m 1
 256 667 l 1
 169 253 l 2
 165 235 163 218 163 202 c 0
 163 103 229 33 320 33 c 0
 427 33 537 129 563 253 c 2
 651 667 l 1
 691 667 l 1
 603 253 l 2
 573 111 443 -7 311 -7 c 0
 198 -7 122 79 122 193 c 0
 122 213 125 233 129 253 c 2
 216 667 l 1
EndSplineSet
EndChar
StartChar: V
Encoding: 54 86 54
Width: 575
VWidth: 1333
Flags: HW
HStem: 640 27G<158 200 658 702>
VStem: 158 544<667 667>
Fore
658 667 m 1
 702 667 l 1
 290 -8 l 1
 158 667 l 1
 200 667 l 1
 312 100 l 1
 658 667 l 1
EndSplineSet
EndChar
StartChar: W
Encoding: 55 87 55
Width: 878
VWidth: 1333
Flags: HW
HStem: 640 27G<152 192 967 1010>
Fore
152 667 m 1
 192 667 l 1
 271 115 l 1
 582 675 l 1
 655 115 l 1
 967 667 l 1
 1010 667 l 1
 629 -8 l 1
 557 549 l 1
 248 -8 l 1
 152 667 l 1
EndSplineSet
EndChar
StartChar: X
Encoding: 56 88 56
Width: 431
VWidth: 1333
Flags: HW
HStem: 0 28G<11 56 376 421> 640 27G<179 224 491 536>
VStem: 11 526<0 667>
Fore
179 667 m 1
 224 667 l 1
 302 404 l 1
 491 667 l 1
 536 667 l 1
 315 360 l 1
 421 0 l 1
 376 0 l 1
 283 315 l 1
 56 0 l 1
 11 0 l 1
 270 360 l 1
 179 667 l 1
EndSplineSet
EndChar
StartChar: Y
Encoding: 57 89 57
Width: 549
VWidth: 1333
Flags: HW
HStem: 0 28G<255 295> 640 27G<158 204 628 675>
VStem: 158 517<667 667>
Fore
158 667 m 1
 204 667 l 1
 345 331 l 1
 628 667 l 1
 675 667 l 1
 356 288 l 1
 295 0 l 1
 255 0 l 1
 316 288 l 1
 158 667 l 1
EndSplineSet
EndChar
StartChar: Z
Encoding: 58 90 58
Width: 530
VWidth: 1333
Flags: HW
HStem: 0 40<99 501> 627 40<202 564>
VStem: 16 631<0 667>
Fore
202 667 m 1
 647 667 l 1
 99 40 l 1
 523 40 l 1
 501 0 l 1
 16 0 l 1
 564 627 l 1
 180 627 l 1
 202 667 l 1
EndSplineSet
EndChar
StartChar: bracketleft
Encoding: 59 91 59
Width: 194
VWidth: 1333
Flags: HW
HStem: -140 40<93 165> 667 40<256 336>
VStem: 45 300<-140 707>
Fore
256 667 m 1
 93 -100 l 1
 173 -100 l 1
 165 -140 l 1
 45 -140 l 1
 225 707 l 1
 345 707 l 1
 336 667 l 1
 256 667 l 1
EndSplineSet
EndChar
StartChar: backslash
Encoding: 60 92 60
Width: 522
VWidth: 1333
Flags: HW
HStem: 0 28G<473 523> 640 27G<142 191>
VStem: 142 381<0 667>
Fore
142 667 m 1
 191 667 l 1
 523 0 l 1
 473 0 l 1
 142 667 l 1
EndSplineSet
EndChar
StartChar: bracketright
Encoding: 61 93 61
Width: 194
VWidth: 1333
Flags: HW
HStem: -140 40<-21 59> 667 40<150 222>
VStem: -30 300<-140 707>
Fore
222 667 m 1
 142 667 l 1
 150 707 l 1
 270 707 l 1
 90 -140 l 1
 -30 -140 l 1
 -21 -100 l 1
 59 -100 l 1
 222 667 l 1
EndSplineSet
EndChar
StartChar: asciicircum
Encoding: 62 94 62
Width: 535
VWidth: 1333
Flags: HW
HStem: 333 333<388 552>
VStem: 126 427<333 333>
Fore
388 667 m 1
 434 667 l 1
 552 333 l 1
 506 333 l 1
 402 625 l 1
 172 333 l 1
 126 333 l 1
 388 667 l 1
EndSplineSet
EndChar
StartChar: underscore
Encoding: 63 95 63
Width: 434
VWidth: 1333
Flags: HW
HStem: -40 40<0 426>
VStem: -9 443<-40 0>
Fore
435 0 m 1
 426 -40 l 1
 -9 -40 l 1
 0 0 l 1
 435 0 l 1
EndSplineSet
EndChar
StartChar: quoteleft
Encoding: 299 8216 64
Width: 234
VWidth: 1333
Flags: HW
HStem: 656 20G<269 303>
VStem: 170 100<501.3 566.3>
Fore
270 539 m 0
 270 510 243 484 215 484 c 0
 193 484 170 499 170 530 c 0
 170 560 194 626 269 676 c 1
 303 676 l 1
 264 650 230 605 224 574 c 1
 227 574 230 575 234 575 c 0
 255 575 270 560 270 539 c 0
EndSplineSet
EndChar
StartChar: a
Encoding: 65 97 65
Width: 474
VWidth: 1333
Flags: HW
HStem: -8 40<113.1 278.3> 231 29<282.9 409> 421 40<256.7 386.7>
VStem: 67 41<57.8 121.195> 368 40<0 57.2828> 419 41<262.103 401.7>
Fore
411 0 m 1
 368 0 l 1
 368 12 l 0
 368 26 369 42 373 60 c 2
 380 95 l 1
 330 40 257 -8 186 -8 c 0
 100 -8 67 43 67 92 c 0
 67 101 68 109 70 117 c 0
 100 258 290 260 403 260 c 2
 415 260 l 1
 418 274 419 287 419 299 c 0
 419 378 369 421 310 421 c 0
 269 421 222 400 183 356 c 1
 155 377 l 1
 205 435 266 461 319 461 c 0
 397 461 460 407 460 310 c 0
 460 294 458 278 455 260 c 2
 413 60 l 2
 410 45 408 32 408 22 c 0
 408 13 409 6 411 0 c 1
195 32 m 0
 268 32 351 92 391 145 c 1
 409 231 l 1
 312 229 133 224 110 117 c 0
 109 112 108 107 108 102 c 0
 108 68 132 32 195 32 c 0
EndSplineSet
EndChar
StartChar: b
Encoding: 66 98 66
Width: 543
VWidth: 1333
Flags: HW
HStem: -7 40<191.3 425.2> 420 40<290.3 473.4> 647 20G<216 256>
VStem: 504 40<110.5 383.5>
Fore
544 280 m 0
 544 131 411 -7 281 -7 c 0
 212 -7 149 56 139 116 c 1
 127 60 l 2
 123 37 116 17 107 0 c 1
 64 0 l 1
 73 13 82 33 87 60 c 2
 216 667 l 1
 256 667 l 1
 186 337 l 1
 223 401 311 460 380 460 c 0
 479 460 544 381 544 280 c 0
372 420 m 0
 267 420 158 306 158 181 c 0
 158 96 212 33 290 33 c 0
 394 33 504 148 504 273 c 0
 504 358 450 420 372 420 c 0
EndSplineSet
EndChar
StartChar: c
Encoding: 67 99 67
Width: 491
VWidth: 1333
Flags: HW
HStem: -5 41<167.6 345.7> 420 41<215.8 426.4>
VStem: 97 40<72.5 348.1>
Fore
351 420 m 0
 247 420 137 310 137 183 c 0
 137 98 191 36 269 36 c 0
 328 36 387 71 429 125 c 1
 460 105 l 1
 410 40 335 -5 260 -5 c 0
 161 -5 97 72 97 173 c 0
 97 323 228 461 359 461 c 0
 434 461 490 416 512 351 c 1
 473 331 l 1
 454 385 409 420 351 420 c 0
EndSplineSet
EndChar
StartChar: d
Encoding: 68 100 68
Width: 543
VWidth: 1333
Flags: HW
HStem: -7 40<167.9 349.7> 420 40<217.1 448.7> 647 20G<571 611>
VStem: 97 40<70.5 348.7> 437 40<0 57.2828>
Fore
97 172 m 0
 97 321 229 460 359 460 c 0
 428 460 492 401 501 337 c 1
 571 667 l 1
 611 667 l 1
 482 60 l 2
 479 45 477 32 477 22 c 0
 477 13 478 6 480 0 c 1
 437 0 l 1
 437 12 l 0
 437 26 438 42 442 60 c 2
 454 116 l 1
 419 56 329 -7 260 -7 c 0
 161 -7 97 71 97 172 c 0
268 33 m 0
 373 33 483 146 483 271 c 0
 483 357 428 420 351 420 c 0
 248 420 137 310 137 181 c 0
 137 96 191 33 268 33 c 0
EndSplineSet
EndChar
StartChar: e
Encoding: 69 101 69
Width: 526
VWidth: 1333
Flags: HW
HStem: -7 42<167.6 344.4> 227 38<155 484> 420 40<249.3 453.4>
VStem: 97 40<70.5 225.423> 484 41<265 358>
Fore
155 265 m 1
 484 265 l 1
 484 272 l 2
 484 358 430 420 352 420 c 0
 273 420 190 355 155 265 c 1
97 172 m 0
 97 322 230 460 360 460 c 0
 460 460 525 382 525 281 c 0
 525 270 525 258 523 247 c 2
 520 227 l 1
 142 227 l 1
 139 211 137 196 137 181 c 0
 137 96 191 35 269 35 c 0
 327 35 400 69 442 124 c 1
 473 104 l 1
 423 39 335 -7 260 -7 c 0
 161 -7 97 71 97 172 c 0
EndSplineSet
EndChar
StartChar: f
Encoding: 70 102 70
Width: 238
VWidth: 1333
Flags: HW
HStem: 0 28G<73 113> 413 40<131 161 210 313> 647 27<288 382>
VStem: 73 308<0 673>
Fore
73 0 m 1
 161 413 l 1
 123 413 l 1
 131 453 l 1
 170 453 l 1
 178 493 l 2
 199 592 290 673 382 673 c 1
 376 647 l 1
 308 647 235 572 218 493 c 2
 210 453 l 1
 335 453 l 1
 313 413 l 1
 201 413 l 1
 113 0 l 1
 73 0 l 1
EndSplineSet
EndChar
StartChar: g
Encoding: 71 103 71
Width: 543
VWidth: 1333
Flags: HW
HStem: -233 40<166.7 338.3> -7 40<164.6 349.7> 420 40<211.5 448.7>
VStem: 97 37<70.5 343.5>
Fore
97 172 m 0
 97 321 229 460 359 460 c 0
 428 460 491 397 501 337 c 1
 513 393 l 2
 518 416 525 436 534 453 c 1
 576 453 l 1
 567 440 559 420 553 393 c 2
 469 0 l 2
 442 -127 326 -233 210 -233 c 0
 157 -233 114 -211 86 -175 c 1
 121 -147 l 1
 144 -176 179 -193 220 -193 c 0
 311 -193 406 -108 429 0 c 2
 454 116 l 1
 418 52 329 -7 260 -7 c 0
 161 -7 97 71 97 172 c 0
266 33 m 0
 370 33 480 148 480 273 c 0
 480 358 426 420 348 420 c 0
 243 420 134 306 134 181 c 0
 134 96 188 33 266 33 c 0
EndSplineSet
EndChar
StartChar: h
Encoding: 72 104 72
Width: 479
VWidth: 1333
Flags: HW
HStem: 0 21G<75 115 365 405> 420 40<293.2 431.4> 647 20G<216 256>
VStem: 430 41<285.688 391.1>
Fore
75 0 m 1
 216 667 l 1
 256 667 l 1
 184 324 l 1
 229 395 310 460 366 460 c 0
 440 460 471 408 471 338 c 0
 471 320 469 300 465 280 c 2
 405 0 l 1
 365 0 l 1
 425 280 l 2
 428 296 430 313 430 330 c 0
 430 377 414 420 356 420 c 0
 283 420 177 295 163 227 c 2
 115 0 l 1
 75 0 l 1
EndSplineSet
EndChar
StartChar: i
Encoding: 73 105 73
Width: 189
VWidth: 1333
Flags: HW
HStem: 0 21G<75 115> 433 20G<171 211> 524 72<191.1 237.2>
VStem: 177 74<539.7 581.9>
Fore
177 552 m 0
 177 575 198 596 221 596 c 0
 239 596 251 584 251 567 c 0
 251 546 230 524 206 524 c 0
 189 524 177 536 177 552 c 0
115 0 m 1
 75 0 l 1
 171 453 l 1
 211 453 l 1
 115 0 l 1
EndSplineSet
EndChar
StartChar: j
Encoding: 74 106 74
Width: 186
VWidth: 1333
Flags: HW
HStem: -139 34<-43 26.4> 433 20G<171 211> 524 72<188.8 234.9>
VStem: 175 74<538.1 580.3>
Fore
171 453 m 1
 211 453 l 1
 115 1 l 2
 99 -75 29 -139 -43 -139 c 1
 -36 -105 l 1
 12 -105 63 -56 75 1 c 2
 171 453 l 1
175 553 m 0
 175 574 196 596 220 596 c 0
 237 596 249 584 249 568 c 0
 249 545 228 524 205 524 c 0
 187 524 175 536 175 553 c 0
EndSplineSet
EndChar
StartChar: k
Encoding: 75 107 75
Width: 425
VWidth: 1333
Flags: HW
HStem: 0 28G<75 115 373 425> 427 27G<412 472> 640 27G<216 256>
VStem: 75 398<0 453>
Fore
115 0 m 1
 75 0 l 1
 216 667 l 1
 256 667 l 1
 172 271 l 1
 412 453 l 1
 472 453 l 1
 245 280 l 1
 425 0 l 1
 373 0 l 1
 210 253 l 1
 161 217 l 1
 115 0 l 1
EndSplineSet
EndChar
StartChar: l
Encoding: 76 108 76
Width: 189
VWidth: 1333
Flags: HW
HStem: 0 28G<75 115> 640 27G<216 256>
VStem: 75 182<0 667>
Fore
115 0 m 1
 75 0 l 1
 216 667 l 1
 256 667 l 1
 115 0 l 1
EndSplineSet
EndChar
StartChar: m
Encoding: 77 109 77
Width: 713
VWidth: 1333
Flags: HW
HStem: 0 21G<75 115 336 376 599 639> 420 40<287.3 402.7 544.7 664.7>
VStem: 163 41<398.229 456.955> 402 47<323.506 393.5> 664 41<288.886 391.2>
Fore
160 453 m 1
 203 453 l 1
 204 449 204 444 204 439 c 0
 204 425 202 410 198 393 c 2
 184 328 l 1
 227 396 302 460 351 460 c 0
 419 460 449 409 449 344 c 0
 449 339 448 333 448 328 c 1
 491 397 560 459 611 459 c 0
 678 459 705 408 705 343 c 0
 705 322 703 301 698 279 c 2
 639 0 l 1
 599 0 l 1
 658 279 l 2
 662 296 664 315 664 334 c 0
 664 378 650 419 601 419 c 0
 538 419 439 296 424 225 c 2
 376 0 l 1
 336 0 l 1
 396 280 l 2
 400 297 402 317 402 335 c 0
 402 380 388 420 339 420 c 0
 280 420 179 303 163 227 c 2
 115 0 l 1
 75 0 l 1
 158 393 l 2
 161 408 163 421 163 431 c 0
 163 440 162 447 160 453 c 1
EndSplineSet
EndChar
StartChar: n
Encoding: 78 110 78
Width: 479
VWidth: 1333
Flags: HW
HStem: 0 21G<75 115 365 405> 420 40<293.2 431.4>
VStem: 163 41<398.229 456.955> 430 41<285.688 391.1>
Fore
160 453 m 1
 203 453 l 1
 204 449 204 444 204 439 c 0
 204 425 202 410 198 393 c 2
 184 325 l 1
 231 397 310 460 366 460 c 0
 440 460 471 408 471 338 c 0
 471 320 469 300 465 280 c 2
 405 0 l 1
 365 0 l 1
 425 280 l 2
 428 296 430 313 430 330 c 0
 430 377 414 420 356 420 c 0
 283 420 177 295 163 227 c 2
 115 0 l 1
 75 0 l 1
 158 393 l 2
 161 408 163 421 163 431 c 0
 163 440 162 447 160 453 c 1
EndSplineSet
EndChar
StartChar: o
Encoding: 79 111 79
Width: 573
VWidth: 1333
Flags: HW
HStem: -7 40<174.1 449.7> 420 40<224.9 497.9>
VStem: 98 41<72.9 348.5> 534 38<106.1 380.4>
Fore
98 177 m 0
 98 324 237 460 384 460 c 0
 496 460 572 381 572 275 c 0
 572 136 438 -7 285 -7 c 0
 174 -7 98 71 98 177 c 0
377 420 m 0
 260 420 139 311 139 186 c 0
 139 99 202 33 295 33 c 0
 414 33 534 143 534 266 c 0
 534 354 470 420 377 420 c 0
EndSplineSet
EndChar
StartChar: p
Encoding: 80 112 80
Width: 543
VWidth: 1333
Flags: HW
HStem: -200 21G<32 72> -7 40<191.3 425.2> 420 40<290.3 473.4>
VStem: 163 41<398.229 456.955> 504 40<110.5 383.5>
Fore
544 280 m 0
 544 131 411 -7 281 -7 c 0
 212 -7 148 52 139 116 c 1
 72 -200 l 1
 32 -200 l 1
 158 393 l 2
 161 408 163 421 163 431 c 0
 163 440 162 447 160 453 c 1
 203 453 l 1
 204 449 204 444 204 439 c 0
 204 425 202 410 198 393 c 2
 186 337 l 1
 222 397 311 460 380 460 c 0
 479 460 544 381 544 280 c 0
372 420 m 0
 267 420 158 306 158 181 c 0
 158 96 212 33 290 33 c 0
 394 33 504 148 504 273 c 0
 504 358 450 420 372 420 c 0
EndSplineSet
EndChar
StartChar: q
Encoding: 81 113 81
Width: 543
VWidth: 1333
Flags: HW
HStem: -200 21G<387 427> -7 40<167.9 349.7> 420 40<217.1 448.7>
VStem: 97 40<70.5 348.7>
Fore
97 172 m 0
 97 321 229 460 359 460 c 0
 428 460 491 397 501 337 c 1
 513 393 l 2
 518 416 525 436 534 453 c 1
 576 453 l 1
 567 440 559 420 553 393 c 2
 427 -200 l 1
 387 -200 l 1
 454 116 l 1
 418 52 329 -7 260 -7 c 0
 161 -7 97 71 97 172 c 0
268 33 m 0
 373 33 483 146 483 271 c 0
 483 357 428 420 351 420 c 0
 248 420 137 310 137 181 c 0
 137 96 191 33 268 33 c 0
EndSplineSet
EndChar
StartChar: r
Encoding: 82 114 82
Width: 290
VWidth: 1333
Flags: HW
HStem: 0 21G<75 115> 433 20G<160 203>
VStem: 163 41<398.229 456.955>
Fore
160 453 m 1
 203 453 l 1
 204 449 204 444 204 439 c 0
 204 425 202 410 198 393 c 2
 186 337 l 1
 211 384 283 441 336 460 c 1
 374 428 l 1
 294 428 186 333 164 233 c 2
 115 0 l 1
 75 0 l 1
 158 393 l 2
 161 408 163 421 163 431 c 0
 163 440 162 447 160 453 c 1
EndSplineSet
EndChar
StartChar: s
Encoding: 83 115 83
Width: 399
VWidth: 1333
Flags: HW
HStem: -8 40<147.8 290.8> 422 39<221.4 330.6>
VStem: 81 41<40.4 132.299> 160 43<241.2 385.5> 335 41<69.4 269.6> 357 40<360 415.152>
Fore
160 330 m 0xf8
 160 394 219 461 298 461 c 0
 345 461 389 433 397 373 c 1
 357 360 l 1xf4
 351 402 321 422 289 422 c 0
 237 422 203 375 203 340 c 0
 203 264 376 274 376 160 c 0
 376 72 291 -8 196 -8 c 0
 135 -8 81 29 81 112 c 0
 81 117 81 123 82 129 c 1
 123 135 l 1
 123 130 122 126 122 121 c 0
 122 59 161 32 205 32 c 0
 271 32 335 88 335 150 c 0
 335 242 160 229 160 330 c 0xf8
EndSplineSet
EndChar
StartChar: t
Encoding: 84 116 84
Width: 247
VWidth: 1333
Flags: HW
HStem: 0 28G<75 115> 413 40<131 163 211 315>
VStem: 75 262<0 453>
Fore
115 0 m 1
 75 0 l 1
 163 413 l 1
 123 413 l 1
 131 453 l 1
 171 453 l 1
 194 560 l 1
 234 560 l 1
 211 453 l 1
 336 453 l 1
 315 413 l 1
 203 413 l 1
 115 0 l 1
EndSplineSet
EndChar
StartChar: u
Encoding: 85 117 85
Width: 477
VWidth: 1333
Flags: HW
HStem: -7 40<168.6 332.4> 433 20G<171 211 459 499>
VStem: 107 41<59.7 171.67>
Fore
171 453 m 1
 211 453 l 1
 152 173 l 2
 149 161 148 150 148 139 c 0
 148 78 186 33 244 33 c 0
 312 33 383 95 400 173 c 2
 459 453 l 1
 499 453 l 1
 440 173 l 2
 419 75 329 -7 237 -7 c 0
 158 -7 107 53 107 132 c 0
 107 145 109 159 112 173 c 2
 171 453 l 1
EndSplineSet
EndChar
StartChar: v
Encoding: 86 118 86
Width: 423
VWidth: 1333
Flags: HW
HStem: -13 467<112 210>
VStem: 112 392<453 453>
Fore
112 453 m 1
 155 453 l 1
 231 91 l 1
 460 453 l 1
 504 453 l 1
 210 -13 l 1
 112 453 l 1
EndSplineSet
EndChar
StartChar: w
Encoding: 87 119 87
Width: 715
VWidth: 1333
Flags: HW
HStem: -13 480<459 509>
Fore
112 453 m 1
 156 453 l 1
 228 93 l 1
 459 467 l 1
 532 93 l 1
 754 453 l 1
 796 453 l 1
 509 -13 l 1
 435 360 l 1
 204 -13 l 1
 112 453 l 1
EndSplineSet
EndChar
StartChar: x
Encoding: 88 120 88
Width: 405
VWidth: 1333
Flags: HW
HStem: 0 28G<16 63 343 389> 427 27G<131 175 420 467>
VStem: 16 451<0 453>
Fore
131 453 m 1
 175 453 l 1
 260 275 l 1
 420 453 l 1
 467 453 l 1
 276 240 l 1
 389 0 l 1
 343 0 l 1
 246 205 l 1
 63 0 l 1
 16 0 l 1
 231 240 l 1
 131 453 l 1
EndSplineSet
EndChar
StartChar: y
Encoding: 89 121 89
Width: 423
VWidth: 1333
Flags: HW
HStem: 427 27G<112 154 462 504>
VStem: 56 449<-233 453>
Fore
112 453 m 1
 154 453 l 1
 225 53 l 1
 462 453 l 1
 504 453 l 1
 98 -233 l 1
 56 -233 l 1
 193 -1 l 1
 112 453 l 1
EndSplineSet
EndChar
StartChar: z
Encoding: 90 122 90
Width: 397
VWidth: 1333
Flags: HW
HStem: 0 40<101 367> 413 40<167 395>
VStem: 16 462<0 453>
Fore
167 453 m 1
 478 453 l 1
 100 40 l 1
 388 40 l 1
 367 0 l 1
 16 0 l 1
 395 413 l 1
 145 413 l 1
 167 453 l 1
EndSplineSet
EndChar
StartChar: braceleft
Encoding: 91 123 91
Width: 255
VWidth: 1333
Flags: HW
HStem: -139 27<160.5 206> 673 27<319.5 378>
VStem: 111 41<-99.1 3.98877> 152 41<159.258 237.2>
Fore
271 547 m 2
 243 415 l 2
 228 344 203 311 162 281 c 1
 180 264 193 243 193 204 c 0
 193 189 191 170 186 148 c 2
 158 15 l 2
 154 -5 152 -23 152 -38 c 0
 152 -85 171 -112 206 -112 c 1
 200 -139 l 1
 163 -139 111 -123 111 -42 c 0
 111 -26 113 -7 118 15 c 2
 146 148 l 2
 150 166 152 180 152 193 c 0
 152 227 137 244 112 264 c 1
 119 297 l 1
 165 324 188 345 203 413 c 2
 231 547 l 2
 259 677 333 700 378 700 c 1
 372 673 l 1
 326 673 288 627 271 547 c 2
EndSplineSet
EndChar
StartChar: bar
Encoding: 92 124 92
Width: 189
VWidth: 1333
Flags: HW
VStem: 60 210<-67 733>
Fore
100 -67 m 1
 60 -67 l 1
 231 733 l 1
 271 733 l 1
 100 -67 l 1
EndSplineSet
EndChar
StartChar: braceright
Encoding: 93 125 93
Width: 257
VWidth: 1333
Flags: HW
HStem: -140 27<-3 55.5> 673 26<170 215.5>
VStem: 182 43<322.5 399.133> 224 41<552.987 661.4>
Fore
170 673 m 1xd0
 175 699 l 1
 214 699 265 683 265 601 c 0xd0
 265 585 263 566 259 545 c 2
 230 412 l 2
 226 394 225 380 225 368 c 0
 225 333 239 316 264 296 c 1
 257 263 l 1
 211 236 188 215 174 147 c 2
 145 13 l 2
 118 -117 42 -140 -3 -140 c 1
 3 -113 l 1
 49 -113 88 -67 105 13 c 2
 134 147 l 2
 150 224 180 256 214 280 c 1
 194 300 182 323 182 360 c 0xe0
 182 375 185 392 189 413 c 2
 218 547 l 2
 222 566 224 584 224 599 c 0
 224 647 205 673 170 673 c 1xd0
EndSplineSet
EndChar
StartChar: asciitilde
Encoding: 94 126 94
Width: 473
VWidth: 1333
Flags: HW
HStem: 169 41<305 415> 229 41<154 267>
VStem: 92 384<173 267>
Fore
449 267 m 1
 475 267 l 1
 460 196 419 169 375 169 c 0
 307 169 249 229 187 229 c 0
 165 229 128 221 118 173 c 1
 92 173 l 1
 107 247 154 271 196 271 c 0
 272 271 323 211 383 211 c 0
 403 211 438 217 449 267 c 1
EndSplineSet
EndChar
StartChar: exclamdown
Encoding: 96 161 95
Width: 255
VWidth: 1333
Flags: HW
HStem: 440 20G<216 235>
VStem: 180 76<396.2 448.8>
Fore
186 333 m 1
 212 333 l 1
 109 -213 l 1
 56 -213 l 1
 186 333 l 1
180 415 m 0
 180 441 206 460 226 460 c 0
 244 460 256 447 256 430 c 0
 256 404 230 385 210 385 c 0
 193 385 180 398 180 415 c 0
EndSplineSet
EndChar
StartChar: cent
Encoding: 97 162 96
Width: 494
VWidth: 1333
Flags: HW
VStem: 97 41<80.6 331.5>
Fore
362 560 m 1
 402 560 l 1
 380 460 l 1
 446 453 494 411 515 351 c 1
 476 331 l 1
 459 379 422 412 373 419 c 1
 291 35 l 1
 343 41 395 75 431 123 c 1
 462 103 l 1
 416 44 350 1 282 -5 c 1
 260 -107 l 1
 220 -107 l 1
 242 -5 l 1
 153 3 97 77 97 172 c 0
 97 305 207 446 340 459 c 1
 362 560 l 1
332 420 m 1
 232 407 138 297 138 182 c 0
 138 104 183 45 250 36 c 1
 332 420 l 1
EndSplineSet
EndChar
StartChar: sterling
Encoding: 98 163 97
Width: 462
VWidth: 1333
Flags: HW
HStem: 0 40<112 417> 313 40<125 223 267 389> 636 39<345.5 482>
VStem: 512 28<537 625.2>
Fore
389 313 m 1
 263 313 l 1
 237 142 159 74 112 40 c 1
 439 40 l 1
 417 0 l 1
 43 0 l 1
 40 37 l 1
 155 96 197 179 216 271 c 0
 219 284 222 297 223 311 c 1
 103 311 l 1
 125 351 l 1
 228 351 l 1
 235 416 236 479 249 536 c 0
 267 623 351 675 425 675 c 0
 487 675 540 636 540 551 c 2
 540 537 l 1
 512 532 l 1
 512 542 l 2
 512 606 467 636 417 636 c 0
 362 636 301 600 288 537 c 0
 276 485 275 420 267 353 c 1
 411 353 l 1
 389 313 l 1
EndSplineSet
EndChar
StartChar: fraction
Encoding: 312 8260 98
Width: 526
VWidth: 1333
Flags: HW
HStem: 0 21G<1 51> 647 20G<616 666>
Fore
616 667 m 1
 666 667 l 1
 51 0 l 1
 1 0 l 1
 616 667 l 1
EndSplineSet
EndChar
StartChar: yen
Encoding: 100 165 99
Width: 549
VWidth: 1333
Flags: HW
HStem: 0 28G<255 295> 179 43<140 293 342 490> 288 43<165 298 392 517> 640 27G<158 204 628 675>
VStem: 131 544<179 667>
Fore
499 221 m 1
 490 179 l 1
 333 179 l 1
 295 0 l 1
 255 0 l 1
 293 179 l 1
 131 179 l 1
 140 221 l 1
 302 221 l 1
 316 288 l 1
 156 288 l 1
 165 331 l 1
 298 331 l 1
 158 667 l 1
 204 667 l 1
 345 331 l 1
 628 667 l 1
 675 667 l 1
 392 331 l 1
 526 331 l 1
 517 288 l 1
 356 288 l 1
 342 221 l 1
 499 221 l 1
EndSplineSet
EndChar
StartChar: florin
Encoding: 200 402 100
Width: 362
VWidth: 1333
Flags: HW
HStem: -73 27<-49 50> 351 40<182 244 302 456> 647 27<437 536>
VStem: -49 585<-73 673>
Fore
479 391 m 1
 456 351 l 1
 285 351 l 1
 167 63 l 2
 129 -35 40 -73 -49 -73 c 1
 -43 -47 l 1
 29 -47 99 -5 128 71 c 2
 244 351 l 1
 160 351 l 1
 182 391 l 1
 260 391 l 1
 321 537 l 2
 360 635 447 673 536 673 c 1
 531 647 l 1
 459 647 389 605 359 529 c 2
 302 391 l 1
 479 391 l 1
EndSplineSet
EndChar
StartChar: section
Encoding: 102 167 101
Width: 401
VWidth: 1333
Flags: HW
HStem: -60 40<135.5 286.3> 633 40<248.6 395.5>
VStem: 70 40<-16.3 80.8963> 121 42<231.7 333.363> 165 43<464.1 596.3> 324 43<20.3 150.9> 370 41<281.637 381> 420 42<537 626>
Fore
367 108 m 0
 367 23 283 -60 187 -60 c 0
 126 -60 70 -23 70 62 c 0
 70 67 71 72 71 77 c 1
 111 77 l 1
 111 72 110 68 110 63 c 0
 110 2 149 -20 194 -20 c 0
 265 -20 324 38 324 97 c 0
 324 195 121 176 121 300 c 0
 121 322 129 388 199 435 c 1
 179 452 165 474 165 507 c 0
 165 592 247 673 344 673 c 0
 406 673 462 637 462 552 c 0
 462 547 461 542 461 537 c 1
 420 537 l 1
 420 548 l 2
 420 608 382 633 337 633 c 0
 269 633 208 578 208 517 c 0
 208 418 411 438 411 315 c 0
 411 293 403 227 333 180 c 1
 353 163 367 141 367 108 c 0
299 203 m 1
 357 232 370 280 370 303 c 0
 370 363 291 382 232 412 c 1
 175 383 163 334 163 311 c 0
 163 250 239 234 299 203 c 1
EndSplineSet
EndChar
StartChar: currency
Encoding: 99 164 102
Width: 582
VWidth: 1333
Flags: HW
HStem: 148 41<263.9 383.5> 493 40<345.5 465.1>
VStem: 168 41<261.506 397.2> 520 42<286.1 420.517>
Fore
168 301 m 0
 168 375 210 432 241 463 c 1
 186 532 l 1
 220 560 l 1
 275 491 l 1
 314 517 359 533 404 533 c 0
 451 533 490 516 517 488 c 1
 607 560 l 1
 629 532 l 1
 543 460 l 1
 555 437 562 410 562 381 c 0
 562 308 521 251 489 220 c 1
 549 143 l 1
 515 115 l 1
 455 191 l 1
 416 164 370 148 325 148 c 0
 278 148 239 164 211 191 c 1
 116 113 l 1
 94 141 l 1
 189 219 l 1
 176 242 168 271 168 301 c 0
397 493 m 0
 303 493 209 407 209 309 c 0
 209 240 259 189 332 189 c 0
 423 189 520 273 520 372 c 0
 520 441 470 493 397 493 c 0
EndSplineSet
EndChar
StartChar: quotesingle
Encoding: 7 39 103
Width: 202
VWidth: 1333
Flags: HW
Fore
225 520 m 1
 199 520 l 1
 222 693 l 1
 275 693 l 1
 225 520 l 1
EndSplineSet
EndChar
StartChar: quotedblleft
Encoding: 302 8220 104
Width: 330
VWidth: 1333
Flags: HW
HStem: 484 91<221.183 251.4 341.183 371.4> 656 20G<269 303 389 423>
VStem: 170 100<501.3 566.3> 290 100<501.3 566.3>
Fore
270 539 m 0
 270 510 243 484 215 484 c 0
 193 484 170 499 170 530 c 0
 170 560 194 626 269 676 c 1
 303 676 l 1
 264 650 230 605 224 574 c 1
 227 574 230 575 234 575 c 0
 255 575 270 560 270 539 c 0
390 539 m 0
 390 510 363 484 335 484 c 0
 313 484 290 499 290 530 c 0
 290 560 314 626 389 676 c 1
 423 676 l 1
 384 650 350 605 344 574 c 1
 347 574 350 575 354 575 c 0
 375 575 390 560 390 539 c 0
EndSplineSet
EndChar
StartChar: guillemotleft
Encoding: 106 171 105
Width: 391
VWidth: 1333
Flags: HW
HStem: 67 320<379 398>
VStem: 103 345<227 387>
Fore
398 387 m 1
 448 387 l 1
 299 227 l 1
 379 67 l 1
 330 67 l 1
 250 227 l 1
 398 387 l 1
252 387 m 1
 301 387 l 1
 152 227 l 1
 233 67 l 1
 183 67 l 1
 103 227 l 1
 252 387 l 1
EndSplineSet
EndChar
StartChar: guilsinglleft
Encoding: 310 8249 106
Width: 211
VWidth: 1333
Flags: HW
HStem: 67 320<194 213>
VStem: 64 198<227 387>
Fore
213 387 m 1
 262 387 l 1
 114 227 l 1
 194 67 l 1
 145 67 l 1
 64 227 l 1
 213 387 l 1
EndSplineSet
EndChar
StartChar: guilsinglright
Encoding: 311 8250 107
Width: 211
VWidth: 1333
Flags: HW
HStem: 67 320<96 114>
VStem: 46 198<67 227>
Fore
114 387 m 1
 164 387 l 1
 244 227 l 1
 96 67 l 1
 46 67 l 1
 195 227 l 1
 114 387 l 1
EndSplineSet
EndChar
StartChar: endash
Encoding: 297 8211 108
Width: 237
VWidth: 1333
Flags: HW
HStem: 199 56<54 280>
VStem: 42 249<199 255>
Fore
291 255 m 1
 280 199 l 1
 42 199 l 1
 54 255 l 1
 291 255 l 1
EndSplineSet
EndChar
StartChar: dagger
Encoding: 305 8224 109
Width: 522
VWidth: 1333
Flags: HW
HStem: 420 40<162 232.714 476.714 548> 427 26<266 339 371 443.429> 647 20G<383 423>
VStem: 153 403<420 460>
Fore
254 -128 m 1x70
 214 -128 l 1
 339 427 l 1x70
 153 420 l 1
 162 460 l 1xb0
 344 453 l 1
 383 667 l 1
 423 667 l 1
 371 453 l 1x70
 556 460 l 1
 548 420 l 1xb0
 365 427 l 1
 254 -128 l 1x70
EndSplineSet
EndChar
StartChar: daggerdbl
Encoding: 306 8225 110
Width: 522
VWidth: 1333
Flags: HW
HStem: 117 40<97 168.286 405.571 484> 124 27<194.714 274 307 379.429> 383 40<154 232 468.714 540> 389 27<258 331 363 442.286> 647 20G<383 423>
VStem: 89 459<117 423>
Fore
254 -128 m 1x4c
 214 -128 l 1
 274 124 l 1x4c
 89 117 l 1
 97 157 l 1x8c
 280 151 l 1
 331 389 l 1x5c
 145 383 l 1
 154 423 l 1x2c
 336 416 l 1
 383 667 l 1
 423 667 l 1
 363 416 l 1x1c
 548 423 l 1
 540 383 l 1x2c
 357 389 l 1
 307 151 l 1x5c
 492 157 l 1
 484 117 l 1x8c
 301 124 l 1
 254 -128 l 1x4c
EndSplineSet
EndChar
StartChar: periodcentered
Encoding: 118 183 111
Width: 223
VWidth: 1333
Flags: HW
HStem: 296 75<162.4 201>
VStem: 145 76<306.2 356.2>
Fore
145 325 m 0
 145 349 169 371 191 371 c 0
 209 371 221 357 221 340 c 0
 221 314 195 296 175 296 c 0
 158 296 145 309 145 325 c 0
EndSplineSet
EndChar
StartChar: paragraph
Encoding: 117 182 112
Width: 563
VWidth: 1333
Flags: HW
HStem: 627 40<516 583>
VStem: 142 489<388 667>
Fore
142 388 m 0
 142 511 259 667 475 667 c 2
 631 667 l 1
 466 -111 l 1
 426 -111 l 1
 583 627 l 1
 516 627 l 1
 359 -111 l 1
 319 -111 l 1
 385 200 l 1
 376 200 l 2
 216 200 142 288 142 388 c 0
EndSplineSet
EndChar
StartChar: bullet
Encoding: 307 8226 113
Width: 442
VWidth: 1333
Flags: HW
Fore
117 233 m 0
 117 336 215 427 312 427 c 0
 387 427 439 373 439 301 c 0
 439 198 341 107 244 107 c 0
 169 107 117 161 117 233 c 0
EndSplineSet
EndChar
StartChar: quotesinglbase
Encoding: 301 8218 114
Width: 234
VWidth: 1333
Flags: HW
VStem: 90 100<-5 61.3>
Fore
90 21 m 0
 90 52 121 76 145 76 c 0
 167 76 190 61 190 30 c 0
 190 0 167 -66 92 -116 c 1
 58 -116 l 1
 96 -90 130 -45 137 -14 c 1
 134 -14 130 -15 126 -15 c 0
 105 -15 90 1 90 21 c 0
EndSplineSet
EndChar
StartChar: quotedblbase
Encoding: 304 8222 115
Width: 330
VWidth: 1333
Flags: HW
HStem: -7 91<88.5 114.254 208.5 234.254>
VStem: 64 101<2.7 71.6> 184 101<2.7 71.6>
Fore
184 30 m 0
 184 62 216 84 241 84 c 0
 262 84 285 69 285 38 c 0
 285 9 264 -56 187 -108 c 1
 153 -108 l 1
 191 -82 225 -37 232 -6 c 1
 229 -6 225 -7 222 -7 c 0
 200 -7 184 9 184 30 c 0
64 30 m 0
 64 62 96 84 121 84 c 0
 142 84 165 69 165 38 c 0
 165 9 144 -56 67 -108 c 1
 33 -108 l 1
 71 -82 105 -37 112 -6 c 1
 109 -6 105 -7 102 -7 c 0
 80 -7 64 9 64 30 c 0
EndSplineSet
EndChar
StartChar: quotedblright
Encoding: 303 8221 116
Width: 330
VWidth: 1333
Flags: HW
HStem: 583 90<213.5 239.443 333.5 359.443>
VStem: 189 102<593 659.3> 309 102<593 659.3>
Fore
309 619 m 0
 309 650 341 673 366 673 c 0
 388 673 411 659 411 627 c 0
 411 598 387 532 312 481 c 1
 278 481 l 1
 316 507 351 553 357 584 c 1
 354 583 350 583 347 583 c 0
 325 583 309 599 309 619 c 0
189 619 m 0
 189 650 221 673 246 673 c 0
 268 673 291 659 291 627 c 0
 291 598 267 532 192 481 c 1
 158 481 l 1
 196 507 231 553 237 584 c 1
 234 583 230 583 227 583 c 0
 205 583 189 599 189 619 c 0
EndSplineSet
EndChar
StartChar: guillemotright
Encoding: 122 187 117
Width: 391
VWidth: 1333
Flags: HW
HStem: 67 320<118 137>
VStem: 69 345<67 227>
Fore
137 387 m 1
 186 387 l 1
 267 227 l 1
 118 67 l 1
 69 67 l 1
 218 227 l 1
 137 387 l 1
284 387 m 1
 333 387 l 1
 414 227 l 1
 265 67 l 1
 215 67 l 1
 364 227 l 1
 284 387 l 1
EndSplineSet
EndChar
StartChar: ellipsis
Encoding: 308 8230 118
Width: 789
VWidth: 1333
Flags: HW
HStem: -7 75<116 153 384 421 650 686>
VStem: 96 77<4.2 57.8> 364 77<4.2 57.8> 630 76<4.2 56.8>
Fore
96 24 m 0
 96 50 122 68 142 68 c 0
 160 68 173 55 173 38 c 0
 173 12 147 -7 127 -7 c 0
 109 -7 96 7 96 24 c 0
630 23 m 0
 630 49 656 68 676 68 c 0
 694 68 706 55 706 38 c 0
 706 12 680 -7 660 -7 c 0
 643 -7 630 6 630 23 c 0
364 24 m 0
 364 50 390 68 410 68 c 0
 428 68 441 55 441 38 c 0
 441 12 415 -7 395 -7 c 0
 377 -7 364 7 364 24 c 0
EndSplineSet
EndChar
StartChar: perthousand
Encoding: 309 8240 119
Width: 989
VWidth: 1333
Flags: HW
HStem: -8 41<444.1 574.1 777.1 903.2> 212 41<465.2 595.2 798.2 928.2> 409 42<202.1 328.2> 629 42<227.1 353.2>
VStem: 144 41<469 600.3> 370 41<481 611> 386 41<50.7 178.1> 612 41<66.6 194> 719 41<50 177.4> 945 41<60.7 193.3>
Fore
386 95 m 0xfbc0
 386 172 459 253 547 253 c 0
 610 253 653 209 653 150 c 0
 653 67 573 -8 492 -8 c 0
 430 -8 386 36 386 95 c 0xfbc0
538 212 m 0
 482 212 427 161 427 104 c 0
 427 63 457 33 500 33 c 0
 557 33 612 84 612 142 c 0
 612 182 582 212 538 212 c 0
719 93 m 0
 719 173 795 252 880 252 c 0
 943 252 986 207 986 148 c 0
 986 70 912 -9 825 -9 c 0
 763 -9 719 35 719 93 c 0
871 211 m 0
 815 211 760 160 760 102 c 0
 760 62 790 32 833 32 c 0
 887 32 945 79 945 140 c 0
 945 181 915 211 871 211 c 0
144 512 m 0
 144 592 220 671 305 671 c 0
 368 671 411 626 411 567 c 0xfdc0
 411 484 331 409 250 409 c 0
 188 409 144 453 144 512 c 0
296 629 m 0
 243 629 185 582 185 521 c 0
 185 481 215 451 258 451 c 0
 312 451 370 499 370 559 c 0
 370 599 340 629 296 629 c 0
681 663 m 1
 730 663 l 1
 115 -4 l 1
 66 -4 l 1
 681 663 l 1
EndSplineSet
EndChar
StartChar: questiondown
Encoding: 126 191 120
Width: 463
VWidth: 1333
Flags: HW
HStem: -220 40<103.4 295.8> 385 75<317 355.6>
VStem: 40 40<-159.7 -49.9648> 297 76<399.8 449.8>
Fore
373 431 m 0
 373 407 349 385 327 385 c 0
 309 385 297 399 297 416 c 0
 297 442 323 460 343 460 c 0
 360 460 373 447 373 431 c 0
291 316 m 1
 331 316 l 1
 317 249 l 2
 284 93 103 39 84 -52 c 0
 82 -63 80 -73 80 -83 c 0
 80 -142 122 -180 184 -180 c 0
 270 -180 345 -113 358 -52 c 1
 398 -52 l 1
 380 -140 280 -220 176 -220 c 0
 93 -220 40 -167 40 -91 c 0
 40 66 245 96 277 249 c 2
 291 316 l 1
EndSplineSet
EndChar
StartChar: grave
Encoding: 64 96 121
Width: 190
VWidth: 1333
Flags: HW
Fore
243 549 m 1
 213 549 l 1
 177 680 l 1
 227 680 l 1
 243 549 l 1
EndSplineSet
EndChar
StartChar: acute
Encoding: 115 180 122
Width: 282
VWidth: 1333
Flags: HW
HStem: 533 160<252 339>
VStem: 204 210<533 693>
Fore
339 693 m 1
 414 693 l 1
 252 533 l 1
 204 533 l 1
 339 693 l 1
EndSplineSet
EndChar
StartChar: circumflex
Encoding: 201 710 123
Width: 309
VWidth: 1333
Flags: HW
HStem: 653 119<304 416>
VStem: 171 245<653 653>
Fore
304 772 m 1
 333 772 l 1
 416 653 l 1
 362 653 l 1
 309 727 l 1
 226 653 l 1
 171 653 l 1
 304 772 l 1
EndSplineSet
EndChar
StartChar: tilde
Encoding: 206 732 124
Width: 290
VWidth: 1333
Flags: HW
HStem: 583 41<318 351> 632 39<209 245>
VStem: 158 243<591 665>
Fore
375 665 m 1
 400 665 l 1
 397 651 392 635 387 624 c 0
 368 583 340 583 329 583 c 0
 304 583 280 600 267 611 c 0
 249 625 234 632 224 632 c 0
 213 632 193 625 184 591 c 1
 158 591 l 1
 160 603 162 613 169 628 c 0
 186 660 211 671 232 671 c 0
 260 671 285 652 296 644 c 0
 314 631 329 624 338 624 c 0
 347 624 368 633 375 665 c 1
EndSplineSet
EndChar
StartChar: macron
Encoding: 110 175 125
Width: 383
VWidth: 1333
Flags: HW
HStem: 540 40<178 444>
VStem: 169 283<540 580>
Fore
453 580 m 1
 444 540 l 1
 169 540 l 1
 178 580 l 1
 453 580 l 1
EndSplineSet
EndChar
StartChar: dotaccent
Encoding: 203 729 126
Width: 255
VWidth: 1333
Flags: HW
VStem: 215 77<564.2 617.8>
Fore
215 584 m 0
 215 610 241 628 261 628 c 0
 279 628 292 615 292 598 c 0
 292 572 266 553 246 553 c 0
 228 553 215 567 215 584 c 0
EndSplineSet
EndChar
StartChar: dieresis
Encoding: 103 168 127
Width: 343
VWidth: 1333
Flags: HW
HStem: 540 75<191.8 233 351.8 393>
VStem: 176 77<550.2 597.3> 336 77<550.2 597.3>
Fore
176 570 m 0
 176 591 199 615 223 615 c 0
 241 615 253 601 253 584 c 0
 253 558 227 540 207 540 c 0
 189 540 176 553 176 570 c 0
336 570 m 0
 336 591 359 615 383 615 c 0
 401 615 413 601 413 584 c 0
 413 558 387 540 367 540 c 0
 349 540 336 553 336 570 c 0
EndSplineSet
EndChar
StartChar: ring
Encoding: 204 730 128
Width: 255
VWidth: 1333
Flags: HW
HStem: 501 40<207.9 283.3> 653 40<221.5 302.1>
VStem: 157 41<552.5 631.8> 312 41<558.6 641.8>
Fore
157 577 m 0
 157 640 217 693 275 693 c 0
 322 693 353 661 353 617 c 0
 353 561 300 501 235 501 c 0
 188 501 157 534 157 577 c 0
267 653 m 0
 232 653 198 621 198 585 c 0
 198 560 216 541 243 541 c 0
 274 541 312 570 312 608 c 0
 312 634 294 653 267 653 c 0
EndSplineSet
EndChar
StartChar: cedilla
Encoding: 119 184 129
Width: 279
VWidth: 1333
Flags: HW
HStem: -179 40<76.1229 146.9> -20 20G<141 179>
VStem: 153 42<-121.9 -84.2>
Fore
195 -91 m 0
 195 -136 156 -179 95 -179 c 0
 73 -179 50 -172 31 -157 c 1
 59 -124 l 1
 73 -135 89 -139 104 -139 c 0
 137 -139 153 -118 153 -105 c 0
 153 -89 133 -81 112 -77 c 2
 83 -73 l 1
 141 0 l 1
 179 0 l 1
 146 -43 l 1
 187 -50 195 -73 195 -91 c 0
EndSplineSet
EndChar
StartChar: hungarumlaut
Encoding: 207 733 130
Width: 455
VWidth: 1333
Flags: HW
HStem: 533 160<252 339>
VStem: 204 383<533 693>
Fore
339 693 m 1
 414 693 l 1
 252 533 l 1
 204 533 l 1
 339 693 l 1
513 693 m 1
 587 693 l 1
 425 533 l 1
 377 533 l 1
 513 693 l 1
EndSplineSet
EndChar
StartChar: ogonek
Encoding: 205 731 131
Width: 270
VWidth: 1333
Flags: HW
HStem: -175 34<94.4 135.721> -20 20G<117 160>
VStem: 40 43<-134 -79.4>
Fore
160 0 m 1
 101 -50 83 -86 83 -108 c 0
 83 -128 101 -141 123 -141 c 0
 134 -141 147 -137 159 -129 c 1
 174 -153 l 1
 150 -168 126 -175 104 -175 c 0
 67 -175 40 -152 40 -117 c 0
 40 -70 88 -25 117 0 c 1
 160 0 l 1
EndSplineSet
EndChar
StartChar: caron
Encoding: 202 711 132
Width: 309
VWidth: 1333
Flags: HW
HStem: 653 119<196 308>
VStem: 196 245<772 772>
Fore
308 653 m 1
 279 653 l 1
 196 772 l 1
 251 772 l 1
 303 699 l 1
 387 772 l 1
 441 772 l 1
 308 653 l 1
EndSplineSet
EndChar
StartChar: emdash
Encoding: 298 8212 133
Width: 503
VWidth: 1333
Flags: HW
HStem: 199 56<54 546>
Fore
558 255 m 1
 546 199 l 1
 42 199 l 1
 54 255 l 1
 558 255 l 1
EndSplineSet
EndChar
StartChar: AE
Encoding: 133 198 134
Width: 689
VWidth: 1333
Flags: HW
HStem: 0 40<476 673> 207 40<214 440> 367 40<486 714> 627 40<452 453 493 796>
VStem: 435 42<40 157> 442 44<247 367> 453 40<497 627>
Fore
722 407 m 1xf2
 714 367 l 1
 486 367 l 1xf4
 476 40 l 1
 682 40 l 1
 673 0 l 1
 435 0 l 1xf8
 440 207 l 1
 188 207 l 1
 59 0 l 1
 16 0 l 1
 434 667 l 1
 804 667 l 1
 796 627 l 1
 493 627 l 1
 486 407 l 1
 722 407 l 1xf2
214 247 m 1
 442 247 l 1xf4
 453 627 l 1xf2
 452 627 l 1
 214 247 l 1
EndSplineSet
EndChar
StartChar: ordfeminine
Encoding: 105 170 135
Width: 390
VWidth: 1333
Flags: HW
HStem: 277 35<187.3 302.5> 461 28<163 346.417> 576 33<258.5 370.3>
VStem: 134 35<319.9 416.1> 359 38<285 347.12> 390 37<466.427 560.9>
Fore
293 461 m 0xf0
 193 461 169 405 169 368 c 0
 169 331 199 312 238 312 c 0
 305 312 365 381 377 419 c 2
 383 447 l 1
 359 455 326 461 293 461 c 0xf0
134 360 m 0
 134 412 169 489 295 489 c 0
 329 489 363 483 388 472 c 1
 389 479 390 486 390 492 c 0
 390 545 355 576 304 576 c 0
 269 576 233 555 205 520 c 1
 181 536 l 1
 215 579 264 609 314 609 c 0
 380 609 427 568 427 499 c 0xf4
 427 487 426 474 423 461 c 2
 403 367 l 2
 402 360 397 327 397 297 c 0
 397 285 l 1
 359 277 l 1
 359 288 l 2xf8
 359 306 361 330 365 356 c 1
 334 316 286 277 231 277 c 0
 173 277 134 309 134 360 c 0
EndSplineSet
EndChar
StartChar: Lslash
Encoding: 191 321 136
Width: 483
VWidth: 1333
Flags: HW
HStem: 0 40<112 452> 640 27G<206 246>
VStem: 28 432<40 164>
Fore
452 0 m 1
 64 0 l 1
 112 227 l 1
 28 164 l 1
 40 217 l 1
 124 280 l 1
 206 667 l 1
 246 667 l 1
 171 316 l 1
 355 453 l 1
 344 400 l 1
 160 263 l 1
 112 40 l 1
 460 40 l 1
 452 0 l 1
EndSplineSet
EndChar
StartChar: Oslash
Encoding: 151 216 137
Width: 785
VWidth: 1333
Flags: HW
HStem: -7 40<332.4 640.5> 633 40<284.9 599.5>
VStem: 118 41<176.1 516.7> 770 39<146.7 486>
Fore
809 405 m 0
 809 193 606 -7 391 -7 c 0
 331 -7 278 9 235 37 c 1
 159 -51 l 1
 130 -29 l 1
 206 59 l 1
 151 107 118 178 118 260 c 0
 118 474 321 673 536 673 c 0
 600 673 655 656 700 625 c 1
 779 717 l 1
 808 696 l 1
 727 603 l 1
 778 554 809 485 809 405 c 0
400 33 m 0
 585 33 770 204 770 395 c 0
 770 465 743 527 698 569 c 1
 264 71 l 1
 302 47 348 33 400 33 c 0
528 633 m 0
 341 633 159 460 159 271 c 0
 159 198 188 135 236 92 c 1
 670 592 l 1
 631 619 583 633 528 633 c 0
EndSplineSet
EndChar
StartChar: OE
Encoding: 193 338 138
Width: 858
VWidth: 1333
Flags: HW
HStem: -7 40<214.1 446.367> 0 40<492 832> 367 40<569 883> 627 40<678.75 964> 633 40<282.3 585.142>
VStem: 118 41<94.8 516>
Fore
118 261 m 0xa4
 118 474 321 673 536 673 c 0xac
 559 673 581 671 602 667 c 1
 972 667 l 1
 964 627 l 1
 616 627 l 1
 569 407 l 1
 892 407 l 1
 883 367 l 1
 562 367 l 1
 492 40 l 1
 840 40 l 1
 832 0 l 1
 460 0 l 1x74
 438 -4 415 -7 392 -7 c 0
 229 -7 118 108 118 261 c 0xa4
528 633 m 0
 339 633 159 459 159 269 c 0
 159 135 257 33 400 33 c 0
 418 33 435 35 452 37 c 1
 578 629 l 1
 562 632 545 633 528 633 c 0
EndSplineSet
EndChar
StartChar: ordmasculine
Encoding: 121 186 139
Width: 413
VWidth: 1333
Flags: HW
HStem: 276 39<203.8 359.8> 541 39<232.3 390.9>
VStem: 142 41<336.7 499.2> 412 41<354.8 518.6>
Fore
142 396 m 0
 142 495 237 580 330 580 c 0
 403 580 453 528 453 459 c 0
 453 368 365 276 265 276 c 0
 192 276 142 327 142 396 c 0
322 541 m 0
 253 541 183 477 183 403 c 0
 183 352 220 315 274 315 c 0
 340 315 412 377 412 451 c 0
 412 503 375 541 322 541 c 0
EndSplineSet
EndChar
StartChar: ae
Encoding: 165 230 140
Width: 831
VWidth: 1333
Flags: HW
HStem: -7 42<113.1 284.7 472.6 650.7> 227 38<281.9 408 460 790> 421 40<257.7 387.7 563.3 758.4>
VStem: 67 41<57.8 121.195> 402 40<153 219.933> 790 40<265 383.8>
Fore
825 227 m 1
 447 227 l 1
 444 211 442 196 442 181 c 0
 442 96 496 35 574 35 c 0
 633 35 692 69 734 124 c 1
 765 104 l 1
 715 39 640 -7 565 -7 c 0
 485 -7 429 43 408 115 c 1
 352 49 269 -8 186 -8 c 0
 100 -8 67 43 67 92 c 0
 67 101 68 109 70 117 c 0
 101 263 306 265 416 265 c 1
 419 279 420 292 420 305 c 0
 420 382 370 421 311 421 c 0
 270 421 222 400 182 356 c 1
 155 377 l 1
 206 435 266 461 319 461 c 0
 387 461 446 419 457 339 c 1
 509 411 587 460 666 460 c 0
 765 460 830 382 830 281 c 0
 830 270 830 258 828 247 c 2
 825 227 l 1
195 32 m 0
 264 32 350 87 402 153 c 1
 402 165 l 0
 402 184 404 204 408 227 c 1
 311 225 133 224 110 117 c 0
 109 112 108 107 108 102 c 0
 108 68 132 32 195 32 c 0
460 265 m 1
 790 265 l 1
 790 272 l 2
 790 358 735 420 657 420 c 0
 579 420 495 355 460 265 c 1
EndSplineSet
EndChar
StartChar: lslash
Encoding: 192 322 141
Width: 167
VWidth: 1333
Flags: HW
HStem: 0 28G<64 104> 640 27G<206 246>
VStem: 52 194<181 667>
Fore
104 0 m 1
 64 0 l 1
 112 227 l 1
 52 181 l 1
 63 235 l 1
 124 280 l 1
 206 667 l 1
 246 667 l 1
 171 316 l 1
 231 361 l 1
 220 308 l 1
 160 263 l 1
 104 0 l 1
EndSplineSet
EndChar
StartChar: oslash
Encoding: 183 248 142
Width: 574
VWidth: 1333
Flags: HW
HStem: -7 39<251.493 444.5> 419 41<220 416.289>
VStem: 98 39<117.4 343.6> 533 40<99.6 328.4>
Fore
98 177 m 0
 98 321 233 460 384 460 c 0
 418 460 448 453 475 440 c 1
 521 503 l 1
 555 483 l 1
 508 419 l 1
 549 386 573 335 573 276 c 0
 573 134 439 -7 287 -7 c 0
 256 -7 228 -1 203 9 c 1
 160 -49 l 1
 128 -31 l 1
 171 28 l 1
 125 61 98 114 98 177 c 0
295 32 m 0
 410 32 533 138 533 266 c 0
 533 314 514 355 481 383 c 1
 229 44 l 1
 249 36 271 32 295 32 c 0
376 419 m 0
 256 419 137 307 137 185 c 0
 137 133 159 89 197 61 c 1
 448 403 l 1
 427 413 402 419 376 419 c 0
EndSplineSet
EndChar
StartChar: oe
Encoding: 194 339 143
Width: 950
VWidth: 1333
Flags: HW
HStem: -7 40<174.1 407.2 594.9 771.7> 225 40<580 910> 420 40<224.9 497.9 675.3 879.4>
VStem: 98 41<72.9 348.5> 534 29<106.1 266> 910 39<265 383.8>
Fore
377 420 m 0
 260 420 139 311 139 186 c 0
 139 99 202 33 295 33 c 0
 414 33 534 143 534 266 c 0
 534 354 470 420 377 420 c 0
98 177 m 0
 98 324 237 460 384 460 c 0
 478 460 547 404 568 324 c 1
 617 404 700 460 784 460 c 0
 884 460 949 382 949 281 c 0
 949 270 949 258 947 247 c 2
 944 225 l 1
 568 225 l 1
 565 209 563 194 563 180 c 0
 563 95 618 35 695 35 c 0
 754 35 813 69 856 124 c 1
 886 104 l 1
 836 39 761 -7 687 -7 c 0
 601 -7 541 49 526 129 c 1
 472 49 379 -7 285 -7 c 0
 174 -7 98 71 98 177 c 0
580 265 m 1
 910 265 l 1
 910 272 l 2
 910 358 856 421 778 421 c 0
 699 421 615 355 580 265 c 1
EndSplineSet
EndChar
StartChar: germandbls
Encoding: 158 223 144
Width: 506
VWidth: 1333
Flags: HW
HStem: -8 32<235.1 410.6> 705 39<310.8 464.2>
VStem: 339 42<300.9 462.1> 448 42<101.1 284.4> 494 42<444.8 687.9>
Fore
339 368 m 0
 339 468 494 482 494 606 c 0
 494 669 448 705 394 705 c 0
 330 705 254 653 225 521 c 2
 115 0 l 1
 75 0 l 1
 185 520 l 2
 218 673 318 744 405 744 c 0
 476 744 536 696 536 613 c 0
 536 467 381 442 381 375 c 0
 381 318 490 281 490 190 c 0
 490 110 411 -8 281 -8 c 0
 236 -8 192 8 161 41 c 1
 191 59 l 1
 214 35 245 24 278 24 c 0
 380 24 448 120 448 183 c 0
 448 261 339 291 339 368 c 0
EndSplineSet
EndChar
StartChar: logicalnot
Encoding: 107 172 145
Width: 623
VWidth: 1333
Flags: HW
HStem: 367 40<141 607>
VStem: 133 523<367 407>
Fore
656 407 m 1
 603 160 l 1
 563 160 l 1
 607 367 l 1
 133 367 l 1
 141 407 l 1
 656 407 l 1
EndSplineSet
EndChar
StartChar: trademark
Encoding: 314 8482 146
Width: 766
VWidth: 1333
Flags: HW
HStem: 632 35<206 293 328 422>
VStem: 739 34<333 471.6> 744 36<527.286 564>
Fore
430 667 m 1x80
 422 632 l 1
 328 632 l 1
 264 333 l 1
 230 333 l 1
 293 632 l 1
 198 632 l 1
 206 667 l 1
 430 667 l 1x80
744 564 m 1xa0
 574 325 l 1
 512 565 l 1
 418 335 l 1
 382 335 l 1
 522 675 l 1
 593 405 l 1
 780 673 l 1xa0
 773 333 l 1
 739 333 l 1xc0
 744 564 l 1xa0
EndSplineSet
EndChar
StartChar: Eth
Encoding: 143 208 147
Width: 602
VWidth: 1333
Flags: HW
HStem: 0 40<123 461.1> 313 40<79 141 190 379> 627 40<248 530.2>
VStem: 586 41<149.3 570.5>
Fore
218 40 m 2
 405 40 586 206 586 395 c 0
 586 530 487 627 343 627 c 2
 248 627 l 1
 190 353 l 1
 387 353 l 1
 379 313 l 1
 181 313 l 1
 123 40 l 1
 218 40 l 2
627 404 m 0
 627 197 430 0 209 0 c 2
 75 0 l 1
 141 313 l 1
 71 313 l 1
 79 353 l 1
 150 353 l 1
 216 667 l 1
 351 667 l 2
 514 667 627 556 627 404 c 0
EndSplineSet
EndChar
StartChar: onehalf
Encoding: 124 189 148
Width: 826
VWidth: 1333
Flags: HW
HStem: 0 40<532 755> 411 40<654.3 772.6> 647 20G<736 786>
VStem: 790 44<148.3 391.4>
Fore
834 339 m 0
 834 174 583 156 532 40 c 1
 763 40 l 1
 755 0 l 1
 479 0 l 1
 483 19 l 2
 518 183 790 190 790 329 c 0
 790 377 760 411 718 411 c 0
 669 411 616 365 604 305 c 1
 564 305 l 1
 580 384 653 451 728 451 c 0
 791 451 834 402 834 339 c 0
736 667 m 1
 786 667 l 1
 171 0 l 1
 121 0 l 1
 736 667 l 1
184 225 m 1
 263 597 l 1
 203 561 l 1
 188 595 l 1
 319 673 l 1
 224 225 l 1
 184 225 l 1
EndSplineSet
LCarets2: 2 0 0 
Ligature2: "'frac' Diagonal Fractions in Latin lookup 42" one fraction two
Ligature2: "'frac' Diagonal Fractions in Latin lookup 42" one slash two
EndChar
StartChar: plusminus
Encoding: 112 177 149
Width: 463
VWidth: 1333
Flags: HW
HStem: 0 40<63 409> 313 40<130 279 327 476>
VStem: 55 430<0 353>
Fore
418 40 m 1
 409 0 l 1
 55 0 l 1
 63 40 l 1
 418 40 l 1
285 156 m 1
 245 156 l 1
 279 313 l 1
 121 313 l 1
 130 353 l 1
 287 353 l 1
 321 511 l 1
 361 511 l 1
 327 353 l 1
 484 353 l 1
 476 313 l 1
 319 313 l 1
 285 156 l 1
EndSplineSet
EndChar
StartChar: Thorn
Encoding: 157 222 150
Width: 507
VWidth: 1333
Flags: HW
HStem: 0 21G<75 115> 141 42<170.6 479.2> 484 39<245.515 449.6> 647 20G<216 256>
VStem: 486 42<269.4 463.1>
Fore
240 183 m 0
 424 183 486 291 486 363 c 0
 486 440 416 484 304 484 c 0
 278 484 248 481 216 476 c 1
 155 191 l 1
 185 185 213 183 240 183 c 0
528 370 m 0
 528 269 439 141 231 141 c 0
 203 141 175 144 146 149 c 1
 115 0 l 1
 75 0 l 1
 216 667 l 1
 256 667 l 1
 224 515 l 1
 255 520 284 523 312 523 c 0
 449 523 528 464 528 370 c 0
EndSplineSet
EndChar
StartChar: onequarter
Encoding: 123 188 151
Width: 826
VWidth: 1333
Flags: HW
HStem: 0 28G<163 212 657 697> 72 41<509 673 720 762> 640 27G<778 827>
VStem: 163 664<0 667>
Fore
778 667 m 1
 827 667 l 1
 212 0 l 1
 163 0 l 1
 778 667 l 1
681 113 m 1
 730 340 l 1
 509 113 l 1
 681 113 l 1
184 225 m 1
 263 597 l 1
 203 561 l 1
 188 595 l 1
 319 673 l 1
 224 225 l 1
 184 225 l 1
673 72 m 1
 419 72 l 1
 793 457 l 1
 720 113 l 1
 784 113 l 1
 762 72 l 1
 713 72 l 1
 697 0 l 1
 657 0 l 1
 673 72 l 1
EndSplineSet
LCarets2: 2 0 0 
Ligature2: "'frac' Diagonal Fractions in Latin lookup 42" one fraction four
Ligature2: "'frac' Diagonal Fractions in Latin lookup 42" one slash four
EndChar
StartChar: divide
Encoding: 182 247 152
Width: 482
VWidth: 1333
Flags: HW
HStem: 172 75<262.8 304> 313 40<139 485>
VStem: 247 77<182.2 229.3> 300 77<430.2 483.8>
Fore
247 202 m 0xe0
 247 223 270 247 294 247 c 0
 312 247 324 233 324 216 c 0
 324 190 298 172 278 172 c 0
 260 172 247 185 247 202 c 0xe0
300 450 m 0xd0
 300 476 326 495 346 495 c 0
 364 495 377 481 377 464 c 0
 377 438 351 420 331 420 c 0
 313 420 300 433 300 450 c 0xd0
494 353 m 1
 485 313 l 1
 131 313 l 1
 139 353 l 1
 494 353 l 1
EndSplineSet
EndChar
StartChar: brokenbar
Encoding: 101 166 153
Width: 189
VWidth: 1333
Flags: HW
VStem: 26 233<-227 680>
Fore
183 320 m 1
 143 320 l 1
 219 680 l 1
 259 680 l 1
 183 320 l 1
66 -227 m 1
 26 -227 l 1
 103 133 l 1
 143 133 l 1
 66 -227 l 1
EndSplineSet
EndChar
StartChar: degree
Encoding: 111 176 154
Width: 335
VWidth: 1333
Flags: HW
HStem: 541 42<246.5 350.5> 727 41<267.4 367.5>
VStem: 191 43<597.1 702.4> 381 42<609.9 712.6>
Fore
191 630 m 0
 191 699 257 768 331 768 c 0
 386 768 423 730 423 679 c 0
 423 614 361 541 283 541 c 0
 228 541 191 579 191 630 c 0
322 727 m 0
 280 727 234 688 234 640 c 0
 234 607 257 583 292 583 c 0
 337 583 381 624 381 671 c 0
 381 703 357 727 322 727 c 0
EndSplineSet
EndChar
StartChar: thorn
Encoding: 189 254 155
Width: 551
VWidth: 1333
Flags: HW
HStem: -7 42<191.7 432.7> 421 39<290.7 478> 647 20G<216 256>
VStem: 509 42<111.8 384.8>
Fore
551 279 m 0
 551 139 426 -7 284 -7 c 0
 213 -7 160 32 134 89 c 1
 66 -227 l 1
 26 -227 l 1
 216 667 l 1
 256 667 l 1
 192 364 l 1
 243 421 312 460 383 460 c 0
 485 460 551 381 551 279 c 0
291 35 m 0
 400 35 509 149 509 273 c 0
 509 359 454 421 374 421 c 0
 286 421 194 344 166 243 c 2
 160 213 l 2
 158 202 158 192 158 182 c 0
 158 97 212 35 291 35 c 0
EndSplineSet
EndChar
StartChar: threequarters
Encoding: 125 190 156
Width: 826
VWidth: 1333
Flags: HW
HStem: 0 21G<216 265 684 724> 73 40<536 700 747 789> 217 39<178.3 331.7> 459 40<285 348.7> 633 40<271 368.5>
VStem: 120 41<276.5 363.172> 367 39<302.6 437> 381 38<530.1 618.6>
Fore
406 385 m 0xfe
 406 301 322 217 233 217 c 0
 166 217 120 264 120 327 c 0
 120 337 121 347 123 357 c 1
 163 357 l 1
 161 350 161 342 161 335 c 0
 161 290 193 256 242 256 c 0
 311 256 367 320 367 378 c 0xfe
 367 424 334 459 285 459 c 1
 294 499 l 1
 338 499 381 531 381 577 c 0
 381 609 358 633 323 633 c 0
 283 633 244 601 236 563 c 1
 196 563 l 1
 209 624 268 673 330 673 c 0
 383 673 419 636 419 586 c 0xfd
 419 543 394 502 356 479 c 1
 387 459 406 425 406 385 c 0xfe
831 667 m 1
 880 667 l 1
 265 0 l 1
 216 0 l 1
 831 667 l 1
708 113 m 1
 756 340 l 1
 536 113 l 1
 708 113 l 1
700 73 m 1
 446 73 l 1
 820 459 l 1
 747 113 l 1
 811 113 l 1
 789 73 l 1
 740 73 l 1
 724 0 l 1
 684 0 l 1
 700 73 l 1
EndSplineSet
LCarets2: 2 0 0 
Ligature2: "'frac' Diagonal Fractions in Latin lookup 42" three fraction four
Ligature2: "'frac' Diagonal Fractions in Latin lookup 42" three slash four
EndChar
StartChar: registered
Encoding: 109 174 157
Width: 786
VWidth: 1333
Flags: HW
HStem: -7 40<214.1 641.8> 309 40<398 474> 487 40<427 562.3> 633 40<282.3 715.2>
VStem: 118 41<94.8 516> 575 40<380 473.6> 770 41<146.4 572.8>
Fore
615 440 m 0
 615 391 577 332 518 315 c 1
 576 140 l 1
 530 140 l 1
 474 309 l 1
 390 309 l 1
 354 140 l 1
 314 140 l 1
 396 527 l 1
 531 527 l 2
 581 527 615 489 615 440 c 0
528 633 m 0
 339 633 159 459 159 269 c 0
 159 135 257 33 400 33 c 0
 586 33 770 204 770 396 c 0
 770 532 672 633 528 633 c 0
118 261 m 0
 118 474 321 673 536 673 c 0
 699 673 811 558 811 404 c 0
 811 197 612 -7 392 -7 c 0
 229 -7 118 108 118 261 c 0
494 349 m 2
 537 349 575 392 575 432 c 0
 575 464 553 487 522 487 c 2
 427 487 l 1
 398 349 l 1
 494 349 l 2
EndSplineSet
EndChar
StartChar: eth
Encoding: 175 240 158
Width: 573
VWidth: 1333
Flags: HW
HStem: -7 39<171.1 440.22> 419 41<220.6 454.2>
VStem: 98 38<72.2 345.2> 531 44<100.6 387.391>
Fore
575 305 m 0
 575 94.7432 404.4 -7 285 -7 c 0
 174 -7 98 71 98 177 c 0
 98 324 237 460 384 460 c 0
 438 460 483 443 516 412 c 1
 495 477 457 536 408 583 c 1
 249 499 l 1
 236 533 l 1
 379 609 l 1
 341 640 298 664 255 679 c 1
 275 717 l 1
 326 700 376 671 420 632 c 1
 579 716 l 1
 591 681 l 1
 447 605 l 1
 522 530 575 425 575 305 c 0
292 32 m 0
 409 32 531 139 531 267 c 0
 530.632 359.608 461.81 419 374 419 c 0
 256 419 136 308 136 184 c 0
 136 98 199 32 292 32 c 0
EndSplineSet
EndChar
StartChar: multiply
Encoding: 150 215 159
Width: 477
VWidth: 1333
Flags: HW
HStem: 156 355<141 478>
VStem: 72 481<156 511>
Fore
478 156 m 1
 421 156 l 1
 305 304 l 1
 128 156 l 1
 72 156 l 1
 283 332 l 1
 141 511 l 1
 198 511 l 1
 317 360 l 1
 497 511 l 1
 553 511 l 1
 339 332 l 1
 478 156 l 1
EndSplineSet
EndChar
StartChar: copyright
Encoding: 104 169 160
Width: 786
VWidth: 1333
Flags: HW
HStem: -7 40<214.1 641.8> 139 40<352 491.1> 485 40<387.1 556.1> 633 40<282.3 715.2>
VStem: 118 41<94.8 516> 286 41<206.9 425.3> 770 41<146.4 572.8>
Fore
118 261 m 0
 118 474 321 673 536 673 c 0
 699 673 811 558 811 404 c 0
 811 197 612 -7 392 -7 c 0
 229 -7 118 108 118 261 c 0
528 633 m 0
 339 633 159 459 159 269 c 0
 159 135 257 33 400 33 c 0
 586 33 770 204 770 396 c 0
 770 532 672 633 528 633 c 0
495 485 m 0
 412 485 327 395 327 294 c 0
 327 227 370 179 430 179 c 0
 477 179 524 207 557 251 c 1
 588 231 l 1
 547 176 484 139 421 139 c 0
 339 139 286 202 286 286 c 0
 286 409 392 525 504 525 c 0
 566 525 613 488 631 433 c 1
 592 413 l 1
 577 457 542 485 495 485 c 0
EndSplineSet
EndChar
StartChar: Aacute
Encoding: 128 193 161
Width: 591
VWidth: 1333
Flags: HW
HStem: 0 28G<16 59 533 576> 207 40<215 484>
VStem: 16 596<0 839>
Fore
536 839 m 1
 612 839 l 1
 452 720 l 1
 410 720 l 1
 536 839 l 1
215 247 m 1
 484 247 l 1
 419 571 l 1
 215 247 l 1
492 207 m 1
 188 207 l 1
 59 0 l 1
 16 0 l 1
 439 675 l 1
 576 0 l 1
 533 0 l 1
 492 207 l 1
EndSplineSet
EndChar
StartChar: Acircumflex
Encoding: 129 194 162
Width: 591
VWidth: 1333
Flags: HW
HStem: 0 28G<16 59 533 576> 207 40<215 484>
VStem: 16 560<0 0>
Fore
461 839 m 1
 490 839 l 1
 573 720 l 1
 518 720 l 1
 466 793 l 1
 382 720 l 1
 328 720 l 1
 461 839 l 1
215 247 m 1
 484 247 l 1
 419 571 l 1
 215 247 l 1
492 207 m 1
 188 207 l 1
 59 0 l 1
 16 0 l 1
 439 675 l 1
 576 0 l 1
 533 0 l 1
 492 207 l 1
EndSplineSet
EndChar
StartChar: Adieresis
Encoding: 131 196 163
Width: 591
VWidth: 1333
Flags: HW
HStem: 0 21G<16 59 533 576> 207 40<215 484> 720 75<360 403.8 520 563.8>
VStem: 340 77<739.3 783.8> 500 77<739.3 783.8>
Fore
340 750 m 0
 340 776 366 795 386 795 c 0
 404 795 417 781 417 764 c 0
 417 745 396 720 370 720 c 0
 352 720 340 733 340 750 c 0
500 750 m 0
 500 776 526 795 546 795 c 0
 564 795 577 781 577 764 c 0
 577 745 556 720 530 720 c 0
 512 720 500 733 500 750 c 0
215 247 m 1
 484 247 l 1
 419 571 l 1
 215 247 l 1
492 207 m 1
 188 207 l 1
 59 0 l 1
 16 0 l 1
 439 675 l 1
 576 0 l 1
 533 0 l 1
 492 207 l 1
EndSplineSet
EndChar
StartChar: Agrave
Encoding: 127 192 164
Width: 591
VWidth: 1333
Flags: HW
HStem: 0 28G<16 59 533 576> 207 40<215 484>
VStem: 16 560<0 0>
Fore
341 839 m 1
 417 839 l 1
 492 720 l 1
 450 720 l 1
 341 839 l 1
215 247 m 1
 484 247 l 1
 419 571 l 1
 215 247 l 1
492 207 m 1
 188 207 l 1
 59 0 l 1
 16 0 l 1
 439 675 l 1
 576 0 l 1
 533 0 l 1
 492 207 l 1
EndSplineSet
EndChar
StartChar: Aring
Encoding: 132 197 165
Width: 591
VWidth: 1333
Flags: HW
HStem: 0 21G<16 59 533 576> 207 40<215 484> 713 40<419.9 504.4> 865 40<433.5 512.8>
VStem: 369 41<764.5 843.8> 524 41<781 853.8>
Fore
369 788 m 0
 369 851 427 905 487 905 c 0
 533 905 565 873 565 829 c 0
 565 771 509 713 446 713 c 0
 400 713 369 745 369 788 c 0
479 865 m 0
 444 865 410 833 410 797 c 0
 410 772 428 753 455 753 c 0
 493 753 524 790 524 820 c 0
 524 846 505 865 479 865 c 0
215 247 m 1
 484 247 l 1
 419 571 l 1
 215 247 l 1
492 207 m 1
 188 207 l 1
 59 0 l 1
 16 0 l 1
 439 675 l 1
 576 0 l 1
 533 0 l 1
 492 207 l 1
EndSplineSet
EndChar
StartChar: Atilde
Encoding: 130 195 166
Width: 591
VWidth: 1333
Flags: HW
HStem: 0 28G<16 59 533 576> 207 40<215 484> 713 40<474 525> 761 40<383 439>
VStem: 16 560<0 0>
Fore
358 720 m 1
 333 720 l 1
 341 753 357 801 408 801 c 0
 456 801 483 753 512 753 c 0
 517 753 541 759 549 795 c 1
 576 795 l 1
 563 735 536 713 502 713 c 0
 460 713 430 761 398 761 c 0
 387 761 367 755 358 720 c 1
215 247 m 1
 484 247 l 1
 419 571 l 1
 215 247 l 1
492 207 m 1
 188 207 l 1
 59 0 l 1
 16 0 l 1
 439 675 l 1
 576 0 l 1
 533 0 l 1
 492 207 l 1
EndSplineSet
EndChar
StartChar: Ccedilla
Encoding: 134 199 167
Width: 721
VWidth: 1333
Flags: HW
HStem: -177 40<312.123 373.8> -5 38<400 492.9> 633 42<282.3 656.7>
VStem: 118 41<94.8 516> 389 42<-130 -83.2>
Fore
528 633 m 0
 339 633 159 459 159 269 c 0
 159 135 257 33 400 33 c 0
 499 33 596 81 666 155 c 1
 695 132 l 1
 619 53 516 0 411 -5 c 1
 382 -41 l 1
 423 -49 431 -71 431 -89 c 0
 431 -144 380 -177 332 -177 c 0
 309 -177 286 -171 267 -156 c 1
 295 -123 l 1
 309 -133 325 -137 340 -137 c 0
 366 -137 389 -124 389 -104 c 0
 389 -88 369 -80 348 -76 c 2
 319 -72 l 1
 374 -4 l 1
 221 4 118 115 118 263 c 0
 118 472 318 675 537 675 c 0
 649 675 736 620 779 536 c 1
 742 512 l 1
 703 585 627 633 528 633 c 0
EndSplineSet
EndChar
StartChar: Eacute
Encoding: 136 201 168
Width: 489
VWidth: 1333
Flags: HW
HStem: 0 40<123 461> 367 40<201 513> 627 40<248 596>
VStem: 75 530<0 667>
Fore
545 839 m 1
 385 720 l 1
 344 720 l 1
 469 839 l 1
 545 839 l 1
521 407 m 1
 513 367 l 1
 193 367 l 1
 123 40 l 1
 470 40 l 1
 461 0 l 1
 75 0 l 1
 216 667 l 1
 604 667 l 1
 596 627 l 1
 248 627 l 1
 201 407 l 1
 521 407 l 1
EndSplineSet
EndChar
StartChar: Ecircumflex
Encoding: 137 202 169
Width: 489
VWidth: 1333
Flags: HW
HStem: 0 40<123 461> 367 40<201 513> 627 40<248 596>
VStem: 75 530<0 667>
Fore
473 720 m 1
 419 793 l 1
 336 720 l 1
 281 720 l 1
 414 839 l 1
 445 839 l 1
 528 720 l 1
 473 720 l 1
521 407 m 1
 513 367 l 1
 193 367 l 1
 123 40 l 1
 470 40 l 1
 461 0 l 1
 75 0 l 1
 216 667 l 1
 604 667 l 1
 596 627 l 1
 248 627 l 1
 201 407 l 1
 521 407 l 1
EndSplineSet
EndChar
StartChar: Edieresis
Encoding: 138 203 170
Width: 489
VWidth: 1333
Flags: HW
HStem: 0 40<123 461> 367 40<201 513> 627 40<248 596> 720 75<308.8 350 468.8 510>
VStem: 293 77<730.2 777.3> 453 77<730.2 777.3>
Fore
293 750 m 0
 293 771 316 795 340 795 c 0
 358 795 370 781 370 764 c 0
 370 738 344 720 324 720 c 0
 306 720 293 733 293 750 c 0
453 750 m 0
 453 771 476 795 500 795 c 0
 518 795 530 781 530 764 c 0
 530 738 504 720 484 720 c 0
 466 720 453 733 453 750 c 0
521 407 m 1
 513 367 l 1
 193 367 l 1
 123 40 l 1
 470 40 l 1
 461 0 l 1
 75 0 l 1
 216 667 l 1
 604 667 l 1
 596 627 l 1
 248 627 l 1
 201 407 l 1
 521 407 l 1
EndSplineSet
EndChar
StartChar: Egrave
Encoding: 135 200 171
Width: 489
VWidth: 1333
Flags: HW
HStem: 0 40<123 461> 367 40<201 513> 627 40<248 596>
VStem: 75 530<0 667>
Fore
313 839 m 1
 389 839 l 1
 464 720 l 1
 422 720 l 1
 313 839 l 1
521 407 m 1
 513 367 l 1
 193 367 l 1
 123 40 l 1
 470 40 l 1
 461 0 l 1
 75 0 l 1
 216 667 l 1
 604 667 l 1
 596 627 l 1
 248 627 l 1
 201 407 l 1
 521 407 l 1
EndSplineSet
EndChar
StartChar: Iacute
Encoding: 140 205 172
Width: 189
VWidth: 1333
Flags: HW
HStem: 0 28G<75 115> 640 27G<216 256>
VStem: 75 333<0 839>
Fore
408 839 m 1
 248 720 l 1
 206 720 l 1
 332 839 l 1
 408 839 l 1
115 0 m 1
 75 0 l 1
 216 667 l 1
 256 667 l 1
 115 0 l 1
EndSplineSet
EndChar
StartChar: Icircumflex
Encoding: 141 206 173
Width: 189
VWidth: 1333
Flags: HW
HStem: 0 28G<75 115> 640 27G<216 256>
VStem: 75 296<0 720>
Fore
316 720 m 1
 262 793 l 1
 178 720 l 1
 124 720 l 1
 257 839 l 1
 288 839 l 1
 370 720 l 1
 316 720 l 1
115 0 m 1
 75 0 l 1
 216 667 l 1
 256 667 l 1
 115 0 l 1
EndSplineSet
EndChar
StartChar: Idieresis
Encoding: 142 207 174
Width: 189
VWidth: 1333
Flags: HW
HStem: 0 21G<75 115> 647 20G<216 256> 720 75<156 199.8 316 359.8>
VStem: 136 77<739.3 783.8> 296 77<739.3 783.8>
Fore
136 750 m 0
 136 776 162 795 182 795 c 0
 200 795 213 781 213 764 c 0
 213 745 192 720 166 720 c 0
 148 720 136 733 136 750 c 0
296 750 m 0
 296 776 322 795 342 795 c 0
 360 795 373 781 373 764 c 0
 373 745 352 720 326 720 c 0
 308 720 296 733 296 750 c 0
115 0 m 1
 75 0 l 1
 216 667 l 1
 256 667 l 1
 115 0 l 1
EndSplineSet
EndChar
StartChar: Igrave
Encoding: 139 204 175
Width: 189
VWidth: 1333
Flags: HW
HStem: 0 28G<75 115> 640 27G<216 256>
VStem: 75 214<0 720>
Fore
138 839 m 1
 214 839 l 1
 289 720 l 1
 248 720 l 1
 138 839 l 1
115 0 m 5
 75 0 l 5
 216 667 l 5
 256 667 l 5
 115 0 l 5
EndSplineSet
EndChar
StartChar: Ntilde
Encoding: 144 209 176
Width: 750
VWidth: 1333
Flags: HW
HStem: 0 28G<75 115> 640 27G<778 818> 713 40<554 605> 761 40<463 519>
Fore
412 720 m 1
 413 720 l 1
 421 753 437 801 488 801 c 0
 536 801 563 753 592 753 c 0
 597 753 621 759 629 795 c 1
 656 795 l 1
 643 735 616 713 582 713 c 0
 540 713 510 761 478 761 c 0
 467 761 447 755 438 720 c 1
 412 720 l 1
75 0 m 1
 218 676 l 1
 655 89 l 1
 778 667 l 1
 818 667 l 1
 674 -9 l 1
 237 577 l 1
 115 0 l 1
 75 0 l 1
EndSplineSet
EndChar
StartChar: Oacute
Encoding: 146 211 177
Width: 786
VWidth: 1333
Flags: HW
HStem: -7 40<214.1 641.8> 633 40<282.3 715.2>
VStem: 118 41<94.8 516> 770 41<146.4 572.8>
Fore
733 839 m 1
 573 720 l 1
 532 720 l 1
 657 839 l 1
 733 839 l 1
118 261 m 0
 118 474 321 673 536 673 c 0
 699 673 811 558 811 404 c 0
 811 197 612 -7 392 -7 c 0
 229 -7 118 108 118 261 c 0
528 633 m 0
 339 633 159 459 159 269 c 0
 159 135 257 33 400 33 c 0
 586 33 770 204 770 396 c 0
 770 532 672 633 528 633 c 0
EndSplineSet
EndChar
StartChar: Ocircumflex
Encoding: 147 212 178
Width: 786
VWidth: 1333
Flags: HW
HStem: -7 40<214.1 641.8> 633 40<282.3 715.2>
VStem: 118 41<94.8 516> 770 41<146.4 572.8>
Fore
616 720 m 1
 562 793 l 1
 478 720 l 1
 424 720 l 1
 557 839 l 1
 588 839 l 1
 670 720 l 1
 616 720 l 1
118 261 m 0
 118 474 321 673 536 673 c 0
 699 673 811 558 811 404 c 0
 811 197 612 -7 392 -7 c 0
 229 -7 118 108 118 261 c 0
528 633 m 0
 339 633 159 459 159 269 c 0
 159 135 257 33 400 33 c 0
 586 33 770 204 770 396 c 0
 770 532 672 633 528 633 c 0
EndSplineSet
EndChar
StartChar: Odieresis
Encoding: 149 214 179
Width: 786
VWidth: 1333
Flags: HW
HStem: -7 40<214.1 641.8> 633 40<282.3 715.2> 720 75<456 499.8 616 659.8>
VStem: 118 41<94.8 516> 436 77<739.3 783.8> 596 77<739.3 783.8> 770 41<146.4 572.8>
Fore
436 750 m 0
 436 776 462 795 482 795 c 0
 500 795 513 781 513 764 c 0
 513 745 492 720 466 720 c 0
 448 720 436 733 436 750 c 0
596 750 m 0
 596 776 622 795 642 795 c 0
 660 795 673 781 673 764 c 0
 673 745 652 720 626 720 c 0
 608 720 596 733 596 750 c 0
118 261 m 0
 118 474 321 673 536 673 c 0
 699 673 811 558 811 404 c 0
 811 197 612 -7 392 -7 c 0
 229 -7 118 108 118 261 c 0
528 633 m 0
 339 633 159 459 159 269 c 0
 159 135 257 33 400 33 c 0
 586 33 770 204 770 396 c 0
 770 532 672 633 528 633 c 0
EndSplineSet
EndChar
StartChar: Ograve
Encoding: 145 210 180
Width: 786
VWidth: 1333
Flags: HW
HStem: -7 40<214.1 641.8> 633 40<282.3 715.2>
VStem: 118 41<94.8 516> 770 41<146.4 572.8>
Fore
118 261 m 0
 118 474 321 673 536 673 c 0
 699 673 811 558 811 404 c 0
 811 197 612 -7 392 -7 c 0
 229 -7 118 108 118 261 c 0
528 633 m 0
 339 633 159 459 159 269 c 0
 159 135 257 33 400 33 c 0
 586 33 770 204 770 396 c 0
 770 532 672 633 528 633 c 0
400 839 m 1
 476 839 l 1
 550 720 l 1
 509 720 l 1
 400 839 l 1
EndSplineSet
EndChar
StartChar: Otilde
Encoding: 148 213 181
Width: 786
VWidth: 1333
Flags: HW
HStem: -7 40<214.1 641.8> 633 40<282.3 715.2> 713 40<574.3 621.822> 761 40<481.063 539.6>
VStem: 118 41<94.8 516> 770 41<146.4 572.8>
Fore
458 720 m 1
 433 720 l 1
 441 753 457 801 508 801 c 0
 556 801 583 753 612 753 c 0
 617 753 641 759 649 795 c 1
 676 795 l 1
 663 735 636 713 602 713 c 0
 560 713 530 761 498 761 c 0
 487 761 467 755 458 720 c 1
118 261 m 0
 118 474 321 673 536 673 c 0
 699 673 811 558 811 404 c 0
 811 197 612 -7 392 -7 c 0
 229 -7 118 108 118 261 c 0
528 633 m 0
 339 633 159 459 159 269 c 0
 159 135 257 33 400 33 c 0
 586 33 770 204 770 396 c 0
 770 532 672 633 528 633 c 0
EndSplineSet
EndChar
StartChar: Scaron
Encoding: 195 352 182
Width: 481
VWidth: 1333
Flags: HW
HStem: -9 41<151.4 389.3> 633 42<263.2 443.9>
VStem: 71 41<44 192.647> 72 41<171.877 196.237> 192 40<339.4 573.4> 453 41<96.2 408.2> 485 40<536 623.882>
Fore
404 707 m 1xc8
 374 707 l 1
 291 825 l 1
 346 825 l 1
 398 752 l 1
 482 825 l 1
 537 825 l 1
 404 707 l 1xc8
192 489 m 0
 192 575 271 675 383 675 c 0
 451 675 514 632 525 549 c 1
 485 536 l 1xca
 476 603 428 633 375 633 c 0
 289 633 232 556 232 498 c 0
 232 376 494 395 494 230 c 0
 494 110 375 -9 237 -9 c 0
 149 -9 71 44 71 164 c 0xec
 71 172 71 180 72 188 c 1
 113 193 l 1xd8
 113 187 112 180 112 174 c 0
 112 74 173 32 245 32 c 0
 356 32 453 125 453 221 c 0xec
 453 365 192 342 192 489 c 0
EndSplineSet
EndChar
StartChar: Uacute
Encoding: 153 218 183
Width: 623
VWidth: 1333
Flags: HW
HStem: -7 40<201.7 459.1> 647 20G<216 256 651 691>
VStem: 122 41<73.3 240.531>
Fore
569 839 m 1
 645 839 l 1
 485 720 l 1
 444 720 l 1
 569 839 l 1
216 667 m 1
 256 667 l 1
 169 253 l 2
 165 235 163 218 163 202 c 0
 163 103 229 33 320 33 c 0
 427 33 537 129 563 253 c 2
 651 667 l 1
 691 667 l 1
 603 253 l 2
 573 111 443 -7 311 -7 c 0
 198 -7 122 79 122 193 c 0
 122 213 125 233 129 253 c 2
 216 667 l 1
EndSplineSet
EndChar
StartChar: Ucircumflex
Encoding: 154 219 184
Width: 623
VWidth: 1333
Flags: HW
HStem: -7 40<201.7 459.1> 647 20G<216 256 651 691>
VStem: 122 41<73.3 240.531>
Fore
588 720 m 1
 532 720 l 1
 479 793 l 1
 396 720 l 1
 341 720 l 1
 474 839 l 1
 505 839 l 1
 588 720 l 1
216 667 m 1
 256 667 l 1
 169 253 l 2
 165 235 163 218 163 202 c 0
 163 103 229 33 320 33 c 0
 427 33 537 129 563 253 c 2
 651 667 l 1
 691 667 l 1
 603 253 l 2
 573 111 443 -7 311 -7 c 0
 198 -7 122 79 122 193 c 0
 122 213 125 233 129 253 c 2
 216 667 l 1
EndSplineSet
EndChar
StartChar: Udieresis
Encoding: 155 220 185
Width: 623
VWidth: 1333
Flags: HW
HStem: -7 40<201.7 459.1> 647 20G<216 256 651 691> 720 75<372.4 411 532.4 571>
VStem: 122 41<73.3 240.531> 355 76<731.2 780.2> 515 76<731.2 780.2>
Fore
355 749 m 0
 355 773 379 795 401 795 c 0
 418 795 431 782 431 765 c 0
 431 739 405 720 385 720 c 0
 368 720 355 733 355 749 c 0
515 749 m 0
 515 773 539 795 561 795 c 0
 578 795 591 782 591 765 c 0
 591 739 565 720 545 720 c 0
 528 720 515 733 515 749 c 0
216 667 m 1
 256 667 l 1
 169 253 l 2
 165 235 163 218 163 202 c 0
 163 103 229 33 320 33 c 0
 427 33 537 129 563 253 c 2
 651 667 l 1
 691 667 l 1
 603 253 l 2
 573 111 443 -7 311 -7 c 0
 198 -7 122 79 122 193 c 0
 122 213 125 233 129 253 c 2
 216 667 l 1
EndSplineSet
EndChar
StartChar: Ugrave
Encoding: 152 217 186
Width: 623
VWidth: 1333
Flags: HW
HStem: -7 40<201.7 459.1> 647 20G<216 256 651 691>
VStem: 122 41<73.3 240.531>
Fore
336 839 m 1
 412 839 l 1
 486 720 l 1
 445 720 l 1
 336 839 l 1
216 667 m 1
 256 667 l 1
 169 253 l 2
 165 235 163 218 163 202 c 0
 163 103 229 33 320 33 c 0
 427 33 537 129 563 253 c 2
 651 667 l 1
 691 667 l 1
 603 253 l 2
 573 111 443 -7 311 -7 c 0
 198 -7 122 79 122 193 c 0
 122 213 125 233 129 253 c 2
 216 667 l 1
EndSplineSet
EndChar
StartChar: Yacute
Encoding: 156 221 187
Width: 549
VWidth: 1333
Flags: HW
HStem: 0 28G<255 295> 640 27G<158 204 628 675>
VStem: 158 517<667 667>
Fore
533 839 m 1
 609 839 l 1
 449 720 l 1
 408 720 l 1
 533 839 l 1
158 667 m 1
 204 667 l 1
 345 331 l 1
 628 667 l 1
 675 667 l 1
 356 288 l 1
 295 0 l 1
 255 0 l 1
 316 288 l 1
 158 667 l 1
EndSplineSet
EndChar
StartChar: Ydieresis
Encoding: 197 376 188
Width: 549
VWidth: 1333
Flags: HW
HStem: 0 21G<255 295> 647 20G<158 204 628 675> 720 75<336.4 375 496.4 535>
VStem: 319 76<731.2 780.2> 479 76<731.2 780.2>
Fore
319 749 m 0
 319 773 343 795 365 795 c 0
 382 795 395 782 395 765 c 0
 395 739 369 720 349 720 c 0
 332 720 319 733 319 749 c 0
479 749 m 0
 479 773 503 795 525 795 c 0
 542 795 555 782 555 765 c 0
 555 739 529 720 509 720 c 0
 492 720 479 733 479 749 c 0
158 667 m 1
 204 667 l 1
 345 331 l 1
 628 667 l 1
 675 667 l 1
 356 288 l 1
 295 0 l 1
 255 0 l 1
 316 288 l 1
 158 667 l 1
EndSplineSet
EndChar
StartChar: Zcaron
Encoding: 198 381 189
Width: 530
VWidth: 1333
Flags: HW
HStem: 0 40<99 501> 627 40<202 564>
VStem: 16 631<0 667>
Fore
430 707 m 1
 401 707 l 1
 318 825 l 1
 373 825 l 1
 425 752 l 1
 509 825 l 1
 563 825 l 1
 430 707 l 1
202 667 m 1
 647 667 l 1
 99 40 l 1
 523 40 l 1
 501 0 l 1
 16 0 l 1
 564 627 l 1
 180 627 l 1
 202 667 l 1
EndSplineSet
EndChar
StartChar: aacute
Encoding: 160 225 190
Width: 474
VWidth: 1333
Flags: HW
HStem: -8 40<113.1 278.3> 231 29<281.6 409> 421 40<257.7 387.7>
VStem: 67 41<57.8 121.195> 367 41<-3.9553 54.7706> 419 41<262.103 401.7>
Fore
420 651 m 1
 496 651 l 1
 336 532 l 1
 294 532 l 1
 420 651 l 1
411 0 m 1
 368 0 l 1
 367 4 367 9 367 14 c 0
 367 28 369 43 373 60 c 2
 380 95 l 1
 330 40 257 -8 186 -8 c 0
 100 -8 67 43 67 92 c 0
 67 101 68 109 70 117 c 0
 100 258 290 260 403 260 c 2
 415 260 l 1
 418 274 419 287 419 299 c 0
 419 378 370 421 311 421 c 0
 270 421 222 400 182 356 c 1
 155 377 l 1
 206 435 266 461 319 461 c 0
 397 461 460 407 460 310 c 0
 460 294 458 278 455 260 c 2
 413 60 l 2
 410 45 408 32 408 22 c 0
 408 13 409 6 411 0 c 1
195 32 m 0
 268 32 350 92 391 145 c 1
 409 231 l 1
 311 229 133 224 110 117 c 0
 109 112 108 107 108 102 c 0
 108 68 132 32 195 32 c 0
EndSplineSet
EndChar
StartChar: acircumflex
Encoding: 161 226 191
Width: 474
VWidth: 1333
Flags: HW
HStem: -8 40<113.1 278.3> 231 29<281.6 409> 421 40<257.7 387.7>
VStem: 67 41<57.8 121.195> 367 41<-3.9553 54.7706> 419 41<262.103 401.7>
Fore
358 651 m 1
 388 651 l 1
 470 532 l 1
 416 532 l 1
 363 605 l 1
 280 532 l 1
 225 532 l 1
 358 651 l 1
411 0 m 1
 368 0 l 1
 367 4 367 9 367 14 c 0
 367 28 369 43 373 60 c 2
 380 95 l 1
 330 40 257 -8 186 -8 c 0
 100 -8 67 43 67 92 c 0
 67 101 68 109 70 117 c 0
 100 258 290 260 403 260 c 2
 415 260 l 1
 418 274 419 287 419 299 c 0
 419 378 370 421 311 421 c 0
 270 421 222 400 182 356 c 1
 155 377 l 1
 206 435 266 461 319 461 c 0
 397 461 460 407 460 310 c 0
 460 294 458 278 455 260 c 2
 413 60 l 2
 410 45 408 32 408 22 c 0
 408 13 409 6 411 0 c 1
195 32 m 0
 268 32 350 92 391 145 c 1
 409 231 l 1
 311 229 133 224 110 117 c 0
 109 112 108 107 108 102 c 0
 108 68 132 32 195 32 c 0
EndSplineSet
EndChar
StartChar: adieresis
Encoding: 163 228 192
Width: 474
VWidth: 1333
Flags: HW
HStem: -8 40<113.1 278.3> 231 29<281.6 409> 421 40<257.7 387.7> 533 75<259 300.2 419 460.2>
VStem: 67 41<57.8 121.195> 239 77<550.7 597.8> 367 41<-3.9553 54.7706> 399 77<550.7 597.8> 419 41<262.103 401.7>
Fore
239 564 m 0xfc
 239 590 265 608 285 608 c 0
 303 608 316 595 316 578 c 0
 316 557 293 533 269 533 c 0
 251 533 239 547 239 564 c 0xfc
399 564 m 0xfd
 399 590 425 608 445 608 c 0
 463 608 476 595 476 578 c 0
 476 557 453 533 429 533 c 0
 411 533 399 547 399 564 c 0xfd
411 0 m 1
 368 0 l 1
 367 4 367 9 367 14 c 0
 367 28 369 43 373 60 c 2
 380 95 l 1
 330 40 257 -8 186 -8 c 0
 100 -8 67 43 67 92 c 0
 67 101 68 109 70 117 c 0
 100 258 290 260 403 260 c 2
 415 260 l 1
 418 274 419 287 419 299 c 0
 419 378 370 421 311 421 c 0
 270 421 222 400 182 356 c 1
 155 377 l 1
 206 435 266 461 319 461 c 0
 397 461 460 407 460 310 c 0
 460 294 458 278 455 260 c 2
 413 60 l 2
 410 45 408 32 408 22 c 0xfe80
 408 13 409 6 411 0 c 1
195 32 m 0
 268 32 350 92 391 145 c 1
 409 231 l 1
 311 229 133 224 110 117 c 0
 109 112 108 107 108 102 c 0
 108 68 132 32 195 32 c 0
EndSplineSet
EndChar
StartChar: agrave
Encoding: 159 224 193
Width: 474
VWidth: 1333
Flags: HW
HStem: -8 40<113.1 278.3> 231 29<281.6 409> 421 40<257.7 387.7>
VStem: 67 41<57.8 121.195> 367 41<-3.9553 54.7706> 419 41<262.103 401.7>
Fore
411 0 m 1
 368 0 l 1
 367 4 367 9 367 14 c 0
 367 28 369 43 373 60 c 2
 380 95 l 1
 330 40 257 -8 186 -8 c 0
 100 -8 67 43 67 92 c 0
 67 101 68 109 70 117 c 0
 100 258 290 260 403 260 c 2
 415 260 l 1
 418 274 419 287 419 299 c 0
 419 378 370 421 311 421 c 0
 270 421 222 400 182 356 c 1
 155 377 l 1
 206 435 266 461 319 461 c 0
 397 461 460 407 460 310 c 0
 460 294 458 278 455 260 c 2
 413 60 l 2
 410 45 408 32 408 22 c 0
 408 13 409 6 411 0 c 1
195 32 m 0
 268 32 350 92 391 145 c 1
 409 231 l 1
 311 229 133 224 110 117 c 0
 109 112 108 107 108 102 c 0
 108 68 132 32 195 32 c 0
228 651 m 1
 304 651 l 1
 378 532 l 1
 337 532 l 1
 228 651 l 1
EndSplineSet
EndChar
StartChar: aring
Encoding: 164 229 194
Width: 474
VWidth: 1333
Flags: HW
HStem: -8 40<113.1 278.3> 231 29<281.6 409> 421 40<257.7 387.7> 527 40<319.9 404.4> 679 40<329.6 414.1>
VStem: 67 41<57.8 121.195> 269 41<578.5 652.6> 367 41<-3.9553 54.7706> 419 41<262.103 401.7> 424 41<592.1 667.5>
Fore
269 603 m 0xff40
 269 659 322 719 387 719 c 0
 434 719 465 686 465 643 c 0
 465 580 405 527 347 527 c 0
 300 527 269 559 269 603 c 0xff40
379 679 m 0
 341 679 310 643 310 611 c 0
 310 586 328 567 355 567 c 0
 393 567 424 602 424 635 c 0
 424 660 406 679 379 679 c 0
411 0 m 1
 368 0 l 1
 367 4 367 9 367 14 c 0
 367 28 369 43 373 60 c 2
 380 95 l 1
 330 40 257 -8 186 -8 c 0
 100 -8 67 43 67 92 c 0
 67 101 68 109 70 117 c 0
 100 258 290 260 403 260 c 2
 415 260 l 1
 418 274 419 287 419 299 c 0
 419 378 370 421 311 421 c 0
 270 421 222 400 182 356 c 1
 155 377 l 1
 206 435 266 461 319 461 c 0
 397 461 460 407 460 310 c 0xff80
 460 294 458 278 455 260 c 2
 413 60 l 2
 410 45 408 32 408 22 c 0
 408 13 409 6 411 0 c 1
195 32 m 0
 268 32 350 92 391 145 c 1
 409 231 l 1
 311 229 133 224 110 117 c 0
 109 112 108 107 108 102 c 0
 108 68 132 32 195 32 c 0
EndSplineSet
EndChar
StartChar: atilde
Encoding: 162 227 195
Width: 474
VWidth: 1333
Flags: HW
HStem: -8 40<113.1 278.3> 231 29<281.6 409> 421 40<257.7 387.7> 525 42<374.3 428.646> 575 38<281.999 339.6>
VStem: 67 41<57.8 121.195> 367 41<-3.9553 54.7706> 419 41<262.103 401.7>
Fore
306 613 m 0
 354 613 383 567 412 567 c 0
 422 567 442 572 448 604 c 1
 474 604 l 1
 458 523 412 525 404 525 c 0
 357 525 330 575 298 575 c 0
 287 575 267 568 259 533 c 1
 232 533 l 1
 235 545 247 613 306 613 c 0
411 0 m 1
 368 0 l 1
 367 4 367 9 367 14 c 0
 367 28 369 43 373 60 c 2
 380 95 l 1
 330 40 257 -8 186 -8 c 0
 100 -8 67 43 67 92 c 0
 67 101 68 109 70 117 c 0
 100 258 290 260 403 260 c 2
 415 260 l 1
 418 274 419 287 419 299 c 0
 419 378 370 421 311 421 c 0
 270 421 222 400 182 356 c 1
 155 377 l 1
 206 435 266 461 319 461 c 0
 397 461 460 407 460 310 c 0
 460 294 458 278 455 260 c 2
 413 60 l 2
 410 45 408 32 408 22 c 0
 408 13 409 6 411 0 c 1
195 32 m 0
 268 32 350 92 391 145 c 1
 409 231 l 1
 311 229 133 224 110 117 c 0
 109 112 108 107 108 102 c 0
 108 68 132 32 195 32 c 0
EndSplineSet
EndChar
StartChar: ccedilla
Encoding: 166 231 196
Width: 449
VWidth: 1333
Flags: HW
HStem: -177 40<159.123 229.9> 420 41<191.5 404.7>
VStem: 74 40<70.5 343.5> 236 42<-120.9 -83.2>
Fore
328 420 m 0
 223 420 114 306 114 181 c 0
 114 96 168 33 246 33 c 0
 304 33 364 68 406 123 c 1
 440 105 l 1
 394 45 327 3 258 -4 c 1
 229 -41 l 1
 270 -49 278 -71 278 -89 c 0
 278 -142 231 -177 178 -177 c 0
 156 -177 133 -171 114 -156 c 1
 142 -123 l 1
 156 -133 172 -137 187 -137 c 0
 220 -137 236 -117 236 -104 c 0
 236 -88 216 -80 195 -76 c 2
 166 -72 l 1
 220 -4 l 1
 131 5 74 79 74 175 c 0
 74 324 206 461 337 461 c 0
 411 461 467 416 489 351 c 1
 450 331 l 1
 431 385 387 420 328 420 c 0
EndSplineSet
EndChar
StartChar: eacute
Encoding: 168 233 197
Width: 526
VWidth: 1333
Flags: HW
HStem: -7 42<167.6 344.4> 225 40<155 484> 420 40<249.3 453.4>
VStem: 97 39<69.5 223.144> 484 41<265 358>
Fore
475 652 m 1
 551 652 l 1
 391 533 l 1
 349 533 l 1
 475 652 l 1
155 265 m 1
 484 265 l 1
 484 272 l 2
 484 358 430 420 352 420 c 0
 273 420 190 355 155 265 c 1
97 172 m 0
 97 322 230 460 360 460 c 0
 460 460 525 382 525 281 c 0
 525 270 525 258 523 247 c 2
 520 225 l 1
 141 225 l 1
 138 209 136 194 136 180 c 0
 136 95 191 35 269 35 c 0
 327 35 387 69 429 124 c 1
 459 104 l 1
 410 39 335 -7 260 -7 c 0
 161 -7 97 71 97 172 c 0
EndSplineSet
EndChar
StartChar: ecircumflex
Encoding: 169 234 198
Width: 526
VWidth: 1333
Flags: HW
HStem: -7 42<167.6 344.4> 225 40<155 484> 420 40<249.3 453.4>
VStem: 97 39<69.5 223.144> 484 41<265 358>
Fore
385 652 m 1
 415 652 l 1
 497 533 l 1
 443 533 l 1
 390 607 l 1
 307 533 l 1
 252 533 l 1
 385 652 l 1
155 265 m 1
 484 265 l 1
 484 272 l 2
 484 358 430 420 352 420 c 0
 273 420 190 355 155 265 c 1
97 172 m 0
 97 322 230 460 360 460 c 0
 460 460 525 382 525 281 c 0
 525 270 525 258 523 247 c 2
 520 225 l 1
 141 225 l 1
 138 209 136 194 136 180 c 0
 136 95 191 35 269 35 c 0
 327 35 387 69 429 124 c 1
 459 104 l 1
 410 39 335 -7 260 -7 c 0
 161 -7 97 71 97 172 c 0
EndSplineSet
EndChar
StartChar: edieresis
Encoding: 170 235 199
Width: 526
VWidth: 1333
Flags: HW
HStem: -7 42<167.6 344.4> 225 40<155 484> 420 40<249.3 453.4> 533 75<279 320.2 439 480.2>
VStem: 97 39<69.5 223.144> 259 77<550.7 597.8> 419 77<550.7 597.8> 484 41<265 358>
Fore
259 564 m 0xfc
 259 590 285 608 305 608 c 0
 323 608 336 595 336 578 c 0
 336 557 313 533 289 533 c 0
 271 533 259 547 259 564 c 0xfc
419 564 m 0xfe
 419 590 445 608 465 608 c 0
 483 608 496 595 496 578 c 0
 496 557 473 533 449 533 c 0
 431 533 419 547 419 564 c 0xfe
155 265 m 1
 484 265 l 1
 484 272 l 2xfd
 484 358 430 420 352 420 c 0
 273 420 190 355 155 265 c 1
97 172 m 0
 97 322 230 460 360 460 c 0
 460 460 525 382 525 281 c 0
 525 270 525 258 523 247 c 2
 520 225 l 1
 141 225 l 1
 138 209 136 194 136 180 c 0
 136 95 191 35 269 35 c 0
 327 35 387 69 429 124 c 1
 459 104 l 1
 410 39 335 -7 260 -7 c 0
 161 -7 97 71 97 172 c 0
EndSplineSet
EndChar
StartChar: egrave
Encoding: 167 232 200
Width: 526
VWidth: 1333
Flags: HW
HStem: -7 42<167.6 344.4> 225 40<155 484> 420 40<249.3 453.4>
VStem: 97 39<69.5 223.144> 484 41<265 358>
Fore
239 652 m 1
 315 652 l 1
 389 533 l 1
 348 533 l 1
 239 652 l 1
155 265 m 1
 484 265 l 1
 484 272 l 2
 484 358 430 420 352 420 c 0
 273 420 190 355 155 265 c 1
97 172 m 0
 97 322 230 460 360 460 c 0
 460 460 525 382 525 281 c 0
 525 270 525 258 523 247 c 2
 520 225 l 1
 141 225 l 1
 138 209 136 194 136 180 c 0
 136 95 191 35 269 35 c 0
 327 35 387 69 429 124 c 1
 459 104 l 1
 410 39 335 -7 260 -7 c 0
 161 -7 97 71 97 172 c 0
EndSplineSet
EndChar
StartChar: iacute
Encoding: 172 237 201
Width: 189
VWidth: 1333
Flags: HW
HStem: 0 652<115 285>
VStem: 75 285<0 652>
Fore
285 652 m 1
 360 652 l 1
 200 533 l 1
 159 533 l 1
 285 652 l 1
115 0 m 1
 75 0 l 1
 171 453 l 1
 211 453 l 1
 115 0 l 1
EndSplineSet
EndChar
StartChar: icircumflex
Encoding: 173 238 202
Width: 189
VWidth: 1333
Flags: HW
HStem: 0 652<115 219>
VStem: 75 256<0 533>
Fore
115 0 m 1
 75 0 l 1
 171 453 l 1
 211 453 l 1
 115 0 l 1
219 652 m 1
 248 652 l 1
 331 533 l 1
 276 533 l 1
 224 607 l 1
 140 533 l 1
 85 533 l 1
 219 652 l 1
EndSplineSet
EndChar
StartChar: idieresis
Encoding: 174 239 203
Width: 189
VWidth: 1333
Flags: HW
HStem: 0 21G<75 115> 433 20G<171 211> 533 75<109.2 153 269.2 313>
VStem: 96 77<544.2 588.7> 256 77<544.2 588.7>
Fore
96 564 m 0
 96 583 117 608 143 608 c 0
 161 608 173 595 173 578 c 0
 173 552 147 533 127 533 c 0
 109 533 96 547 96 564 c 0
256 564 m 0
 256 583 277 608 303 608 c 0
 321 608 333 595 333 578 c 0
 333 552 307 533 287 533 c 0
 269 533 256 547 256 564 c 0
115 0 m 1
 75 0 l 1
 171 453 l 1
 211 453 l 1
 115 0 l 1
EndSplineSet
EndChar
StartChar: igrave
Encoding: 171 236 204
Width: 189
VWidth: 1333
Flags: HW
HStem: 0 652<95 115>
VStem: 75 171<0 533>
Fore
95 652 m 1
 171 652 l 1
 245 533 l 1
 204 533 l 1
 95 652 l 1
115 0 m 1
 75 0 l 1
 171 453 l 1
 211 453 l 1
 115 0 l 1
EndSplineSet
EndChar
StartChar: ntilde
Encoding: 176 241 205
Width: 479
VWidth: 1333
Flags: HW
HStem: 0 21G<75 115 365 405> 420 40<293.2 431.4> 525 42<381.3 432.661> 575 38<288.959 344>
VStem: 163 41<398.229 456.955> 430 41<285.688 391.1>
Fore
313 613 m 0
 361 613 390 567 419 567 c 0
 428 567 449 576 456 608 c 1
 480 604 l 1
 471 561 452 525 410 525 c 0
 365 525 335 575 305 575 c 0
 294 575 274 568 265 533 c 1
 239 533 l 1
 246 573 269 613 313 613 c 0
160 453 m 1
 203 453 l 1
 204 449 204 444 204 439 c 0
 204 425 202 410 198 393 c 2
 184 325 l 1
 231 397 310 460 366 460 c 0
 440 460 471 408 471 338 c 0
 471 320 469 300 465 280 c 2
 405 0 l 1
 365 0 l 1
 425 280 l 2
 428 296 430 313 430 330 c 0
 430 377 414 420 356 420 c 0
 283 420 177 295 163 227 c 2
 115 0 l 1
 75 0 l 1
 158 393 l 2
 161 408 163 421 163 431 c 0
 163 440 162 447 160 453 c 1
EndSplineSet
EndChar
StartChar: oacute
Encoding: 178 243 206
Width: 573
VWidth: 1333
Flags: HW
HStem: -7 40<174.1 449.7> 420 40<224.9 497.9>
VStem: 98 41<72.9 348.5> 534 38<106.1 380.4>
Fore
475 652 m 1
 551 652 l 1
 391 533 l 1
 349 533 l 1
 475 652 l 1
98 177 m 0
 98 324 237 460 384 460 c 0
 496 460 572 381 572 275 c 0
 572 136 438 -7 285 -7 c 0
 174 -7 98 71 98 177 c 0
377 420 m 0
 260 420 139 311 139 186 c 0
 139 99 202 33 295 33 c 0
 414 33 534 143 534 266 c 0
 534 354 470 420 377 420 c 0
EndSplineSet
EndChar
StartChar: ocircumflex
Encoding: 179 244 207
Width: 573
VWidth: 1333
Flags: HW
HStem: -7 40<174.1 449.7> 420 40<224.9 497.9>
VStem: 98 41<72.9 348.5> 534 38<106.1 380.4>
Fore
409 652 m 1
 439 652 l 1
 521 533 l 1
 467 533 l 1
 414 607 l 1
 331 533 l 1
 276 533 l 1
 409 652 l 1
98 177 m 0
 98 324 237 460 384 460 c 0
 496 460 572 381 572 275 c 0
 572 136 438 -7 285 -7 c 0
 174 -7 98 71 98 177 c 0
377 420 m 0
 260 420 139 311 139 186 c 0
 139 99 202 33 295 33 c 0
 414 33 534 143 534 266 c 0
 534 354 470 420 377 420 c 0
EndSplineSet
EndChar
StartChar: odieresis
Encoding: 181 246 208
Width: 573
VWidth: 1333
Flags: HW
HStem: -7 40<174.1 449.7> 420 40<224.9 497.9> 533 75<301.2 345 461.2 505>
VStem: 98 41<72.9 348.5> 288 77<544.2 588.7> 448 77<544.2 588.7> 534 38<106.1 380.4>
Fore
288 564 m 0
 288 583 309 608 335 608 c 0
 353 608 365 595 365 578 c 0
 365 552 339 533 319 533 c 0
 301 533 288 547 288 564 c 0
448 564 m 0
 448 583 469 608 495 608 c 0
 513 608 525 595 525 578 c 0
 525 552 499 533 479 533 c 0
 461 533 448 547 448 564 c 0
98 177 m 0
 98 324 237 460 384 460 c 0
 496 460 572 381 572 275 c 0
 572 136 438 -7 285 -7 c 0
 174 -7 98 71 98 177 c 0
377 420 m 0
 260 420 139 311 139 186 c 0
 139 99 202 33 295 33 c 0
 414 33 534 143 534 266 c 0
 534 354 470 420 377 420 c 0
EndSplineSet
EndChar
StartChar: ograve
Encoding: 177 242 209
Width: 573
VWidth: 1333
Flags: HW
HStem: -7 40<174.1 449.7> 420 40<224.9 497.9>
VStem: 98 41<72.9 348.5> 534 38<106.1 380.4>
Fore
297 652 m 1
 373 652 l 1
 448 533 l 1
 407 533 l 1
 297 652 l 1
98 177 m 0
 98 324 237 460 384 460 c 0
 496 460 572 381 572 275 c 0
 572 136 438 -7 285 -7 c 0
 174 -7 98 71 98 177 c 0
377 420 m 0
 260 420 139 311 139 186 c 0
 139 99 202 33 295 33 c 0
 414 33 534 143 534 266 c 0
 534 354 470 420 377 420 c 0
EndSplineSet
EndChar
StartChar: otilde
Encoding: 180 245 210
Width: 573
VWidth: 1333
Flags: HW
HStem: -7 40<174.1 449.7> 420 40<224.9 497.9> 525 42<425.3 476.661> 575 38<332.959 388>
VStem: 98 41<72.9 348.5> 534 38<106.1 380.4>
Fore
357 613 m 0
 405 613 434 567 463 567 c 0
 472 567 493 576 500 608 c 1
 524 604 l 1
 515 561 496 525 454 525 c 0
 409 525 379 575 349 575 c 0
 338 575 318 568 309 533 c 1
 283 533 l 1
 290 573 313 613 357 613 c 0
98 177 m 0
 98 324 237 460 384 460 c 0
 496 460 572 381 572 275 c 0
 572 136 438 -7 285 -7 c 0
 174 -7 98 71 98 177 c 0
377 420 m 0
 260 420 139 311 139 186 c 0
 139 99 202 33 295 33 c 0
 414 33 534 143 534 266 c 0
 534 354 470 420 377 420 c 0
EndSplineSet
EndChar
StartChar: scaron
Encoding: 196 353 211
Width: 354
VWidth: 1333
Flags: HW
HStem: -8 40<125.5 265.9> 421 40<201.7 309.6>
VStem: 58 42<40.4 133.494> 139 41<240.2 387.1> 314 39<66.8 269.6> 335 40<361 415.985>
Fore
298 493 m 1xf0
 269 493 l 1
 186 612 l 1
 241 612 l 1
 293 539 l 1
 377 612 l 1
 431 612 l 1
 298 493 l 1xf0
139 330 m 0
 139 391 194 461 277 461 c 0
 325 461 368 433 375 373 c 1
 335 361 l 1xf4
 330 403 300 421 268 421 c 0
 217 421 180 376 180 339 c 0
 180 263 353 272 353 159 c 0
 353 73 270 -8 174 -8 c 0
 113 -8 58 29 58 113 c 0
 58 118 59 124 59 129 c 1
 101 135 l 1
 101 130 100 126 100 121 c 0
 100 59 139 32 184 32 c 0
 247 32 314 86 314 150 c 0xf8
 314 242 139 228 139 330 c 0
EndSplineSet
EndChar
StartChar: uacute
Encoding: 185 250 212
Width: 477
VWidth: 1333
Flags: HW
HStem: -7 40<168.6 332.4> 433 20G<171 211 459 499>
VStem: 107 41<59.7 171.67>
Fore
439 652 m 1
 515 652 l 1
 355 533 l 1
 313 533 l 1
 439 652 l 1
171 453 m 1
 211 453 l 1
 152 173 l 2
 149 161 148 150 148 139 c 0
 148 78 186 33 244 33 c 0
 312 33 383 95 400 173 c 2
 459 453 l 1
 499 453 l 1
 440 173 l 2
 419 75 329 -7 237 -7 c 0
 158 -7 107 53 107 132 c 0
 107 145 109 159 112 173 c 2
 171 453 l 1
EndSplineSet
EndChar
StartChar: ucircumflex
Encoding: 186 251 213
Width: 477
VWidth: 1333
Flags: HW
HStem: -7 40<168.6 332.4> 433 20G<171 211 459 499>
VStem: 107 41<59.7 171.67>
Fore
363 652 m 1
 392 652 l 1
 475 533 l 1
 420 533 l 1
 368 607 l 1
 284 533 l 1
 229 533 l 1
 363 652 l 1
171 453 m 1
 211 453 l 1
 152 173 l 2
 149 161 148 150 148 139 c 0
 148 78 186 33 244 33 c 0
 312 33 383 95 400 173 c 2
 459 453 l 1
 499 453 l 1
 440 173 l 2
 419 75 329 -7 237 -7 c 0
 158 -7 107 53 107 132 c 0
 107 145 109 159 112 173 c 2
 171 453 l 1
EndSplineSet
EndChar
StartChar: udieresis
Encoding: 187 252 214
Width: 477
VWidth: 1333
Flags: HW
HStem: -7 40<168.6 332.4> 433 20G<171 211 459 499> 533 75<257.2 301 417.2 461>
VStem: 107 41<59.7 171.67> 244 77<544.2 588.7> 404 77<544.2 588.7>
Fore
244 564 m 0
 244 583 265 608 291 608 c 0
 309 608 321 595 321 578 c 0
 321 552 295 533 275 533 c 0
 257 533 244 547 244 564 c 0
404 564 m 0
 404 583 425 608 451 608 c 0
 469 608 481 595 481 578 c 0
 481 552 455 533 435 533 c 0
 417 533 404 547 404 564 c 0
171 453 m 1
 211 453 l 1
 152 173 l 2
 149 161 148 150 148 139 c 0
 148 78 186 33 244 33 c 0
 312 33 383 95 400 173 c 2
 459 453 l 1
 499 453 l 1
 440 173 l 2
 419 75 329 -7 237 -7 c 0
 158 -7 107 53 107 132 c 0
 107 145 109 159 112 173 c 2
 171 453 l 1
EndSplineSet
EndChar
StartChar: ugrave
Encoding: 184 249 215
Width: 477
VWidth: 1333
Flags: HW
HStem: -7 40<168.6 332.4> 433 20G<171 211 459 499>
VStem: 107 41<59.7 171.67>
Fore
244 652 m 1
 320 652 l 1
 395 533 l 1
 353 533 l 1
 244 652 l 1
171 453 m 1
 211 453 l 1
 152 173 l 2
 149 161 148 150 148 139 c 0
 148 78 186 33 244 33 c 0
 312 33 383 95 400 173 c 2
 459 453 l 1
 499 453 l 1
 440 173 l 2
 419 75 329 -7 237 -7 c 0
 158 -7 107 53 107 132 c 0
 107 145 109 159 112 173 c 2
 171 453 l 1
EndSplineSet
EndChar
StartChar: yacute
Encoding: 188 253 216
Width: 425
VWidth: 1333
Flags: HW
HStem: 433 20G<112 155 463 506>
VStem: 56 450<-233 453>
Fore
412 652 m 1
 488 652 l 1
 328 533 l 1
 287 533 l 1
 412 652 l 1
100 -233 m 1
 56 -233 l 1
 193 -1 l 1
 112 453 l 1
 155 453 l 1
 226 53 l 1
 463 453 l 1
 506 453 l 1
 100 -233 l 1
EndSplineSet
EndChar
StartChar: ydieresis
Encoding: 190 255 217
Width: 423
VWidth: 1333
Flags: HW
HStem: 433 20G<112 154 462 504> 540 75<239 282.8 399 442.8>
VStem: 219 77<559.3 603.8> 379 77<559.3 603.8>
Fore
219 570 m 0
 219 596 245 615 265 615 c 0
 283 615 296 601 296 584 c 0
 296 565 275 540 249 540 c 0
 231 540 219 553 219 570 c 0
379 570 m 0
 379 596 405 615 425 615 c 0
 443 615 456 601 456 584 c 0
 456 565 435 540 409 540 c 0
 391 540 379 553 379 570 c 0
112 453 m 1
 154 453 l 1
 225 53 l 1
 462 453 l 1
 504 453 l 1
 98 -233 l 1
 56 -233 l 1
 193 -1 l 1
 112 453 l 1
EndSplineSet
EndChar
StartChar: zcaron
Encoding: 199 382 218
Width: 397
VWidth: 1333
Flags: HW
HStem: 0 40<101 367> 413 40<167 395>
VStem: 16 462<0 453>
Fore
332 493 m 1
 302 493 l 1
 219 612 l 1
 274 612 l 1
 326 539 l 1
 410 612 l 1
 465 612 l 1
 332 493 l 1
167 453 m 1
 478 453 l 1
 100 40 l 1
 388 40 l 1
 367 0 l 1
 16 0 l 1
 395 413 l 1
 145 413 l 1
 167 453 l 1
EndSplineSet
EndChar
StartChar: uni00AD
Encoding: 108 173 220
Width: 463
VWidth: 1333
Flags: HW
HStem: 207 40<107 453>
VStem: 99 363<207 247>
Fore
462 247 m 1
 453 207 l 1
 99 207 l 1
 107 247 l 1
 462 247 l 1
EndSplineSet
EndChar
StartChar: uni00B2
Encoding: 113 178 221
Width: 395
VWidth: 1333
Flags: HW
HStem: 412 41<196 419> 824 40<317 436.6>
VStem: 454 44<711.747 804.8>
Fore
498 753 m 0
 498 587 247 570 196 453 c 1
 427 453 l 1
 419 413 l 1
 142 412 l 1
 146 432 l 2
 179 584 428 608 451 719 c 0
 453 728 454 736 454 745 c 0
 454 791 424 824 382 824 c 0
 332 824 280 779 267 719 c 1
 227 719 l 1
 244 797 317 864 392 864 c 0
 455 864 498 816 498 753 c 0
EndSplineSet
EndChar
StartChar: uni00B3
Encoding: 114 179 222
Width: 389
VWidth: 1333
Flags: HW
HStem: 407 38<227.3 367.7> 648 40<334 395.3> 823 40<319 416.5>
VStem: 168 41<466.2 552.873> 416 38<479.9 626.8> 429 38<742.181 808.9>
Fore
342 688 m 1xf8
 383 688 429 716 429 766 c 0
 429 799 406 823 371 823 c 0
 331 823 292 791 284 752 c 1
 244 752 l 1
 257 813 317 863 378 863 c 0
 431 863 467 825 467 775 c 0xf4
 467 754 461 704 405 668 c 1
 435 648 454 615 454 575 c 0
 454 493 372 407 281 407 c 0
 214 407 168 454 168 517 c 0
 168 527 169 537 171 547 c 1
 211 547 l 1
 209 540 209 533 209 526 c 0
 209 480 242 445 291 445 c 0
 350 445 416 500 416 567 c 0
 416 613 383 648 334 648 c 1
 342 688 l 1xf8
EndSplineSet
EndChar
StartChar: uni00B5
Encoding: 116 181 223
Width: 477
VWidth: 1333
Flags: HW
HStem: -4 40<171.7 333.4> 433 20G<171 211 459 499>
VStem: 41 41<-206.463 -131.767>
Fore
171 453 m 1
 211 453 l 1
 152 176 l 2
 149 164 148 153 148 142 c 0
 148 80 187 36 245 36 c 0
 313 36 383 97 400 176 c 2
 459 453 l 1
 499 453 l 1
 440 176 l 2
 419 77 330 -4 238 -4 c 0
 187 -4 148 20 127 57 c 1
 86 -136 l 2
 83 -148 82 -160 82 -170 c 0
 82 -184 84 -197 88 -209 c 1
 49 -228 l 1
 44 -212 41 -195 41 -177 c 0
 41 -164 42 -151 45 -137 c 2
 171 453 l 1
EndSplineSet
EndChar
StartChar: uni00B9
Encoding: 120 185 224
Width: 350
VWidth: 1333
Flags: HW
HStem: 413 448<275 408>
VStem: 275 134<413 861>
Fore
275 413 m 1
 354 785 l 1
 293 749 l 1
 277 783 l 1
 408 861 l 1
 313 413 l 1
 275 413 l 1
EndSplineSet
EndChar
StartChar: uni0E01
Encoding: 209 3585 225
Width: 527
VWidth: 1333
Flags: HW
HStem: 0 21G<75 115 413 453> 500 40<283.2 452>
VStem: 490 40<336.477 478.4>
Fore
179 384 m 1
 245 341 l 1
 203 323 178 300 167 247 c 2
 115 0 l 1
 75 0 l 1
 127 247 l 2
 135 285 169 320 199 339 c 1
 137 376 l 1
 193 500 303 540 369 540 c 0
 465 540 530 472 530 382 c 0
 530 369 529 355 526 341 c 2
 453 0 l 1
 413 0 l 1
 486 341 l 2
 489 354 490 366 490 377 c 0
 490 455 431 500 361 500 c 0
 297 500 220 464 179 384 c 1
EndSplineSet
EndChar
StartChar: uni0E02
Encoding: 210 3586 226
Width: 546
VWidth: 1333
Flags: HW
HStem: -7 40<179.9 394.4> 300 40<178 296.7> 493 40<288 338>
VStem: 111 41<65.4 197.531>
Fore
266 493 m 1
 288 533 l 1
 387 533 l 1
 353 373 l 2
 344 333 304 300 264 300 c 2
 178 300 l 1
 155 192 l 2
 153 181 152 170 152 159 c 0
 152 87 203 33 280 33 c 0
 368 33 454 104 473 192 c 2
 545 533 l 1
 585 533 l 1
 513 192 l 2
 490 83 381 -7 272 -7 c 0
 177 -7 111 62 111 151 c 0
 111 165 112 178 115 192 c 2
 147 340 l 1
 272 340 l 2
 291 340 309 355 313 373 c 2
 338 493 l 1
 266 493 l 1
EndSplineSet
EndChar
StartChar: uni0E03
Encoding: 211 3587 227
Width: 546
VWidth: 1333
Flags: HW
HStem: -7 40<181.2 394.4> 300 40<178 296.7>
VStem: 111 41<65.1 197.478>
Fore
195 505 m 1
 222 540 l 1
 241 528 266 503 281 470 c 1
 348 533 l 1
 387 533 l 1
 353 373 l 2
 344 333 304 300 264 300 c 2
 178 300 l 1
 155 192 l 2
 153 181 152 170 152 160 c 0
 152 87 204 33 280 33 c 0
 368 33 454 104 473 192 c 2
 545 533 l 1
 585 533 l 1
 513 192 l 2
 489 82 382 -7 272 -7 c 0
 176 -7 111 61 111 151 c 0
 111 164 112 178 115 192 c 2
 147 340 l 1
 272 340 l 2
 291 340 309 355 313 373 c 2
 333 470 l 1
 257 397 l 1
 252 416 242 475 195 505 c 1
EndSplineSet
EndChar
StartChar: uni0E04
Encoding: 212 3588 228
Width: 546
VWidth: 1333
Flags: HW
HStem: 0 21G<75 115 432 472> 247 40<176 312> 500 40<265.6 480.1>
VStem: 508 41<335.522 467.6>
Fore
334 287 m 1
 312 247 l 1
 167 247 l 1
 115 0 l 1
 75 0 l 1
 147 341 l 2
 170 451 279 540 388 540 c 0
 483 540 549 472 549 382 c 0
 549 369 548 355 545 341 c 2
 472 0 l 1
 432 0 l 1
 505 341 l 2
 507 352 508 363 508 374 c 0
 508 446 457 500 380 500 c 0
 292 500 206 429 187 341 c 2
 176 287 l 1
 334 287 l 1
EndSplineSet
EndChar
StartChar: uni0E05
Encoding: 213 3589 229
Width: 546
VWidth: 1333
Flags: HW
HStem: 0 21G<75 115 432 472> 247 40<176 312> 416 40<343 388.5>
VStem: 514 40<364.33 448.2>
Fore
334 287 m 1
 312 247 l 1
 167 247 l 1
 115 0 l 1
 75 0 l 1
 152 363 l 2
 167 433 209 495 274 532 c 2
 293 543 l 1
 300 527 l 2
 326 472 349 456 369 456 c 0
 384 457 418 465 470 525 c 2
 484 541 l 1
 498 532 l 2
 537 505 554 461 554 412 c 0
 554 396 552 379 549 363 c 2
 472 0 l 1
 432 0 l 1
 509 363 l 2
 512 377 514 391 514 404 c 0
 514 438 503 467 482 487 c 1
 445 448 403 416 362 416 c 0
 320 416 293 448 271 487 c 1
 231 459 203 415 192 363 c 2
 176 287 l 1
 334 287 l 1
EndSplineSet
EndChar
StartChar: uni0E06
Encoding: 214 3590 230
Width: 546
VWidth: 1333
Flags: HW
HStem: -7 40<221.2 443.5> 300 40<178 291>
Fore
178 300 m 1
 167 248 l 2
 165 240 164 231 164 222 c 0
 164 135 244 33 320 33 c 0
 415 33 457 119 473 192 c 2
 545 533 l 1
 585 533 l 1
 513 192 l 2
 490 84 424 -7 312 -7 c 0
 239 -7 176 68 146 149 c 1
 115 0 l 1
 75 0 l 1
 147 340 l 1
 272 340 l 2
 291 340 309 355 313 373 c 2
 333 470 l 1
 257 397 l 1
 252 416 242 475 195 505 c 1
 222 540 l 1
 241 528 266 503 281 470 c 1
 348 533 l 1
 387 533 l 1
 353 373 l 2
 344 333 304 300 264 300 c 2
 178 300 l 1
EndSplineSet
EndChar
StartChar: uni0E07
Encoding: 215 3591 231
Width: 546
VWidth: 1333
Flags: HW
HStem: -7 40<179.9 394.4> 493 40<378 476.8>
VStem: 111 41<65.4 197.531> 507 40<330.592 461.3>
Fore
197 387 m 1
 155 192 l 2
 153 181 152 170 152 159 c 0
 152 87 203 33 280 33 c 0
 368 33 454 104 473 192 c 2
 503 335 l 2
 506 347 507 358 507 369 c 0
 507 440 454 493 378 493 c 1
 387 533 l 1
 482 533 547 465 547 376 c 0
 547 363 546 349 543 335 c 2
 513 192 l 2
 490 83 381 -7 272 -7 c 0
 177 -7 111 62 111 151 c 0
 111 165 112 178 115 192 c 2
 154 373 l 1
 197 387 l 1
EndSplineSet
EndChar
StartChar: uni0E08
Encoding: 216 3592 232
Width: 506
VWidth: 1333
Flags: HW
HStem: 0 21G<392 432> 247 40<308 444> 500 40<225.6 440.1>
VStem: 468 41<335.522 467.6>
Fore
286 247 m 1
 308 287 l 1
 453 287 l 1
 465 341 l 2
 467 352 468 363 468 374 c 0
 468 446 417 500 340 500 c 0
 252 500 166 429 147 341 c 1
 107 341 l 1
 130 451 239 540 348 540 c 0
 443 540 509 472 509 382 c 0
 509 369 508 355 505 341 c 2
 432 0 l 1
 392 0 l 1
 444 247 l 1
 286 247 l 1
EndSplineSet
EndChar
StartChar: uni0E09
Encoding: 217 3593 233
Width: 506
VWidth: 1333
Flags: HW
HStem: -4 40<151.6 299.3> 237 40<87 113> 500 40<225.6 440.1>
VStem: 95 41<36.9 169.442> 468 41<335.522 467.6>
Fore
392 0 m 1
 422 143 l 1
 363 64 278 -4 207 -4 c 0
 122 -4 95 49 95 117 c 0
 95 141 99 168 104 195 c 2
 113 237 l 1
 65 237 l 1
 87 277 l 1
 162 277 l 1
 144 195 l 2
 138 167 136 143 136 124 c 0
 136 57 166 36 214 36 c 0
 301 36 426 160 445 248 c 2
 465 341 l 2
 467 352 468 363 468 374 c 0
 468 446 417 500 340 500 c 0
 252 500 166 429 147 341 c 1
 107 341 l 1
 130 451 239 540 348 540 c 0
 443 540 509 472 509 382 c 0
 509 369 508 355 505 341 c 2
 432 0 l 1
 392 0 l 1
EndSplineSet
EndChar
StartChar: uni0E0A
Encoding: 218 3594 234
Width: 546
VWidth: 1333
Flags: HW
HStem: -7 40<179.9 394.4> 300 40<178 296.7> 389 40<365 450> 493 40<288 338>
VStem: 111 41<65.4 197.531> 499 40<293.047 369.9>
Fore
115 192 m 2
 147 340 l 1
 272 340 l 2
 291 340 309 355 313 373 c 2
 338 493 l 1
 266 493 l 1
 288 533 l 1
 387 533 l 1
 365 429 l 1
 450 429 l 2
 498 429 531 468 542 516 c 2
 545 533 l 1
 585 533 l 1
 582 516 l 2
 572 471 541 431 501 408 c 1
 525 390 539 360 539 327 c 0
 539 318 538 309 536 300 c 2
 513 192 l 2
 490 83 381 -7 272 -7 c 0
 177 -7 111 62 111 151 c 0
 111 165 112 178 115 192 c 2
441 389 m 2
 356 389 l 1
 353 373 l 2
 344 333 304 300 264 300 c 2
 178 300 l 1
 155 192 l 2
 153 181 152 170 152 159 c 0
 152 87 203 33 280 33 c 0
 368 33 454 104 473 192 c 2
 496 300 l 2
 498 309 499 317 499 325 c 0
 499 362 480 389 441 389 c 2
EndSplineSet
EndChar
StartChar: uni0E0B
Encoding: 219 3595 235
Width: 546
VWidth: 1333
Flags: HW
HStem: -7 40<179.9 394.4> 300 40<178 296.7> 389 40<365 450>
VStem: 111 41<65.4 197.531> 499 40<293.047 369.9>
Fore
365 429 m 1
 450 429 l 2
 498 429 531 468 542 516 c 2
 545 533 l 1
 585 533 l 1
 582 516 l 2
 572 471 541 431 501 408 c 1
 525 390 539 360 539 327 c 0
 539 318 538 309 536 300 c 2
 513 192 l 2
 490 83 381 -7 272 -7 c 0
 177 -7 111 62 111 151 c 0
 111 165 112 178 115 192 c 2
 147 340 l 1
 272 340 l 2
 291 340 309 355 313 373 c 2
 333 470 l 1
 257 397 l 1
 252 416 242 475 195 505 c 1
 222 540 l 1
 241 528 266 503 281 470 c 1
 348 533 l 1
 387 533 l 1
 365 429 l 1
178 300 m 1
 155 192 l 2
 153 181 152 170 152 159 c 0
 152 87 203 33 280 33 c 0
 368 33 454 104 473 192 c 2
 496 300 l 2
 498 309 499 317 499 325 c 0
 499 362 480 389 441 389 c 2
 356 389 l 1
 353 373 l 2
 344 333 304 300 264 300 c 2
 178 300 l 1
EndSplineSet
EndChar
StartChar: uni0E0C
Encoding: 220 3596 236
Width: 843
VWidth: 1333
Flags: HW
HStem: -8 40<537.4 711.6> 0 40<123 155> 500 40<283.2 452>
VStem: 490 40<336.477 478.4>
Fore
176 40 m 1x70
 155 0 l 1
 75 0 l 1x70
 127 247 l 2
 135 285 169 320 199 339 c 1
 137 376 l 1
 193 500 303 540 369 540 c 0
 465 540 530 472 530 382 c 0
 530 369 529 355 526 341 c 2
 506 247 l 2
 503 235 502 222 502 210 c 0
 502 124 559 32 631 32 c 0
 693 32 744 69 770 191 c 2
 843 533 l 1
 883 533 l 1
 810 191 l 2
 779 47 709 -8 622 -8 c 0xb0
 553 -8 504 57 481 132 c 1
 453 0 l 1
 413 0 l 1
 486 341 l 2
 489 354 490 366 490 377 c 0
 490 455 431 500 361 500 c 0
 297 500 220 464 179 384 c 1
 245 341 l 1
 203 323 178 300 167 247 c 2
 123 40 l 1
 176 40 l 1x70
EndSplineSet
EndChar
StartChar: uni0E0D
Encoding: 221 3597 237
Width: 843
VWidth: 1333
Flags: HW
HStem: -153 38<515.7 667.8> -7 40<515.5 666.1> 0 40<123 155> 500 40<283.2 452>
VStem: 449 41<63 189.144> 490 40<336.477 478.4>
Fore
176 40 m 1xbc
 155 0 l 1
 75 0 l 1xbc
 127 247 l 2
 135 285 169 320 199 339 c 1
 137 376 l 1
 193 500 303 540 369 540 c 0
 465 540 530 472 530 382 c 0
 530 369 529 355 526 341 c 2
 494 192 l 2
 491 179 490 166 490 154 c 0
 490 84 535 33 600 33 c 0
 676 33 754 103 773 192 c 2
 845 533 l 1
 883 533 l 1
 779 45 l 2
 756 -63 662 -153 561 -153 c 0
 503 -153 460 -125 437 -81 c 1
 476 -61 l 1
 495 -95 528 -115 569 -115 c 0
 645 -115 722 -45 741 44 c 2
 746 65 l 1
 705 21 649 -7 592 -7 c 0xdc
 506 -7 449 59 449 146 c 0
 449 160 451 175 454 191 c 2
 486 341 l 2
 489 354 490 366 490 377 c 0
 490 455 431 500 361 500 c 0
 297 500 220 464 179 384 c 1
 245 341 l 1
 203 323 178 300 167 247 c 2
 123 40 l 1
 176 40 l 1xbc
EndSplineSet
Substitution2: "Single Substitution lookup 8" uni0E0D.descless
EndChar
StartChar: uni0E0E
Encoding: 222 3598 238
Width: 527
VWidth: 1333
Flags: HW
HStem: -188 40<-12 137 374 382> 0 40<50 84> 500 40<282.9 450.7>
VStem: 489 41<342.502 479.1>
AnchorPoint: "BelowBase" 409.914 -198 basechar 0
Fore
28 0 m 1
 50 40 l 1
 84 40 l 1
 128 247 l 2
 136 285 169 320 199 339 c 1
 137 376 l 1
 193 500 303 540 370 540 c 0
 465 540 530 473 530 384 c 0
 530 370 528 356 525 341 c 2
 413 -188 l 1
 355 -188 l 1
 260 -115 l 1
 141 -188 l 1
 -35 -188 l 1
 -12 -148 l 1
 137 -148 l 1
 267 -67 l 1
 374 -148 l 1
 382 -148 l 1
 485 341 l 2
 488 354 489 367 489 379 c 0
 489 456 430 500 361 500 c 0
 297 500 220 464 179 384 c 1
 244 341 l 1
 204 323 179 300 168 247 c 2
 115 0 l 1
 28 0 l 1
EndSplineSet
EndChar
StartChar: uni0E0F
Encoding: 223 3599 239
Width: 527
VWidth: 1333
Flags: HW
HStem: -188 40<-12 45 377 382> 0 40<50 84> 500 40<282.9 450.7>
VStem: 489 41<342.502 479.1>
AnchorPoint: "BelowBase" 409.914 -198 basechar 0
Fore
45 -148 m 1
 139 -61 l 1
 210 -141 l 1
 310 -61 l 1
 377 -148 l 1
 382 -148 l 1
 485 341 l 2
 488 354 489 367 489 379 c 0
 489 456 430 500 361 500 c 0
 297 500 220 464 179 384 c 1
 244 341 l 1
 204 323 179 300 168 247 c 2
 115 0 l 1
 28 0 l 1
 50 40 l 1
 84 40 l 1
 128 247 l 2
 136 285 169 320 199 339 c 1
 137 376 l 1
 193 500 303 540 370 540 c 0
 465 540 530 473 530 384 c 0
 530 370 528 356 525 341 c 2
 413 -188 l 1
 352 -188 l 1
 298 -117 l 1
 202 -195 l 1
 132 -117 l 1
 55 -188 l 1
 -35 -188 l 1
 -12 -148 l 1
 45 -148 l 1
EndSplineSet
EndChar
StartChar: uni0E10
Encoding: 224 3600 240
Width: 522
VWidth: 1333
Flags: HW
HStem: -188 40<-18 39 371 377> 0 21G<408 448> 247 40<324 460> 500 40<241.6 421.2>
VStem: 484 41<335.225 427.2>
Fore
377 -148 m 1
 393 -71 l 1
 362 -71 l 1
 384 -31 l 1
 441 -31 l 1
 408 -188 l 1
 347 -188 l 1
 292 -117 l 1
 196 -195 l 1
 127 -117 l 1
 49 -188 l 1
 -40 -188 l 1
 -18 -148 l 1
 39 -148 l 1
 134 -61 l 1
 205 -141 l 1
 304 -61 l 1
 371 -148 l 1
 377 -148 l 1
469 287 m 1
 481 341 l 2
 483 352 484 363 484 374 c 0
 484 446 433 500 356 500 c 0
 268 500 182 429 163 341 c 1
 123 341 l 1
 146 451 255 540 364 540 c 0
 408 540 445 525 473 501 c 1
 531 535 l 1
 547 501 l 1
 498 473 l 1
 516 449 525 417 525 383 c 0
 525 369 524 355 521 341 c 2
 448 0 l 1
 408 0 l 1
 460 247 l 1
 302 247 l 1
 324 287 l 1
 469 287 l 1
EndSplineSet
Substitution2: "Single Substitution lookup 8" uni0E10.descless
EndChar
StartChar: uni0E11
Encoding: 225 3601 241
Width: 546
VWidth: 1333
Flags: HW
HStem: 0 21G<75 115 432 472> 500 40<432.6 524.7>
VStem: 526 40<419.6 490.8>
Fore
75 0 m 1
 127 248 l 1
 127 248 181 310 251 376 c 1
 271 470 l 1
 194 397 l 1
 189 416 180 475 132 505 c 1
 159 540 l 1
 178 528 203 503 218 470 c 1
 285 533 l 1
 324 533 l 1
 300 423 l 1
 371 486 447 540 495 540 c 0
 550 540 566 511 566 469 c 0
 566 431 553 382 543 336 c 2
 472 0 l 1
 432 0 l 1
 503 336 l 2
 513 380 526 425 526 457 c 0
 526 483 516 500 487 500 c 0
 431 500 263 347 165 235 c 1
 115 0 l 1
 75 0 l 1
EndSplineSet
EndChar
StartChar: uni0E12
Encoding: 226 3602 242
Width: 870
VWidth: 1333
Flags: HW
HStem: -7 40<146.2 332.1 564.4 738.6> 284 40<257 348.4> 415 40<344.6 414.8>
VStem: 98 40<67.8 290.1> 354 41<104.1 260.1> 522 40<362.179 443.3>
Fore
219 33 m 0
 306 33 354 126 354 199 c 0
 354 246 334 284 286 284 c 2
 235 284 l 1
 257 324 l 1
 294 324 l 2
 364 324 395 272 395 208 c 0
 395 107 326 -7 211 -7 c 0
 133 -7 98 65 98 158 c 0
 98 297 173 459 299 541 c 1
 324 484 353 455 381 455 c 0
 407 455 445 483 496 540 c 1
 538 507 562 458 562 404 c 0
 562 392 561 380 558 367 c 2
 533 248 l 2
 530 236 529 224 529 211 c 0
 529 126 586 33 658 33 c 0
 720 33 771 71 797 192 c 2
 869 533 l 1
 909 533 l 1
 837 192 l 2
 806 48 736 -7 649 -7 c 0
 580 -7 531 59 508 133 c 1
 480 0 l 1
 440 0 l 1
 518 367 l 2
 521 379 522 391 522 403 c 0
 522 434 512 463 492 484 c 1
 450 441 405 415 372 415 c 0
 336 415 304 440 280 484 c 1
 183 407 138 261 138 164 c 0
 138 90 163 33 219 33 c 0
EndSplineSet
EndChar
StartChar: uni0E13
Encoding: 227 3603 243
Width: 843
VWidth: 1333
Flags: HW
HStem: -8 40<501.6 646.7> 0 40<123 155> 500 40<283.2 452>
VStem: 444 41<34.5 161.54> 490 40<336.477 478.4>
Fore
179 384 m 1xb8
 245 341 l 1
 203 323 178 300 167 247 c 2
 123 40 l 1
 176 40 l 1
 155 0 l 1
 75 0 l 1x78
 127 247 l 2
 135 285 169 320 199 339 c 1
 137 376 l 1
 193 500 303 540 369 540 c 0
 465 540 530 472 530 382 c 0
 530 369 529 355 526 341 c 2
 494 191 l 2
 488 162 485 139 485 119 c 0
 485 54 516 32 564 32 c 0xb8
 647 32 762 153 782 247 c 2
 843 533 l 1
 883 533 l 1
 769 0 l 1
 729 0 l 1x78
 757 132 l 1
 703 57 626 -8 557 -8 c 0
 488 -8 444 26 444 112 c 0
 444 135 448 161 454 191 c 2
 486 341 l 2
 489 354 490 366 490 377 c 0
 490 455 431 500 361 500 c 0
 297 500 220 464 179 384 c 1xb8
EndSplineSet
EndChar
StartChar: uni0E14
Encoding: 228 3604 244
Width: 554
VWidth: 1333
Flags: HW
HStem: -7 40<147.5 326.9> 284 40<257 348.4> 500 40<192.6 485.1>
VStem: 97 41<64.5 366.1> 354 41<96.3 260.1> 516 41<335.767 466.6>
Fore
219 33 m 0
 302 33 354 120 354 199 c 0
 354 246 334 284 286 284 c 2
 235 284 l 1
 257 324 l 1
 294 324 l 2
 364 324 395 272 395 208 c 0
 395 102 322 -7 211 -7 c 0
 134 -7 97 62 97 155 c 0
 97 325 210 540 393 540 c 0
 489 540 557 472 557 381 c 0
 557 368 556 355 553 341 c 2
 480 0 l 1
 440 0 l 1
 513 341 l 2
 515 352 516 362 516 373 c 0
 516 445 462 500 385 500 c 0
 237 500 138 319 138 162 c 0
 138 87 164 33 219 33 c 0
EndSplineSet
EndChar
StartChar: uni0E15
Encoding: 229 3605 245
Width: 554
VWidth: 1333
Flags: HW
HStem: -7 40<146.2 332.1> 284 40<257 348.4> 415 40<344.6 414.8>
VStem: 98 40<67.8 290.1> 354 41<104.1 260.1> 522 40<362.179 443.3>
Fore
219 33 m 0
 306 33 354 126 354 199 c 0
 354 246 334 284 286 284 c 2
 235 284 l 1
 257 324 l 1
 294 324 l 2
 364 324 395 272 395 208 c 0
 395 107 326 -7 211 -7 c 0
 133 -7 98 65 98 158 c 0
 98 297 173 459 299 541 c 1
 324 484 353 455 381 455 c 0
 407 455 445 483 496 540 c 1
 538 507 562 458 562 404 c 0
 562 392 561 380 558 367 c 2
 480 0 l 1
 440 0 l 1
 518 367 l 2
 521 379 522 391 522 403 c 0
 522 434 512 463 492 484 c 1
 450 441 405 415 372 415 c 0
 336 415 304 440 280 484 c 1
 183 407 138 261 138 164 c 0
 138 90 163 33 219 33 c 0
EndSplineSet
EndChar
StartChar: uni0E16
Encoding: 230 3606 246
Width: 527
VWidth: 1333
Flags: HW
HStem: 0 40<123 155> 500 40<283.2 452>
VStem: 490 40<336.477 478.4>
Fore
179 384 m 1
 245 341 l 1
 203 323 178 300 167 247 c 2
 123 40 l 1
 176 40 l 1
 155 0 l 1
 75 0 l 1
 127 247 l 2
 135 285 169 320 199 339 c 1
 137 376 l 1
 193 500 303 540 369 540 c 0
 465 540 530 472 530 382 c 0
 530 369 529 355 526 341 c 2
 453 0 l 1
 413 0 l 1
 486 341 l 2
 489 354 490 366 490 377 c 0
 490 455 431 500 361 500 c 0
 297 500 220 464 179 384 c 1
EndSplineSet
EndChar
StartChar: uni0E17
Encoding: 231 3607 247
Width: 546
VWidth: 1333
Flags: HW
HStem: 0 21G<75 115 432 472> 500 40<333.1 511>
VStem: 511 41<351.518 469.5>
Fore
75 0 m 1
 188 533 l 1
 228 533 l 1
 196 384 l 1
 260 465 355 540 428 540 c 0
 517 540 552 483 552 406 c 0
 552 385 550 364 545 341 c 2
 472 0 l 1
 432 0 l 1
 505 341 l 2
 509 360 511 379 511 398 c 0
 511 453 490 500 420 500 c 0
 336 500 195 376 175 285 c 2
 115 0 l 1
 75 0 l 1
EndSplineSet
EndChar
StartChar: uni0E18
Encoding: 232 3608 248
Width: 546
VWidth: 1333
Flags: HW
HStem: 0 40<123 282> 247 40<176 484> 500 40<265.6 480.1>
VStem: 508 41<335.522 467.6>
Fore
75 0 m 1
 118 203 l 1
 158 203 l 1
 123 40 l 1
 282 40 l 2
 370 40 456 111 474 199 c 2
 484 247 l 1
 127 247 l 1
 147 341 l 2
 170 451 279 540 388 540 c 0
 483 540 549 472 549 382 c 0
 549 369 548 355 545 341 c 1
 505 341 l 1
 507 352 508 363 508 374 c 0
 508 446 457 500 380 500 c 0
 292 500 206 429 187 341 c 2
 176 287 l 1
 533 287 l 1
 514 199 l 2
 491 89 383 0 273 0 c 2
 75 0 l 1
EndSplineSet
EndChar
StartChar: uni0E19
Encoding: 233 3609 249
Width: 546
VWidth: 1333
Flags: HW
HStem: -4 40<150 325.6>
VStem: 108 41<65.5 179.003>
Fore
188 533 m 1
 228 533 l 1
 156 195 l 2
 152 176 149 156 149 137 c 0
 149 82 171 36 241 36 c 0
 328 36 466 160 485 248 c 2
 545 533 l 1
 585 533 l 1
 472 0 l 1
 432 0 l 1
 464 149 l 1
 400 68 304 -4 232 -4 c 0
 144 -4 108 52 108 129 c 0
 108 150 111 172 116 195 c 2
 188 533 l 1
EndSplineSet
EndChar
StartChar: uni0E1A
Encoding: 234 3610 250
Width: 546
VWidth: 1333
Flags: HW
HStem: -7 40<179.9 394.4>
VStem: 111 41<65.4 197.531>
Fore
188 533 m 1
 228 533 l 1
 155 192 l 2
 153 181 152 170 152 159 c 0
 152 87 203 33 280 33 c 0
 368 33 454 104 473 192 c 2
 545 533 l 1
 585 533 l 1
 513 192 l 2
 490 83 381 -7 272 -7 c 0
 177 -7 111 62 111 151 c 0
 111 165 112 178 115 192 c 2
 188 533 l 1
EndSplineSet
EndChar
StartChar: uni0E1B
Encoding: 235 3611 251
Width: 546
VWidth: 1333
Flags: HW
HStem: -7 40<181.2 394.4> 647 20G<574 614>
VStem: 112 40<64.4 196.408>
AnchorPoint: "AboveBase" 505.732 568 basechar 0
Fore
188 533 m 1
 228 533 l 1
 156 192 l 2
 153 180 152 169 152 158 c 0
 152 86 204 33 280 33 c 0
 368 33 454 104 473 192 c 2
 574 667 l 1
 614 667 l 1
 513 192 l 2
 490 83 382 -7 272 -7 c 0
 177 -7 112 61 112 151 c 0
 112 164 113 178 116 192 c 2
 188 533 l 1
EndSplineSet
EndChar
StartChar: uni0E1C
Encoding: 236 3612 252
Width: 586
VWidth: 1333
Flags: HW
HStem: -7 40<145.6 241.6 336.9 476.1> 495 40<195.5 302>
VStem: 97 41<61 335.1>
Fore
293 495 m 1
 218 495 138 303 138 152 c 0
 138 82 157 33 195 33 c 0
 267 33 295 115 303 152 c 2
 384 533 l 1
 423 533 l 1
 342 152 l 2
 339 136 336 120 336 104 c 0
 336 65 351 33 398 33 c 0
 463 33 492 96 504 152 c 2
 585 533 l 1
 625 533 l 1
 544 152 l 2
 521 41 456 -7 389 -7 c 0
 347 -7 316 27 304 69 c 1
 274 27 229 -7 187 -7 c 0
 129 -7 97 51 97 144 c 0
 97 291 179 535 302 535 c 1
 293 495 l 1
EndSplineSet
EndChar
StartChar: uni0E1D
Encoding: 237 3613 253
Width: 586
VWidth: 1333
Flags: HW
HStem: -7 40<145.6 242.9 335.6 475.8> 495 40<195.5 302> 647 20G<614 654>
VStem: 97 41<61 339>
AnchorPoint: "AboveBase" 545.732 568 basechar 0
Fore
293 495 m 1
 218 495 138 304 138 152 c 0
 138 82 157 33 195 33 c 0
 267 33 295 115 303 152 c 2
 384 533 l 1
 422 533 l 1
 341 152 l 2
 338 136 336 120 336 105 c 0
 336 66 350 33 398 33 c 0
 463 33 492 96 504 152 c 2
 614 667 l 1
 654 667 l 1
 544 152 l 2
 521 41 456 -7 390 -7 c 0
 347 -7 317 27 304 69 c 1
 274 27 230 -7 187 -7 c 0
 129 -7 97 51 97 144 c 0
 97 294 179 535 302 535 c 1
 293 495 l 1
EndSplineSet
EndChar
StartChar: uni0E1E
Encoding: 238 3614 254
Width: 610
VWidth: 1333
Flags: HW
HStem: -7 40<142.3 256.2 353 500>
VStem: 101 41<54 145.997>
Fore
188 533 m 1
 228 533 l 1
 147 152 l 2
 144 137 142 121 142 106 c 0
 142 66 157 33 206 33 c 0
 279 33 309 109 318 152 c 2
 399 533 l 1
 439 533 l 1
 358 152 l 2
 355 137 353 122 353 107 c 0
 353 67 368 33 418 33 c 0
 486 33 516 96 528 152 c 2
 609 533 l 1
 649 533 l 1
 568 152 l 2
 545 41 479 -7 409 -7 c 0
 365 -7 334 27 320 71 c 1
 288 27 243 -7 199 -7 c 0
 142 -7 101 25 101 97 c 0
 101 114 103 132 107 152 c 2
 188 533 l 1
EndSplineSet
EndChar
StartChar: uni0E1F
Encoding: 239 3615 255
Width: 610
VWidth: 1333
Flags: HW
HStem: -7 40<142.3 256.2 353 499.7> 647 20G<638 678>
VStem: 101 41<54 145.707>
AnchorPoint: "AboveBase" 569.732 568 basechar 0
Fore
188 533 m 1
 228 533 l 1
 147 152 l 2
 144 137 142 121 142 106 c 0
 142 66 157 33 206 33 c 0
 279 33 308 109 317 152 c 2
 398 533 l 1
 438 533 l 1
 357 152 l 2
 354 137 352 122 352 108 c 0
 352 67 368 33 418 33 c 0
 486 33 516 96 528 152 c 2
 638 667 l 1
 678 667 l 1
 568 152 l 2
 545 41 479 -7 410 -7 c 0
 366 -7 334 27 320 71 c 1
 289 27 243 -7 199 -7 c 0
 142 -7 101 26 101 99 c 0
 101 115 103 132 107 152 c 2
 188 533 l 1
EndSplineSet
EndChar
StartChar: uni0E20
Encoding: 240 3616 256
Width: 527
VWidth: 1333
Flags: HW
HStem: 0 40<50 83> 500 40<283.2 452>
VStem: 490 40<336.477 478.4>
Fore
179 384 m 1
 245 341 l 1
 203 323 178 300 167 247 c 2
 115 0 l 1
 28 0 l 1
 50 40 l 1
 83 40 l 1
 127 247 l 2
 135 285 169 320 199 339 c 1
 137 376 l 1
 193 500 303 540 369 540 c 0
 465 540 530 472 530 382 c 0
 530 369 529 355 526 341 c 2
 453 0 l 1
 413 0 l 1
 486 341 l 2
 489 354 490 366 490 377 c 0
 490 455 431 500 361 500 c 0
 297 500 220 464 179 384 c 1
EndSplineSet
EndChar
StartChar: uni0E21
Encoding: 241 3617 257
Width: 546
VWidth: 1333
Flags: HW
HStem: -7 40<220.988 443.5>
Fore
188 533 m 1
 228 533 l 1
 167 248 l 2
 165.227 239.51 164.386 230.732 164.386 221.795 c 0
 164.386 134.941 243.837 33 320 33 c 0
 415 33 457 119 473 192 c 2
 545 533 l 1
 585 533 l 1
 513 192 l 2
 490 84 424 -7 312 -7 c 0
 239 -7 176 68 146 149 c 1
 115 0 l 1
 75 0 l 1
 188 533 l 1
EndSplineSet
EndChar
StartChar: uni0E22
Encoding: 242 3618 258
Width: 533
VWidth: 1333
Flags: HW
HStem: -7 40<165.3 382.4> 316 35<177 205.783 212.6 327> 495 40<259.7 374>
VStem: 89 42<57.7 261.2>
Fore
327 316 m 1
 239 316 131 256 131 150 c 0
 131 79 189 33 268 33 c 0
 356 33 440 92 458 179 c 2
 533 533 l 1
 572 533 l 1
 497 179 l 2
 473 68 367 -7 259 -7 c 0
 164 -7 89 48 89 139 c 0
 89 233 158 298 219 316 c 1
 128 316 l 1
 133 336 l 2
 156 445 264 535 374 535 c 1
 365 495 l 1
 284 495 204 435 178 356 c 2
 177 351 l 1
 348 351 l 1
 327 316 l 1
EndSplineSet
EndChar
StartChar: uni0E23
Encoding: 243 3619 259
Width: 546
VWidth: 1333
Flags: HW
HStem: -7 40<272 394.4> 247 40<176 484> 500 40<265.6 480.1>
VStem: 508 41<335.522 467.6>
Fore
533 287 m 1
 513 192 l 2
 490 83 381 -7 272 -7 c 1
 280 33 l 1
 368 33 454 104 473 192 c 2
 484 247 l 1
 127 247 l 1
 147 341 l 2
 170 451 279 540 388 540 c 0
 483 540 549 472 549 382 c 0
 549 369 548 355 545 341 c 1
 505 341 l 1
 507 352 508 363 508 374 c 0
 508 446 457 500 380 500 c 0
 292 500 206 429 187 341 c 2
 176 287 l 1
 533 287 l 1
EndSplineSet
EndChar
StartChar: uni0E24
Encoding: 244 3620 260
Width: 527
VWidth: 1333
Flags: HW
HStem: 0 40<123 155> 500 40<283.2 452>
VStem: 490 40<336.477 478.4>
Fore
179 384 m 1
 245 341 l 1
 203 323 178 300 167 247 c 2
 123 40 l 1
 176 40 l 1
 155 0 l 1
 75 0 l 1
 127 247 l 2
 135 285 169 320 199 339 c 1
 137 376 l 1
 193 500 303 540 369 540 c 0
 465 540 530 472 530 382 c 0
 530 369 529 355 526 341 c 2
 410 -203 l 1
 370 -203 l 1
 486 341 l 2
 489 354 490 366 490 377 c 0
 490 455 431 500 361 500 c 0
 297 500 220 464 179 384 c 1
EndSplineSet
EndChar
StartChar: uni0E25
Encoding: 245 3621 261
Width: 546
VWidth: 1333
Flags: HW
HStem: -7 40<179.9 280> 247 40<167 484> 500 40<265.6 480.1>
VStem: 111 41<65.4 197.531> 508 41<335.522 467.6>
Fore
432 0 m 1
 484 247 l 1
 167 247 l 1
 155 192 l 2
 153 181 152 170 152 159 c 0
 152 87 203 33 280 33 c 1
 272 -7 l 1
 177 -7 111 62 111 151 c 0
 111 165 112 178 115 192 c 2
 136 287 l 1
 493 287 l 1
 505 341 l 2
 507 352 508 363 508 374 c 0
 508 446 457 500 380 500 c 0
 292 500 206 429 187 341 c 1
 147 341 l 1
 170 451 279 540 388 540 c 0
 483 540 549 472 549 382 c 0
 549 369 548 355 545 341 c 2
 472 0 l 1
 432 0 l 1
EndSplineSet
EndChar
StartChar: uni0E26
Encoding: 246 3622 262
Width: 527
VWidth: 1333
Flags: HW
HStem: 0 40<50 83> 500 40<283.2 452>
VStem: 490 40<336.477 478.4>
Fore
179 384 m 1
 245 341 l 1
 203 323 178 300 167 247 c 2
 115 0 l 1
 28 0 l 1
 50 40 l 1
 83 40 l 1
 127 247 l 2
 135 285 169 320 199 339 c 1
 137 376 l 1
 193 500 303 540 369 540 c 0
 465 540 530 472 530 382 c 0
 530 369 529 355 526 341 c 2
 410 -203 l 1
 370 -203 l 1
 486 341 l 2
 489 354 490 366 490 377 c 0
 490 455 431 500 361 500 c 0
 297 500 220 464 179 384 c 1
EndSplineSet
EndChar
StartChar: uni0E27
Encoding: 247 3623 263
Width: 542
VWidth: 1333
Flags: HW
HStem: -7 40<181.6 418.2> 500 40<276.7 476.9>
VStem: 86 42<41.2438 159.279> 512 40<126.5 459.3>
Fore
552 334 m 0
 552 162 407 -7 261 -7 c 0
 168 -7 99 52 86 149 c 1
 128 165 l 1
 140 75 202 33 270 33 c 0
 384 33 512 173 512 328 c 0
 512 429 452 500 369 500 c 0
 298 500 223 448 176 369 c 1
 142 384 l 1
 196 475 285 540 377 540 c 0
 484 540 552 451 552 334 c 0
EndSplineSet
EndChar
StartChar: uni0E28
Encoding: 248 3624 264
Width: 546
VWidth: 1333
Flags: HW
HStem: 0 21G<75 115 432 472> 247 40<176 312> 501 40<265.6 449.1>
VStem: 508 41<335.225 425.9>
Fore
432 0 m 1
 505 341 l 2
 507 352 508 363 508 374 c 0
 508 446 457 501 380 501 c 0
 292 501 206 429 187 341 c 2
 176 287 l 1
 334 287 l 1
 312 247 l 1
 167 247 l 1
 115 0 l 1
 75 0 l 1
 147 343 l 2
 171 452 279 541 388 541 c 0
 435 541 474 525 502 499 c 1
 559 540 l 1
 581 512 l 1
 525 471 l 1
 541 446 549 416 549 383 c 0
 549 369 548 355 545 341 c 2
 472 0 l 1
 432 0 l 1
EndSplineSet
EndChar
StartChar: uni0E29
Encoding: 249 3625 265
Width: 545
VWidth: 1333
Flags: HW
HStem: -7 40<178.9 393.4> 299 40<361 494 543 567>
VStem: 111 41<65.4 197.531>
Fore
188 533 m 1
 228 533 l 1
 155 192 l 2
 153 181 152 170 152 159 c 0
 152 87 202 33 279 33 c 0
 367 33 453 104 471 192 c 2
 494 299 l 1
 313 299 l 1
 326 361 l 1
 369 375 l 1
 361 339 l 1
 503 339 l 1
 544 533 l 1
 584 533 l 1
 543 339 l 1
 589 339 l 1
 567 299 l 1
 535 299 l 1
 513 192 l 2
 490 83 381 -7 272 -7 c 0
 177 -7 111 62 111 151 c 0
 111 165 112 178 115 192 c 2
 188 533 l 1
EndSplineSet
EndChar
StartChar: uni0E2A
Encoding: 250 3626 266
Width: 546
VWidth: 1333
Flags: HW
HStem: -7 40<179.9 280> 247 40<167 484> 500 41<265.6 449.1>
VStem: 111 41<65.4 197.531> 508 41<335.225 425.9>
Fore
187 343 m 1
 147 343 l 1
 171 452 279 541 388 541 c 0
 435 541 474 525 502 499 c 1
 559 540 l 1
 581 512 l 1
 525 471 l 1
 541 446 549 416 549 383 c 0
 549 369 548 355 545 341 c 2
 472 0 l 1
 432 0 l 1
 484 247 l 1
 167 247 l 1
 155 192 l 2
 153 181 152 170 152 159 c 0
 152 87 203 33 280 33 c 1
 272 -7 l 1
 177 -7 111 62 111 151 c 0
 111 165 112 178 115 192 c 2
 136 287 l 1
 493 287 l 1
 505 341 l 2
 507 352 508 363 508 374 c 0
 508 446 457 500 380 500 c 0
 292 500 206 431 187 343 c 1
EndSplineSet
EndChar
StartChar: uni0E2B
Encoding: 251 3627 267
Width: 546
VWidth: 1333
Flags: HW
HStem: 0 21G<75 115 432 472> 424 31<402 491.7>
VStem: 493 40<267.057 388.1>
Fore
188 533 m 1
 228 533 l 1
 176 287 l 1
 253 404 436 516 523 535 c 1
 576 515 l 1
 522 505 466 480 426 455 c 1
 501 455 533 395 533 320 c 0
 533 299 531 278 526 256 c 2
 472 0 l 1
 432 0 l 1
 486 256 l 2
 490 274 493 294 493 314 c 0
 493 371 471 424 402 424 c 0
 333 424 172 263 152 176 c 2
 115 0 l 1
 75 0 l 1
 188 533 l 1
EndSplineSet
EndChar
StartChar: uni0E2C
Encoding: 252 3628 268
Width: 610
VWidth: 1333
Flags: HW
HStem: -7 40<142 256.2 353 499.7> 493 40<480 562.02>
VStem: 101 41<55 145.707> 586 39<400.047 475.2>
AnchorPoint: "AboveBase" 569.732 568 basechar 0
Fore
669 627 m 1
 662 576 624 533 588 512 c 1
 611 494 625 465 625 431 c 0
 625 422 624 413 622 404 c 2
 568 152 l 2
 545 41 479 -7 410 -7 c 0
 366 -7 331 13 317 57 c 1
 286 13 243 -7 199 -7 c 0
 142 -7 101 26 101 99 c 0
 101 115 103 132 107 152 c 2
 188 533 l 1
 228 533 l 1
 147 152 l 2
 144 137 142 122 142 107 c 0
 142 67 157 33 207 33 c 0
 280 33 308 109 317 152 c 2
 398 533 l 1
 438 533 l 1
 357 152 l 2
 354 137 352 122 352 108 c 0
 352 67 368 33 418 33 c 0
 486 33 516 96 528 152 c 2
 583 407 l 2
 585 416 586 424 586 432 c 0
 586 468 567 493 528 493 c 2
 472 493 l 1
 480 533 l 1
 536 533 l 2
 555 533 611 539 629 627 c 1
 669 627 l 1
EndSplineSet
EndChar
StartChar: uni0E2D
Encoding: 253 3629 269
Width: 594
VWidth: 1333
Flags: HW
HStem: -5 40<180.8 465.5> 247 40<147 335> 499 40<286 525.2>
VStem: 104 41<79.1 253.685> 560 44<123.1 454.6>
CounterMasks: 1 00
Fore
604 329 m 0
 604 156 449 -5 296 -5 c 0
 180 -5 104 86 104 205 c 0
 104 225 107 246 111 267 c 2
 116 287 l 1
 358 287 l 1
 335 247 l 1
 147 247 l 1
 145 235 145 224 145 213 c 0
 145 110 209 35 303 35 c 0
 428 35 560 169 560 322 c 0
 560 424 497 499 403 499 c 0
 313 499 223 443 178 349 c 1
 142 360 l 1
 196 472 304 539 412 539 c 0
 528 539 604 448 604 329 c 0
EndSplineSet
EndChar
StartChar: uni0E2E
Encoding: 254 3630 270
Width: 594
VWidth: 1333
Flags: HW
HStem: -5 40<180.8 465.5> 247 40<147 335> 499 40<286 474.4>
VStem: 104 41<79.1 253.685> 560 44<123.1 401.8>
CounterMasks: 1 00
Fore
604 329 m 0
 604 167 459 -5 296 -5 c 0
 180 -5 104 86 104 205 c 0
 104 225 107 246 111 267 c 2
 116 287 l 1
 358 287 l 1
 335 247 l 1
 147 247 l 1
 145 235 145 224 145 213 c 0
 145 110 209 35 303 35 c 0
 428 35 560 169 560 322 c 0
 560 424 497 499 403 499 c 0
 313 499 223 443 178 349 c 1
 142 360 l 1
 196 472 304 539 412 539 c 0
 460 539 500 523 532 497 c 1
 586 535 l 1
 609 508 l 1
 557 471 l 1
 587 434 604 385 604 329 c 0
EndSplineSet
EndChar
StartChar: uni0E2F
Encoding: 255 3631 271
Width: 503
VWidth: 1333
Flags: HW
HStem: 0 21G<389 429> 343 40<227.302 377.8> 501 40<212.2 294>
VStem: 145 40<381.5 464.7>
Fore
285 501 m 1
 229 501 185 456 185 427 c 0
 185 392 239 383 260 383 c 0
 375 383 488 504 503 533 c 1
 543 533 l 1
 429 0 l 1
 389 0 l 1
 487 459 l 1
 438 409 349 343 253 343 c 0
 200 343 145 369 145 419 c 0
 145 474 214 541 294 541 c 1
 285 501 l 1
EndSplineSet
EndChar
StartChar: uni0E30
Encoding: 256 3632 272
Width: 270
VWidth: 1333
Flags: HW
HStem: 53 40<135 231> 388 40<206 302>
VStem: 86 238<53 428>
Fore
206 428 m 1
 324 428 l 1
 302 388 l 1
 157 388 l 1
 174 467 l 1
 217 480 l 1
 206 428 l 1
135 93 m 1
 253 93 l 1
 231 53 l 1
 86 53 l 1
 103 132 l 1
 146 145 l 1
 135 93 l 1
EndSplineSet
EndChar
StartChar: uni0E31
Encoding: 257 3633 273
Width: 0
VWidth: 1333
Flags: HW
HStem: 603 40<-70 227>
VStem: -119 381<603 643>
AnchorPoint: "AboveBase" 45.7324 568 mark 0
AnchorPoint: "AboveMark" 62.292 740 basemark 0
Fore
-70 643 m 1
 262 643 l 1
 227 603 l 1
 -119 603 l 1
 -102 681 l 1
 -59 695 l 1
 -70 643 l 1
EndSplineSet
EndChar
StartChar: uni0E32
Encoding: 258 3634 274
Width: 394
VWidth: 1333
Flags: HW
HStem: 0 21G<280 320> 500 40<229.2 359>
VStem: 359 41<351.518 469.5>
Fore
280 0 m 1
 353 341 l 2
 357 360 359 379 359 398 c 0
 359 453 338 500 268 500 c 0
 234 500 191 480 150 451 c 1
 160 496 l 1
 199 523 240 540 276 540 c 0
 365 540 400 483 400 406 c 0
 400 385 398 364 393 341 c 2
 320 0 l 1
 280 0 l 1
EndSplineSet
EndChar
StartChar: uni0E33
Encoding: 259 3635 275
Width: 394
VWidth: 1333
Flags: HW
HStem: 0 21G<280 320> 500 40<229.2 359> 588 31<27.2 70.1> 680 31<31.1 80.5>
VStem: -8 30<624.8 665.1> 86 30<626.4 674.5> 359 41<351.518 469.5>
Fore
280 0 m 1
 353 341 l 2
 357 360 359 379 359 398 c 0
 359 453 338 500 268 500 c 0
 234 500 191 480 150 451 c 1
 160 496 l 1
 199 523 240 540 276 540 c 0
 365 540 400 483 400 406 c 0
 400 385 398 364 393 341 c 2
 320 0 l 1
 280 0 l 1
-8 637 m 0
 -8 670 25 711 67 711 c 0
 96 711 116 690 116 661 c 0
 116 619 74 588 41 588 c 0
 12 588 -8 609 -8 637 c 0
61 680 m 0
 38 680 22 660 22 643 c 0
 22 629 32 619 48 619 c 0
 65 619 86 633 86 655 c 0
 86 670 76 680 61 680 c 0
EndSplineSet
MultipleSubs2: "Multiple Substitution lookup 7" uni0E4D uni0E32
Substitution2: "Single Substitution lookup 6" uni0E32
LCarets2: 1 0 
EndChar
StartChar: uni0E34
Encoding: 260 3636 276
Width: 0
VWidth: 1333
Flags: HW
HStem: 603 40<-287 53>
VStem: -323 385<603 643>
AnchorPoint: "AboveMark" 62.292 740 basemark 0
AnchorPoint: "AboveBase" 45.7324 568 mark 0
Fore
62 643 m 1
 53 603 l 1
 -323 603 l 1
 -287 643 l 1
 62 643 l 1
EndSplineSet
LCarets2: 1 0 
EndChar
StartChar: uni0E35
Encoding: 261 3637 277
Width: 0
VWidth: 1333
Flags: HW
HStem: 603 40<-287 22>
VStem: -323 396<603 695>
AnchorPoint: "AboveMark" 62.292 740 basemark 0
AnchorPoint: "AboveBase" 45.7324 568 mark 0
Fore
22 643 m 1
 33 695 l 1
 73 695 l 1
 53 603 l 1
 -323 603 l 1
 -287 643 l 1
 22 643 l 1
EndSplineSet
LCarets2: 1 0 
EndChar
StartChar: uni0E36
Encoding: 262 3638 278
Width: 0
VWidth: 1333
Flags: HW
HStem: 603 40<-287 -16> 603 30<19.5 63.7> 695 30<22.1 71.5>
VStem: 77 30<645 676>
AnchorPoint: "AboveMark" 62.292 740 basemark 0
AnchorPoint: "AboveBase" 45.7324 568 mark 0
Fore
107 676 m 0xb0
 107 634 65 603 32 603 c 2
 -323 603 l 1x70
 -287 643 l 1
 -16 643 l 1
 -24 667 5 725 58 725 c 0
 87 725 107 704 107 676 c 0xb0
52 695 m 0
 29 695 14 673 14 658 c 0
 14 644 24 633 39 633 c 0
 58 633 77 651 77 671 c 0
 77 685 67 695 52 695 c 0
EndSplineSet
EndChar
StartChar: uni0E37
Encoding: 263 3639 279
Width: 0
VWidth: 1333
Flags: HW
HStem: 603 92<-53 -24 33 53> 603 40<-287 -64 -24 22>
VStem: -323 396<603 695>
AnchorPoint: "AboveMark" 19.292 740 basemark 0
AnchorPoint: "AboveBase" 45.7324 568 mark 0
Fore
22 643 m 1x60
 33 695 l 1
 73 695 l 1
 53 603 l 1xa0
 -323 603 l 1
 -287 643 l 1
 -64 643 l 1x60
 -53 695 l 1
 -13 695 l 1xa0
 -24 643 l 1
 22 643 l 1x60
EndSplineSet
EndChar
StartChar: uni0E38
Encoding: 264 3640 280
Width: 0
VWidth: 1333
Flags: HW
HStem: -96 40<-161 -135>
VStem: -183 96<-96 -56>
AnchorPoint: "BelowBase" -83.0771 -38 mark 0
Fore
-161 -56 m 1
 -87 -56 l 1
 -120 -212 l 1
 -160 -212 l 1
 -135 -96 l 1
 -183 -96 l 1
 -161 -56 l 1
EndSplineSet
EndChar
StartChar: uni0E39
Encoding: 265 3641 281
Width: 0
VWidth: 1333
Flags: HW
HStem: -219 40<-258.3 -171.2>
VStem: -312 41<-166 -109.105>
AnchorPoint: "BelowBase" -83.0771 -38 mark 0
Fore
-320 -56 m 1
 -257 -56 l 1
 -269 -113 l 2
 -270 -118 -271 -123 -271 -127 c 0
 -271 -157 -249 -179 -218 -179 c 0
 -182 -179 -147 -149 -139 -113 c 2
 -127 -56 l 1
 -87 -56 l 1
 -99 -113 l 2
 -112 -172 -168 -219 -227 -219 c 0
 -278 -219 -312 -184 -312 -137 c 0
 -312 -129 -311 -121 -309 -113 c 2
 -305 -96 l 1
 -341 -96 l 1
 -320 -56 l 1
EndSplineSet
EndChar
StartChar: uni0E3A
Encoding: 266 3642 282
Width: 0
VWidth: 1333
Flags: HW
HStem: -115 67<-128.4 -89.1>
VStem: -146 69<-100 -58.1>
AnchorPoint: "BelowBase" -83.0771 -38 mark 0
Fore
-146 -88 m 0
 -146 -65 -123 -48 -105 -48 c 0
 -88 -48 -77 -59 -77 -74 c 0
 -77 -94 -96 -115 -119 -115 c 0
 -135 -115 -146 -104 -146 -88 c 0
EndSplineSet
EndChar
StartChar: uni0E3F
Encoding: 267 3647 283
Width: 545
VWidth: 1333
Flags: HW
HStem: 0 40<112 207 256 442.5> 355 40<188 283 332 476.4> 627 40<237 341 390 432>
VStem: 517 39<97.3 316.9> 533 39<453.5 599.2>
Fore
556 235 m 0xf0
 556 116 434 0 296 0 c 2
 247 0 l 1
 232 -67 l 1
 192 -67 l 1
 207 0 l 1
 64 0 l 1
 206 667 l 1
 350 667 l 1
 364 733 l 1
 404 733 l 1
 390 667 l 1
 432 667 l 2
 515 667 572 611 572 538 c 0xe8
 572 473 528 410 461 375 c 1
 520 350 556 298 556 235 c 0xf0
375 395 m 2
 453 395 533 455 533 529 c 0
 533 583 490 627 424 627 c 2
 381 627 l 1
 332 395 l 1
 375 395 l 2
306 40 m 2
 411 40 517 127 517 226 c 0xf0
 517 297 459 355 373 355 c 2
 323 355 l 1
 256 40 l 1
 306 40 l 2
292 395 m 1
 341 627 l 1
 237 627 l 1
 188 395 l 1
 292 395 l 1
216 40 m 1
 283 355 l 1
 179 355 l 1
 112 40 l 1
 216 40 l 1
EndSplineSet
EndChar
StartChar: uni0E40
Encoding: 268 3648 284
Width: 189
VWidth: 1333
Flags: HW
HStem: 0 21G<75 115>
VStem: 75 153<0 533>
Fore
115 0 m 1
 75 0 l 1
 188 533 l 1
 228 533 l 1
 115 0 l 1
EndSplineSet
EndChar
StartChar: uni0E41
Encoding: 269 3649 285
Width: 309
VWidth: 1333
Flags: HW
HStem: 0 21G<75 115 195 235>
VStem: 75 273<0 533>
Fore
115 0 m 1
 75 0 l 1
 188 533 l 1
 228 533 l 1
 115 0 l 1
235 0 m 1
 195 0 l 1
 308 533 l 1
 348 533 l 1
 235 0 l 1
EndSplineSet
EndChar
StartChar: uni0E42
Encoding: 270 3650 286
Width: 189
VWidth: 1333
Flags: HW
HStem: 0 40<123 149> 748 40<137 206 207 418>
VStem: 207 39<600.985 699.2>
Fore
75 0 m 1
 200 589 l 2
 204 608 207 628 207 647 c 0
 207 702 185 748 115 748 c 1
 137 788 l 1
 439 788 l 1
 418 748 l 1
 207 748 l 1
 233 726 246 686 246 642 c 0
 246 625 244 607 240 589 c 2
 123 40 l 1
 171 40 l 1
 149 0 l 1
 75 0 l 1
EndSplineSet
EndChar
StartChar: uni0E43
Encoding: 271 3651 287
Width: 211
VWidth: 1333
Flags: HW
HStem: 0 40<146 167> 753 42<174.6 292.9>
VStem: 308 41<635.2 728.8>
Fore
97 0 m 1
 212 539 l 2
 233 643 308 649 308 695 c 0
 308 721 280 753 237 753 c 0
 189 753 147 717 142 688 c 1
 102 688 l 1
 113 741 180 795 245 795 c 0
 306 795 349 751 349 705 c 0
 349 631 271 628 252 540 c 2
 146 40 l 1
 189 40 l 1
 167 0 l 1
 97 0 l 1
EndSplineSet
EndChar
StartChar: uni0E44
Encoding: 272 3652 288
Width: 195
VWidth: 1333
Flags: HW
HStem: 0 40<130 153> 749 40<231 307>
VStem: 81 285<0 789>
Fore
81 0 m 1
 210 604 l 2
 224 669 269 715 307 749 c 1
 231 749 l 1
 169 684 l 1
 115 747 l 1
 126 801 l 1
 180 741 l 1
 222 789 l 1
 366 789 l 1
 359 753 l 1
 315 723 266 679 249 603 c 2
 130 40 l 1
 175 40 l 1
 153 0 l 1
 81 0 l 1
EndSplineSet
EndChar
StartChar: uni0E45
Encoding: 273 3653 289
Width: 394
VWidth: 1333
Flags: HW
HStem: 500 40<229.2 359>
VStem: 359 41<351.518 469.5>
Fore
237 -203 m 1
 353 341 l 2
 357 360 359 379 359 398 c 0
 359 453 338 500 268 500 c 0
 234 500 191 480 150 451 c 1
 160 496 l 1
 199 523 240 540 276 540 c 0
 365 540 400 483 400 406 c 0
 400 385 398 364 393 341 c 2
 277 -203 l 1
 237 -203 l 1
EndSplineSet
EndChar
StartChar: uni0E46
Encoding: 274 3654 290
Width: 526
VWidth: 1333
Flags: HW
HStem: 259 40<178.6 279.355> 413 43<328.6 374.1>
VStem: 134 38<317.6 424.2> 493 41<362.225 440.2>
Fore
247 485 m 1
 200 461 172 411 172 367 c 0
 172 329 193 299 241 299 c 0
 251 299 264 300 278 303 c 1
 279 264 l 1
 262 260 247 259 234 259 c 0
 166 259 134 303 134 357 c 0
 134 423 181 503 258 532 c 2
 274 539 l 1
 281 525 l 2
 307 465 334 456 352 456 c 0
 369 456 400 465 452 525 c 2
 466 543 l 1
 481 531 l 2
 515 503 534 459 534 410 c 0
 534 396 533 382 530 368 c 2
 409 -203 l 1
 369 -203 l 1
 490 365 l 2
 492 376 493 386 493 396 c 0
 493 430 481 460 461 483 c 1
 423 443 383 413 341 413 c 0
 299 413 269 444 247 485 c 1
EndSplineSet
EndChar
StartChar: uni0E47
Encoding: 275 3655 291
Width: 0
VWidth: 1333
Flags: HW
HStem: 593 41<-25.9045 34.8773> 603 40<-232.3 -192> 725 40<-224.6 103>
VStem: -279 39<655.9 702.7>
AnchorPoint: "AboveMark" -132.268 568 mark 0
AnchorPoint: "AboveBase" 45.7324 568 mark 0
Fore
-279 670 m 0x70
 -279 726 -214 765 -160 765 c 2
 126 765 l 1
 103 725 l 1
 -170 725 l 2
 -212 725 -240 697 -240 678 c 0
 -240 661 -223 644 -192 643 c 1x70
 -110 689 l 1
 -31 641 l 1
 -19 636 -6 634 7 634 c 0xb0
 20 634 33 636 47 640 c 1
 53 603 l 1x70
 35 597 16 593 -2 593 c 0xb0
 -21 593 -39 597 -54 605 c 2
 -116 644 l 1
 -189 603 l 1
 -195 603 l 2
 -239 603 -279 629 -279 670 c 0x70
EndSplineSet
EndChar
StartChar: uni0E48
Encoding: 276 3656 292
Width: 0
VWidth: 1333
Flags: HW
VStem: 45 63<752 861>
AnchorPoint: "AboveMark" 62.292 740 mark 0
Fore
85 752 m 1
 45 752 l 1
 68 861 l 1
 108 861 l 1
 85 752 l 1
EndSplineSet
MultipleSubs2: "Multiple Substitution lookup 5" uni0E4D uni0E48
Substitution2: "Single Substitution lookup 4" uni0E48.low
LCarets2: 1 0 
EndChar
StartChar: uni0E49
Encoding: 277 3657 293
Width: 0
VWidth: 1333
Flags: HW
HStem: 752 40<13 161> 820 40<-53 -17.6>
VStem: -25 41<785.645 820.023>
AnchorPoint: "AboveMark" 62.292 740 mark 0
Fore
16 814 m 0
 16 801 14 796 13 792 c 1
 183 792 l 1
 161 752 l 1
 -35 752 l 1
 -25 800 l 2
 -23 807 -23 819 -41 820 c 2
 -75 820 l 1
 -53 860 l 1
 -32 860 l 2
 9 860 16 833 16 814 c 0
EndSplineSet
MultipleSubs2: "Multiple Substitution lookup 5" uni0E4D uni0E49
Substitution2: "Single Substitution lookup 4" uni0E49.low
EndChar
StartChar: uni0E4A
Encoding: 278 3658 294
Width: 0
VWidth: 1333
Flags: HW
HStem: 752 40<-42.5 -23 204 313> 851 40<-41.7 74.5>
VStem: -87 42<800.288 832.9>
AnchorPoint: "AboveMark" 62.292 740 mark 0
Fore
-87 807 m 0
 -87 846 -49 891 16 891 c 0
 61 891 87 864 93 828 c 1
 174 879 l 1
 223 879 l 1
 204 792 l 1
 335 792 l 1
 313 752 l 1
 156 752 l 1
 174 837 l 1
 64 767 l 1
 62 800 61 851 9 851 c 0
 -30 851 -45 829 -45 816 c 0
 -45 804 -38 793 -23 793 c 2
 -14 793 l 1
 -23 753 l 1
 -32 753 l 2
 -68 753 -87 779 -87 807 c 0
EndSplineSet
MultipleSubs2: "Multiple Substitution lookup 5" uni0E4D uni0E4A
Substitution2: "Single Substitution lookup 4" uni0E4A.low
EndChar
StartChar: uni0E4B
Encoding: 279 3659 295
Width: 0
VWidth: 1333
Flags: HW
HStem: 793 38<24 54 102 132>
VStem: 16 125<793 832>
AnchorPoint: "AboveMark" 62.292 740 mark 0
Fore
16 793 m 1
 24 831 l 1
 62 831 l 1
 70 872 l 1
 110 872 l 1
 102 832 l 1
 141 832 l 1
 132 792 l 1
 93 792 l 1
 85 752 l 1
 45 752 l 1
 54 793 l 1
 16 793 l 1
EndSplineSet
MultipleSubs2: "Multiple Substitution lookup 5" uni0E4D uni0E4B
Substitution2: "Single Substitution lookup 4" uni0E4B.low
EndChar
StartChar: uni0E4C
Encoding: 280 3660 296
Width: 0
VWidth: 1333
Flags: HW
HStem: 801 40<115 183>
VStem: 45 161<752 841>
AnchorPoint: "AboveMark" 62.292 740 mark 0
Fore
45 752 m 1
 51 781 l 2
 54 797 72 841 124 841 c 2
 206 841 l 1
 183 801 l 1
 115 801 l 2
 98 801 92 788 91 781 c 2
 85 752 l 1
 45 752 l 1
EndSplineSet
MultipleSubs2: "Multiple Substitution lookup 5" uni0E4D uni0E4C
Substitution2: "Single Substitution lookup 4" uni0E4C.low
EndChar
StartChar: uni0E4D
Encoding: 281 3661 297
Width: 0
VWidth: 1333
Flags: HW
HStem: 588 31<17.5 65.6> 680 31<22.7 69.5>
VStem: -19 31<637 666.7> 75 31<632.3 675.2>
AnchorPoint: "AboveMark" 62.292 740 basemark 0
AnchorPoint: "AboveBase" 81.7324 568 mark 0
Fore
-19 637 m 0
 -19 670 14 711 56 711 c 0
 86 711 106 690 106 661 c 0
 106 619 64 588 30 588 c 0
 1 588 -19 609 -19 637 c 0
50 680 m 0
 29 680 12 661 12 642 c 0
 12 629 22 619 37 619 c 0
 59 619 75 638 75 657 c 0
 75 671 65 680 50 680 c 0
EndSplineSet
Substitution2: "Single Substitution lookup 3" uni0E4D.high
LCarets2: 1 0 
EndChar
StartChar: uni0E4E
Encoding: 282 3662 298
Width: 0
VWidth: 1333
Flags: HW
HStem: 652 32<-137.7 -67> 952 33<115.088 180.526> 956 33<20.7 178.876>
VStem: -187 33<691 737.8> -67 34<843.5 931.8>
AnchorPoint: "AboveBase" 45.7324 568 mark 0
Fore
126 956 m 0xb8
 45 956 -33 918 -33 872 c 0
 -33 849 -4 837 24 833 c 1
 53 833 l 1
 14 800 l 1
 2 800 l 2
 -132 800 -154 733 -154 717 c 0
 -154 697 -129 684 -100 684 c 0
 -71 684 -53 696 -48 703 c 1
 -23 687 l 1
 -43 663 -76 652 -106 652 c 0
 -153 652 -187 675 -187 710 c 0
 -187 734 -171 807 -53 828 c 1
 -61 837 -67 848 -67 863 c 0
 -67 936 33 989 134 989 c 0xb8
 150 989 167 988 185 985 c 1
 173 952 l 1xd8
 156 955 140 956 126 956 c 0xb8
EndSplineSet
EndChar
StartChar: uni0E4F
Encoding: 283 3663 299
Width: 655
VWidth: 1333
Flags: HW
HStem: -7 42<189.7 518.6> 127 41<301.6 439.4> 366 41<328 467.1> 499 41<247.1 578.6>
VStem: 106 41<82.5 412.7> 242 42<187.5 327.9> 486 42<202.5 344.2> 621 43<120 451.5>
Fore
106 210 m 0
 106 376 265 540 443 540 c 0
 574 540 664 447 664 324 c 0
 664 158 504 -7 327 -7 c 0
 196 -7 106 86 106 210 c 0
433 499 m 0
 290 499 147 368 147 219 c 0
 147 114 223 35 334 35 c 0
 476 35 621 165 621 315 c 0
 621 420 545 499 433 499 c 0
242 237 m 0
 242 322 324 407 415 407 c 0
 482 407 528 359 528 296 c 0
 528 214 449 127 355 127 c 0
 288 127 242 174 242 237 c 0
406 366 m 0
 346 366 284 309 284 246 c 0
 284 201 316 168 364 168 c 0
 422 168 486 222 486 287 c 0
 486 331 453 366 406 366 c 0
EndSplineSet
EndChar
StartChar: uni0E50
Encoding: 284 3664 300
Width: 626
VWidth: 1333
Flags: HW
HStem: -7 40<178.3 492.9> 407 40<227.1 541.7>
VStem: 96 42<75.2 337.8> 582 42<102.2 364.8>
Fore
96 178 m 0
 96 313 240 447 408 447 c 0
 534 447 624 369 624 262 c 0
 624 124 478 -7 312 -7 c 0
 187 -7 96 71 96 178 c 0
400 407 m 0
 267 407 138 303 138 187 c 0
 138 101 211 33 320 33 c 0
 453 33 582 137 582 253 c 0
 582 339 509 407 400 407 c 0
EndSplineSet
EndChar
StartChar: uni0E51
Encoding: 285 3665 301
Width: 626
VWidth: 1333
Flags: HW
HStem: -56 39<296 514> 43 40<171.6 327.6> 407 40<219.3 539.1>
VStem: 97 41<104.9 328.5> 582 41<103.8 369>
Fore
97 183 m 0
 97 309 238 447 408 447 c 0
 532 447 623 370 623 261 c 0
 623 122 485 -56 296 -56 c 1
 306 -17 l 1
 466 -17 582 138 582 252 c 0
 582 342 507 407 400 407 c 0
 261 407 138 297 138 192 c 0
 138 125 192 83 260 83 c 0
 312 83 366 108 407 151 c 1
 434 127 l 1
 382 73 317 43 252 43 c 0
 166 43 97 97 97 183 c 0
EndSplineSet
EndChar
StartChar: uni0E52
Encoding: 286 3666 302
Width: 626
VWidth: 1333
Flags: HW
HStem: 0 40<179 497.8> 107 40<256 308> 405 40<273.6 414 504.3 598>
VStem: 92 41<70.7 197.423> 161 41<485.375 542.086> 207 41<169.3 327.9> 598 41<297.764 388.1>
Fore
207 224 m 0
 207 321 273 445 371 445 c 0
 409 445 437 427 449 387 c 1
 477 427 516 445 555 445 c 0
 605 445 639 413 639 345 c 0
 639 328 637 309 632 287 c 2
 613 199 l 2
 590 91 491 0 389 0 c 2
 235 0 l 2
 148 0 92 66 92 153 c 0
 92 168 94 183 97 199 c 2
 154 467 l 2
 159 489 161 505 161 517 c 0
 161 535 156 544 148 548 c 1
 172 585 l 1
 196 574 202 551 202 526 c 0
 202 505 197 483 194 468 c 2
 137 200 l 2
 134 187 133 175 133 163 c 0
 133 92 179 40 244 40 c 2
 399 40 l 2
 475 40 554 111 573 200 c 2
 592 288 l 2
 595 305 598 323 598 340 c 0
 598 377 586 407 546 407 c 0
 489 407 461 343 449 288 c 2
 436 227 l 1
 396 227 l 1
 409 287 l 2
 413 303 415 320 415 336 c 0
 415 373 402 405 362 405 c 0
 294 405 248 306 248 233 c 0
 248 184 268 147 308 147 c 1
 300 107 l 1
 241 107 207 155 207 224 c 0
EndSplineSet
EndChar
StartChar: uni0E53
Encoding: 287 3667 303
Width: 626
VWidth: 1333
Flags: HW
HStem: -7 40<144.3 208> 407 40<180.7 357.1 460.2 581.5>
VStem: 96 39<62.2 302.7> 582 41<293.987 384.3>
Fore
96 141 m 0
 96 271 176 447 296 447 c 0
 343 447 380 427 394 381 c 1
 428 427 474 447 520 447 c 0
 579 447 623 415 623 340 c 0
 623 325 621 307 617 288 c 2
 556 0 l 1
 516 0 l 1
 577 288 l 2
 580 302 582 317 582 331 c 0
 582 372 565 407 510 407 c 0
 437 407 405 344 393 288 c 2
 332 0 l 1
 292 0 l 1
 353 288 l 2
 356 302 358 317 358 331 c 0
 358 372 341 407 286 407 c 0
 205 407 135 267 135 148 c 0
 135 82 159 33 208 33 c 1
 200 -7 l 1
 124 -7 96 62 96 141 c 0
EndSplineSet
EndChar
StartChar: uni0E54
Encoding: 288 3668 304
Width: 626
VWidth: 1333
Flags: HW
HStem: -7 40<151.2 332.57> 12 39<395.676 508.25> 207 40<370.5 450> 397 39<493.811 625.6> 408 39<207.7 472.9>
VStem: 79 39<81.5 350.6> 308 40<91.3 187.5>
Fore
79 182 m 0xa6
 79 341 244 447 389 447 c 0xae
 464 447 509 436 541 436 c 0
 612 436 667 473 688 572 c 1
 726 572 l 1
 696 431 604 397 532 397 c 0x36
 492 397 451 408 378 408 c 0
 247 408 118 314 118 192 c 0
 118 107 183 33 289 33 c 0xae
 306 33 326 36 345 40 c 1
 320 63 308 93 308 123 c 0
 308 177 355 247 450 247 c 1
 442 207 l 1
 387 207 348 174 348 129 c 0
 348 100 366 68 410 48 c 1
 426 49 443 51 461 51 c 0
 505 51 549 44 585 25 c 1
 560 -11 l 1
 531 5 494 12 454 12 c 0x66
 379 12 338 -7 282 -7 c 0
 157 -7 79 79 79 182 c 0xa6
EndSplineSet
EndChar
StartChar: uni0E55
Encoding: 289 3669 305
Width: 626
VWidth: 1333
Flags: HW
HStem: -7 40<151.2 332.57> 12 39<395.676 508.25> 207 40<370.5 450> 397 39<485.518 625.6> 408 39<364.8 445.4> 524 37<382.3 448.6>
VStem: 79 39<81.5 341.9> 308 40<91.3 187.5> 327 40<460.1 506.9> 457 42<469.1 514.4>
Fore
499 499 m 0xa6c0
 499 476 486 454 474 441 c 1
 502 439 523 436 541 436 c 0
 612 436 667 473 688 572 c 1
 726 572 l 1
 696 431 604 397 532 397 c 0xb6c0
 496 397 449 408 378 408 c 0
 247 408 118 314 118 192 c 0
 118 107 183 33 289 33 c 0xaec0
 306 33 326 36 345 40 c 1
 320 63 308 93 308 123 c 0
 308 177 355 247 450 247 c 1
 442 207 l 1
 387 207 348 174 348 129 c 0
 348 100 366 68 410 48 c 1
 426 49 443 51 461 51 c 0
 505 51 549 44 585 25 c 1
 560 -11 l 1
 531 5 494 12 454 12 c 0x6740
 379 12 338 -7 282 -7 c 0
 157 -7 79 79 79 182 c 0
 79 305 187 417 333 441 c 1
 329 450 327 459 327 468 c 0
 327 520 380 561 429 561 c 0
 470 561 499 535 499 499 c 0xa6c0
420 524 m 0
 391 524 367 500 367 477 c 0
 367 464 375 448 409 447 c 0x2ec0
 437 449 457 474 457 491 c 0
 457 509 442 524 420 524 c 0
EndSplineSet
EndChar
StartChar: uni0E56
Encoding: 290 3670 306
Width: 626
VWidth: 1333
Flags: HW
HStem: -7 40<149.8 467> 209 38<167.2 248> 409 38<313.2 518.4>
VStem: 101 40<72.8 189.8> 560 41<98 365.8>
Fore
601 262 m 0
 601 125 456 -7 289 -7 c 0
 163 -7 101 54 101 121 c 0
 101 180 152 247 248 247 c 1
 240 209 l 1
 184 209 141 176 141 130 c 0
 141 86 184 33 298 33 c 0
 428 33 560 134 560 254 c 0
 560 340 486 409 378 409 c 0
 311 409 223 384 179 352 c 2
 142 325 l 1
 148 365 l 2
 149 372 149 379 149 386 c 0
 149 458 101 533 62 543 c 1
 80 581 l 1
 139 567 188 479 192 400 c 1
 250 431 330 447 386 447 c 0
 511 447 601 369 601 262 c 0
EndSplineSet
EndChar
StartChar: uni0E57
Encoding: 291 3671 307
Width: 626
VWidth: 1333
Flags: HW
HStem: 0 40<111.5 162 368 461.6> 407 41<142.7 311.7 405 494.1>
VStem: 60 41<67.2 297.3> 503 43<226.2 383.6>
Fore
368 40 m 1
 440 40 503 191 503 303 c 0
 503 365 483 407 446 407 c 0
 393 407 361 357 351 308 c 2
 322 175 l 1
 282 175 l 1
 311 307 l 2
 313 317 314 327 314 337 c 0
 314 375 297 407 248 407 c 0
 167 407 101 264 101 153 c 0
 101 87 125 41 170 41 c 1
 162 1 l 1
 96 1 60 59 60 146 c 0
 60 274 139 448 257 448 c 0
 301 448 334 429 348 388 c 1
 377 429 417 448 457 448 c 0
 515 448 546 395 546 312 c 0
 546 246 522 120 451 45 c 1
 531 60 581 112 605 225 c 2
 657 468 l 2
 664 501 677 565 731 585 c 1
 738 548 l 1
 717 540 706 511 697 468 c 2
 645 225 l 2
 610 59 515 1 391 0 c 2
 347 0 l 1
 368 40 l 1
EndSplineSet
EndChar
StartChar: uni0E58
Encoding: 292 3672 308
Width: 626
VWidth: 1333
Flags: HW
HStem: -7 40<379.3 517.1> 396 40<493.483 625.6> 407 40<214.2 474.2>
VStem: 77 40<80.8 364.2>
Fore
378 407 m 0xb0
 252 407 117 321 117 177 c 0
 117 103 155 43 241 35 c 1
 309 148 l 1
 346 148 l 1
 353 80 394 33 443 33 c 0
 500 33 549 56 564 127 c 1
 606 127 l 1
 586 36 519 -7 436 -7 c 0
 381 -7 335 32 314 93 c 1
 256 -8 l 1
 111 -2 77 89 77 168 c 0
 77 348 248 447 388 447 c 0xb0
 463 447 509 436 541 436 c 0
 611 436 666 473 687 572 c 1
 727 572 l 1
 697 431 604 396 532 396 c 0xd0
 492 396 452 407 378 407 c 0xb0
EndSplineSet
EndChar
StartChar: uni0E59
Encoding: 293 3673 309
Width: 626
VWidth: 1333
Flags: HW
HStem: -7 40<156 295.1> 411 40<212.1 400.8 521.5 603.4>
VStem: 84 40<61.2 353.7> 460 42<-1 149.024> 464 42<-10.2662 243.8> 681 41<501.665 606.886>
Fore
320 411 m 0xec
 237 411 124 312 124 173 c 0
 124 87 171 33 221 33 c 0
 278 33 328 60 343 131 c 1
 386 131 l 1
 368 45 309 -7 214 -7 c 0
 142 -7 84 66 84 168 c 0
 84 325 216 451 328 451 c 0
 384 451 428 429 457 380 c 1
 483 417 516 449 561 449 c 0
 595 449 611 433 622 415 c 1
 655 463 674 524 681 597 c 1
 722 603 l 1
 709 441 633 366 607 341 c 1
 600 368 592 409 554 409 c 0
 529 409 507 392 477 339 c 1
 496 287 506 215 506 119 c 0xec
 506 84 505 46 502 4 c 1
 460 -1 l 1xf4
 463 42 464 81 464 116 c 0
 464 355 399 411 320 411 c 0xec
EndSplineSet
EndChar
StartChar: uni0E5A
Encoding: 294 3674 310
Width: 601
VWidth: 1333
Flags: HW
HStem: 0 21G<391 429 487 527> 343 40<227.302 377.8> 500 40<209.6 293>
VStem: 145 40<381.5 464.7>
Fore
487 0 m 1
 600 533 l 1
 640 533 l 1
 527 0 l 1
 487 0 l 1
285 500 m 1
 227 500 185 456 185 427 c 0
 185 392 239 383 260 383 c 0
 375 383 488 504 503 533 c 1
 543 533 l 1
 429 0 l 1
 391 0 l 1
 488 459 l 1
 439 409 349 343 253 343 c 0
 200 343 145 369 145 419 c 0
 145 475 214 540 293 540 c 1
 285 500 l 1
EndSplineSet
EndChar
StartChar: uni0E5B
Encoding: 295 3675 311
Width: 1189
VWidth: 1333
Flags: HW
HStem: -7 40<177.2 382.6> 171 40<272.9 341.8> 240 27<1111.8 1194.2> 261 40<1006.38 1093> 323 40<292.1 344.1> 447 20G<554 563> 500 40<196 391>
VStem: 88 38<47.7 356.201> 226 40<221.8 305> 402 44<352.954 475.7>
Fore
88 184 m 0xdfc0
 88 316.462 186.8 540 335 540 c 0
 406 540 446 487 446 406 c 0
 446 299 384 171 290 171 c 0
 250 171 226 203 226 243 c 0
 226 303 275 363 330 363 c 0
 361 363 381 344 389 319 c 1
 394 334 402 367 402 399 c 0
 402 458 376 500 326 500 c 0
 226 500 126 329 126 192 c 0
 126 81 194 33 250 33 c 0
 352 33 461 100 526 407 c 2
 534 444 l 2
 537 459 549 467 559 467 c 0
 567 467 574 462 574 451 c 2
 590 191 l 1
 679 403 l 2
 684 415 694 422 703 422 c 0
 711 422 719 415 719 401 c 2
 730 223 l 1
 796 365 l 2
 803 379 812 386 820 386 c 0
 827 386 833 379 834 367 c 2
 851 244 l 1
 895 332 l 2
 902 349 909 357 915 357 c 0
 921 357 926 350 932 337 c 2
 957 281 l 1
 995 296 1024 301 1049 301 c 0xdfc0
 1100 301 1125 267 1169 267 c 0
 1197 267 1221 276 1232 276 c 0
 1236 276 1238 275 1238 271 c 1
 1235 259 1187 240 1163 240 c 0xefc0
 1115 240 1081 261 1041 261 c 0
 970.08 261 938.501 214.622 925 245 c 2
 910 279 l 1
 857 172 l 2
 851 160 842 154 834 154 c 0
 827 154 820 160 819 171 c 2
 803 289 l 1
 732 137 l 2
 726 124 716 117 708 117 c 0
 700 117 694 123 694 136 c 2
 685 311 l 1
 596 100 l 2
 590 86 580 79 573 79 c 0
 565 79 558 86 557 100 c 2
 544 309 l 1
 492 133 404 -7 244 -7 c 0
 166 -7 88 58 88 184 c 0xdfc0
322 323 m 0
 299 323 266 293 266 253 c 0
 266 229 278 211 295 211 c 0
 331 211 355 250 355 281 c 0
 355 306 339 323 322 323 c 0
EndSplineSet
EndChar
StartChar: Euro
Encoding: 313 8364 313
Width: 519
VWidth: 1333
Flags: HW
HStem: -7 40<216 404.5> 233 40<89 127 166 496> 393 40<123 153 208 530> 635 38<344 532.5>
Fore
127 273 m 1
 131 316 140 358 153 393 c 1
 101 393 l 1
 123 433 l 1
 169 433 l 1
 233 571 358 673 483 673 c 0
 538 673 584 653 620 620 c 1
 587 587 l 1
 558 616 519 635 474 635 c 0
 374 635 267 552 208 433 c 1
 552 433 l 1
 530 393 l 1
 192 393 l 1
 173 349 167 297 166 273 c 1
 518 273 l 1
 496 233 l 1
 166 233 l 1
 174 115 246 33 346 33 c 0
 391 33 437 48 479 77 c 1
 498 47 l 1
 448 13 393 -7 339 -7 c 0
 213 -7 132 96 127 233 c 1
 67 233 l 1
 89 273 l 1
 127 273 l 1
EndSplineSet
EndChar
StartChar: uni25CC
Encoding: 315 9676 314
Width: 621
VWidth: 1333
Flags: HW
HStem: -16 85<295.8 345.4> 51 85<151.1 192.9 449 500.2> 197 86<127.8 173.5 551.8 597.5> 331 85<203.6 253.2 515.8 558.9> 411 85<380.6 430.2>
VStem: 106 87<213.9 268.7> 128 87<61.7 124.3> 188 87<343 396.5> 274 87<3.5 57> 365 87<423 476.5> 435 87<63 115.2> 494 88<343 402.7> 530 87<213.9 268.7>
Fore
435 84 m 0x6020
 435 108 458 136 488 136 c 0
 508 136 522 122 522 102 c 0
 522 72 493 51 469 51 c 0
 449 51 435 65 435 84 c 0x6020
128 84 m 0x62
 128 115 158 136 181 136 c 0
 201 136 215 122 215 102 c 0
 215 71 186 51 163 51 c 0
 142 51 128 65 128 84 c 0x62
494 365 m 0x3010
 494 394 523 416 547 416 c 0
 567 416 582 401 582 382 c 0
 582 352 552 331 529 331 c 0
 509 331 494 346 494 365 c 0x3010
274 18 m 0xa080
 274 48 303 69 327 69 c 0
 347 69 361 55 361 36 c 0
 361 11 337 -16 309 -16 c 0
 288 -16 274 -2 274 18 c 0xa080
188 364 m 0x31
 188 389 212 416 240 416 c 0
 261 416 275 402 275 382 c 0
 275 352 246 331 222 331 c 0
 202 331 188 345 188 364 c 0x31
106 231 m 0x24
 106 260 135 283 159 283 c 0
 179 283 193 268 193 249 c 0
 193 222 166 197 141 197 c 0
 120 197 106 212 106 231 c 0x24
365 444 m 0x2840
 365 469 389 496 417 496 c 0
 438 496 452 482 452 462 c 0
 452 432 423 411 399 411 c 0
 379 411 365 425 365 444 c 0x2840
530 231 m 0x2008
 530 260 559 283 583 283 c 0
 603 283 617 268 617 249 c 0
 617 222 590 197 565 197 c 0
 544 197 530 212 530 231 c 0x2008
EndSplineSet
EndChar
StartChar: uni0E10.descless
Encoding: 316 63232 315
Width: 522
VWidth: 1333
Flags: HW
HStem: 0 21G<408 448> 247 40<324 460> 500 40<241.6 421.2>
VStem: 484 41<335.225 427.2>
Fore
469 287 m 1
 481 341 l 2
 483 352 484 363 484 374 c 0
 484 446 433 500 356 500 c 0
 268 500 182 429 163 341 c 1
 123 341 l 1
 146 451 255 540 364 540 c 0
 408 540 445 525 473 501 c 1
 531 535 l 1
 547 501 l 1
 498 473 l 1
 516 449 525 417 525 383 c 0
 525 369 524 355 521 341 c 2
 448 0 l 1
 408 0 l 1
 460 247 l 1
 302 247 l 1
 324 287 l 1
 469 287 l 1
EndSplineSet
EndChar
StartChar: uni0E34.left
Encoding: 317 63233 316
Width: 0
VWidth: 1333
Flags: HW
HStem: 603 40<-382 -33>
VStem: -417 392<603 643>
Fore
-25 643 m 1
 -33 603 l 1
 -417 603 l 1
 -382 643 l 1
 -25 643 l 1
EndSplineSet
EndChar
StartChar: uni0E35.left
Encoding: 318 63234 317
Width: 0
VWidth: 1333
Flags: HW
HStem: 603 40<-382 -65>
VStem: -417 403<603 695>
Fore
-65 643 m 5
 -54 695 l 5
 -14 695 l 5
 -33 603 l 5
 -417 603 l 5
 -382 643 l 5
 -65 643 l 5
EndSplineSet
EndChar
StartChar: uni0E36.left
Encoding: 319 63235 318
Width: 0
VWidth: 1333
Flags: HW
HStem: 603 40<-382 -111> 603 30<-75.5 -28.7> 695 30<-67.7 -23.5>
VStem: -18 31<647.6 676>
Fore
13 676 m 0xb0
 13 641 -23 603 -63 603 c 2
 -417 603 l 1x70
 -382 643 l 1
 -111 643 l 1
 -119 667 -90 725 -36 725 c 0
 -7 725 13 704 13 676 c 0xb0
-43 695 m 0
 -62 695 -81 677 -81 657 c 0
 -81 643 -71 633 -56 633 c 0
 -35 633 -18 653 -18 671 c 0
 -18 685 -28 695 -43 695 c 0
EndSplineSet
EndChar
StartChar: uni0E37.left
Encoding: 320 63236 319
Width: 0
VWidth: 1333
Flags: HW
HStem: 603 40<-382 -151 -113 -65> 603 92<-140 -113 -54 -33>
VStem: -417 403<603 695>
Fore
-140 695 m 1x60
 -102 695 l 1x60
 -113 643 l 1
 -65 643 l 1xa0
 -54 695 l 1
 -14 695 l 1
 -33 603 l 1
 -417 603 l 1x60
 -382 643 l 1
 -151 643 l 1xa0
 -140 695 l 1x60
EndSplineSet
EndChar
StartChar: uni0E48.low_left
Encoding: 321 63237 320
Width: 0
VWidth: 1333
Flags: HW
VStem: -113 63<603 712>
Fore
-73 603 m 5
 -113 603 l 5
 -90 712 l 5
 -50 712 l 5
 -73 603 l 5
EndSplineSet
EndChar
StartChar: uni0E49.low_left
Encoding: 322 63238 321
Width: 0
VWidth: 1333
Flags: HW
HStem: 603 40<-197 -49> 671 40<-264 -232.8>
Fore
-193 667 m 0
 -193 657 -195 652 -197 643 c 1
 -27 643 l 1
 -49 603 l 1
 -245 603 l 1
 -235 651 l 1
 -234 653 -234 656 -234 658 c 0
 -234 665 -237 671 -251 671 c 2
 -285 671 l 1
 -264 711 l 1
 -242 711 l 2
 -201 711 -193 685 -193 667 c 0
EndSplineSet
EndChar
StartChar: uni0E4A.low_left
Encoding: 323 63239 322
Width: 0
VWidth: 1333
Flags: HW
HStem: 603 40<-358.5 -339 -110 -1> 700 40<-360.3 -244.6>
VStem: -403 42<648.7 682.5>
Fore
-403 656 m 0
 -403 695 -364 740 -300 740 c 0
 -255 740 -230 713 -223 677 c 1
 -143 728 l 1
 -92 728 l 1
 -110 643 l 1
 21 643 l 1
 -1 603 l 1
 -159 603 l 1
 -141 687 l 1
 -261 609 l 1
 -260 641 l 2
 -260 655 -259 700 -307 700 c 0
 -348 700 -361 678 -361 663 c 0
 -361 652 -354 643 -339 643 c 2
 -330 643 l 1
 -339 603 l 1
 -348 603 l 2
 -384 603 -403 628 -403 656 c 0
EndSplineSet
EndChar
StartChar: uni0E4B.low_left
Encoding: 324 63240 323
Width: 0
VWidth: 1333
Flags: HW
HStem: 644 37<-135 -104 -56 -26>
VStem: -143 125<644 683>
Fore
-143 644 m 1
 -135 681 l 1
 -97 681 l 1
 -88 723 l 1
 -48 723 l 1
 -56 683 l 1
 -18 683 l 1
 -26 643 l 1
 -65 643 l 1
 -73 603 l 1
 -113 603 l 1
 -104 644 l 1
 -143 644 l 1
EndSplineSet
EndChar
StartChar: uni0E4C.low_left
Encoding: 325 63241 324
Width: 0
VWidth: 1333
Flags: HW
HStem: 652 40<-111 -17>
VStem: -156 160<603 692>
Fore
-156 603 m 1
 -150 632 l 2
 -146 648 -129 692 -77 692 c 2
 4 692 l 1
 -17 652 l 1
 -85 652 l 2
 -105 652 -108 639 -110 632 c 2
 -116 603 l 1
 -156 603 l 1
EndSplineSet
EndChar
StartChar: uni0E48.low
Encoding: 326 63242 325
Width: 0
VWidth: 1333
Flags: HW
VStem: 13 63<603 712>
AnchorPoint: "AboveBase" 45.7324 568 mark 0
Fore
53 603 m 1
 13 603 l 1
 36 712 l 1
 76 712 l 1
 53 603 l 1
EndSplineSet
EndChar
StartChar: uni0E49.low
Encoding: 327 63243 326
Width: 0
VWidth: 1333
Flags: HW
HStem: 603 40<-34 140> 671 40<-101 -63.3>
VStem: -122 284<643 671>
AnchorPoint: "AboveBase" 110.732 568 mark 0
Fore
-31 668 m 0
 -31 663 -33 645 -34 643 c 1
 162 643 l 1
 140 603 l 1
 -83 603 l 1
 -73 651 l 2
 -71 657 -69 671 -88 671 c 2
 -122 671 l 1
 -101 711 l 1
 -80 711 l 2
 -40 711 -31 688 -31 668 c 0
EndSplineSet
EndChar
StartChar: uni0E4A.low
Encoding: 328 63244 327
Width: 0
VWidth: 1333
Flags: HW
HStem: 603 40<-105.2 -87 141 249> 701 40<-96.6 7.4>
VStem: -151 42<649.4 693.6>
AnchorPoint: "AboveBase" 210.732 568 mark 0
Fore
-151 656 m 0
 -151 691 -120 741 -47 741 c 0
 -2 741 23 715 29 679 c 1
 110 729 l 1
 159 729 l 1
 141 643 l 1
 272 643 l 1
 249 603 l 1
 93 603 l 1
 111 688 l 1
 -9 611 l 1
 -7 643 l 2
 -8 656 -7 701 -55 701 c 0
 -87 701 -109 687 -109 665 c 0
 -109 653 -101 644 -87 644 c 2
 -78 644 l 1
 -87 604 l 1
 -96 604 l 2
 -131 604 -151 628 -151 656 c 0
EndSplineSet
EndChar
StartChar: uni0E4B.low
Encoding: 329 63245 328
Width: 0
VWidth: 1333
Flags: HW
HStem: 644 37<-8 22 70 101>
VStem: -16 125<644 683>
AnchorPoint: "AboveBase" 65.7324 568 mark 0
Fore
-16 644 m 1
 -8 681 l 1
 30 681 l 1
 39 723 l 1
 79 723 l 1
 70 683 l 1
 109 683 l 1
 101 643 l 1
 62 643 l 1
 53 603 l 1
 13 603 l 1
 22 644 l 1
 -16 644 l 1
EndSplineSet
EndChar
StartChar: uni0E4C.low
Encoding: 330 63246 329
Width: 0
VWidth: 1333
Flags: HW
HStem: 652 40<4 72>
VStem: -67 161<603 692>
AnchorPoint: "AboveBase" 45.7324 568 mark 0
Fore
-67 603 m 1
 -61 632 l 2
 -56 652 -40 692 12 692 c 2
 94 692 l 1
 72 652 l 1
 4 652 l 2
 -13 652 -19 639 -21 632 c 2
 -27 603 l 1
 -67 603 l 1
EndSplineSet
LCarets2: 2 0 0 
EndChar
StartChar: uni0E0D.descless
Encoding: 331 63247 330
Width: 846
VWidth: 1333
Flags: HW
HStem: -7 40<514.5 697.8> 0 40<123 155> 500 40<283.2 452>
VStem: 449 41<60.7 189.423> 490 40<335.522 477.4>
Fore
75 0 m 1x78
 127 247 l 2
 135 285 168 320 197 339 c 1
 137 376 l 1
 193 500 303 540 369 540 c 0
 465 540 530 472 530 382 c 0
 530 369 529 355 526 341 c 2
 494 191 l 2
 491 178 490 165 490 153 c 0
 490 82 534 33 599 33 c 0
 675 33 754 101 773 191 c 2
 845 533 l 1
 885 533 l 1
 813 191 l 2
 790 83 692 -7 591 -7 c 0xb8
 504 -7 449 58 449 145 c 0
 449 160 451 175 454 191 c 2
 486 340 l 2
 489 353 490 365 490 376 c 0
 490 454 431 500 361 500 c 0
 297 500 220 464 179 384 c 1
 245 341 l 1
 203 323 179 301 167 248 c 2
 123 40 l 1
 176 40 l 1
 155 0 l 1
 75 0 l 1x78
EndSplineSet
EndChar
StartChar: uni0E31.left
Encoding: 332 63248 331
Width: 0
VWidth: 1333
Flags: HW
HStem: 603 40<-187 136>
VStem: -236 407<603 643>
Fore
-187 643 m 1
 171 643 l 1
 136 603 l 1
 -236 603 l 1
 -216 695 l 1
 -176 695 l 1
 -187 643 l 1
EndSplineSet
EndChar
StartChar: uni0E4D.left
Encoding: 333 63249 332
Width: 0
VWidth: 1333
Flags: HW
HStem: 588 31<-104.8 -61.9> 680 31<-100.9 -51.5>
VStem: -140 30<624.8 665.1> -46 30<626.4 674.5>
Fore
-140 637 m 0
 -140 670 -107 711 -65 711 c 0
 -36 711 -16 690 -16 661 c 0
 -16 619 -58 588 -91 588 c 0
 -120 588 -140 609 -140 637 c 0
-71 680 m 0
 -94 680 -110 660 -110 643 c 0
 -110 629 -100 619 -84 619 c 0
 -67 619 -46 633 -46 655 c 0
 -46 670 -56 680 -71 680 c 0
EndSplineSet
EndChar
StartChar: uni0E47.left
Encoding: 334 63250 333
Width: 0
VWidth: 1333
Flags: HW
HStem: 593 41<-121.537 -61.1227> 603 40<-328 -289> 725 40<-320.6 8>
VStem: -375 39<655.9 702.7>
Fore
-375 669 m 0x70
 -375 727 -308 765 -256 765 c 2
 29 765 l 1
 8 725 l 1
 -266 725 l 2
 -308 725 -336 697 -336 678 c 0
 -336 661 -319 644 -289 643 c 1x70
 -205 689 l 1
 -126 641 l 2
 -115 636 -102 634 -89 634 c 0xb0
 -76 634 -63 636 -49 640 c 1
 -43 603 l 1x70
 -61 597 -80 593 -98 593 c 0xb0
 -117 593 -135 597 -150 605 c 2
 -212 644 l 1
 -285 603 l 1
 -291 603 l 2
 -335 603 -375 629 -375 669 c 0x70
EndSplineSet
EndChar
StartChar: uni0E48.left
Encoding: 335 63251 334
Width: 0
VWidth: 1333
Flags: HW
VStem: -41 63<752 861>
Fore
-1 752 m 5
 -41 752 l 5
 -18 861 l 5
 22 861 l 5
 -1 752 l 5
EndSplineSet
EndChar
StartChar: uni0E49.left
Encoding: 336 63252 335
Width: 0
VWidth: 1333
Flags: HW
HStem: 752 40<-78 69> 820 40<-145 -108.6>
VStem: -117 42<785.6 821.414>
Fore
-75 817 m 0
 -75 812 -77 794 -78 792 c 1
 91 792 l 1
 69 752 l 1
 -127 752 l 1
 -117 800 l 2
 -115 807 -114 820 -132 820 c 2
 -167 820 l 1
 -145 860 l 1
 -124 860 l 2
 -84 860 -75 836 -75 817 c 0
EndSplineSet
EndChar
StartChar: uni0E4A.left
Encoding: 337 63253 336
Width: 0
VWidth: 1333
Flags: HW
HStem: 752 40<-118.5 -99 128 237> 851 40<-121.6 -12.4>
VStem: -163 42<799.63 833.5>
Fore
-163 807 m 0
 -163 846 -124 891 -60 891 c 0
 -15 891 10 864 17 828 c 1
 97 879 l 1
 147 879 l 1
 128 792 l 1
 259 792 l 1
 237 752 l 1
 81 752 l 1
 99 837 l 1
 -21 760 l 1
 -20 792 l 2
 -20 798 l 0
 -20 816 -25 851 -67 851 c 0
 -109 851 -121 829 -121 814 c 0
 -121 803 -114 793 -99 793 c 2
 -90 793 l 1
 -99 753 l 1
 -108 753 l 2
 -144 753 -163 779 -163 807 c 0
EndSplineSet
EndChar
StartChar: uni0E4B.left
Encoding: 338 63254 337
Width: 0
VWidth: 1333
Flags: HW
HStem: 793 38<-63 -33 16 46>
VStem: -71 125<793 832>
Fore
-71 793 m 5
 -63 831 l 5
 -25 831 l 5
 -16 872 l 5
 24 872 l 5
 16 832 l 5
 54 832 l 5
 46 792 l 5
 7 792 l 5
 -1 752 l 5
 -41 752 l 5
 -33 793 l 5
 -71 793 l 5
EndSplineSet
EndChar
StartChar: uni0E4C.left
Encoding: 339 63255 338
Width: 0
VWidth: 1333
Flags: HW
HStem: 801 40<29 97>
VStem: -41 160<752 841>
Fore
-41 752 m 1
 -35 781 l 2
 -32 797 -12 841 37 841 c 2
 119 841 l 1
 97 801 l 1
 29 801 l 2
 12 801 6 788 5 781 c 2
 -1 752 l 1
 -41 752 l 1
EndSplineSet
EndChar
StartChar: uni0E38.low
Encoding: 340 63256 339
Width: 0
VWidth: 1333
Flags: HW
HStem: -256 40<-209 -169>
VStem: -230 109<-256 -216>
Fore
-209 -216 m 5
 -121 -216 l 5
 -155 -379 l 5
 -195 -379 l 5
 -169 -256 l 5
 -230 -256 l 5
 -209 -216 l 5
EndSplineSet
EndChar
StartChar: uni0E39.low
Encoding: 341 63257 340
Width: 0
VWidth: 1333
Flags: HW
HStem: -379 40<-292.3 -205.2>
VStem: -346 41<-326 -269.105>
Fore
-354 -216 m 1
 -291 -216 l 1
 -303 -273 l 2
 -304 -278 -305 -283 -305 -287 c 0
 -305 -317 -283 -339 -252 -339 c 0
 -216 -339 -180 -309 -173 -273 c 2
 -161 -216 l 1
 -121 -216 l 1
 -133 -273 l 2
 -145 -332 -202 -379 -260 -379 c 0
 -311 -379 -346 -344 -346 -296 c 0
 -346 -289 -345 -281 -343 -273 c 2
 -340 -256 l 1
 -376 -256 l 1
 -354 -216 l 1
EndSplineSet
EndChar
StartChar: uni0E3A.low
Encoding: 342 63258 341
Width: 0
VWidth: 1333
Flags: HW
HStem: -285 66<-170.9 -129>
VStem: -183 69<-273.9 -233>
Fore
-183 -259 m 0
 -183 -239 -164 -219 -141 -219 c 0
 -125 -219 -114 -229 -114 -244 c 0
 -114 -267 -135 -285 -155 -285 c 0
 -172 -285 -183 -274 -183 -259 c 0
EndSplineSet
EndChar
StartChar: uniF780
Encoding: 343 63360 342
Width: 394
VWidth: 1333
Flags: HW
HStem: 0 21G<280 320> 500 40<229.2 359> 588 31<-90.5 -41.1> 680 31<-82.7 -38.5>
VStem: -127 31<637 669.3> -33 31<633.9 661> 359 41<351.518 469.5>
Fore
280 0 m 1
 353 341 l 2
 357 360 359 379 359 398 c 0
 359 453 338 500 268 500 c 0
 234 500 191 480 150 451 c 1
 160 496 l 1
 199 523 240 540 276 540 c 0
 365 540 400 483 400 406 c 0
 400 385 398 364 393 341 c 2
 320 0 l 1
 280 0 l 1
-127 637 m 0
 -127 670 -94 711 -52 711 c 0
 -22 711 -2 690 -2 661 c 0
 -2 619 -44 588 -78 588 c 0
 -107 588 -127 609 -127 637 c 0
-58 680 m 0
 -77 680 -96 663 -96 642 c 0
 -96 629 -86 619 -71 619 c 0
 -48 619 -33 639 -33 656 c 0
 -33 670 -43 680 -58 680 c 0
EndSplineSet
EndChar
StartChar: uniF781
Encoding: 344 63361 343
Width: 0
VWidth: 1333
Flags: HW
HStem: 652 32<-216.4 -146.7> 952 33<35.0329 100.464> 956 33<-60.6 98.9293>
VStem: -267 34<691.3 739.9> -147 34<843.5 930.5>
Fore
46 956 m 0xb8
 -36 956 -113 917 -113 872 c 0
 -113 849 -84 837 -56 833 c 1
 -27 833 l 1
 -66 800 l 1
 -78 800 l 2
 -139 800 -220 784 -233 721 c 1
 -233 719 -234 717 -234 716 c 0
 -234 697 -208 684 -180 684 c 0
 -151 684 -133 696 -128 703 c 1
 -103 687 l 1
 -123 663 -156 652 -187 652 c 0
 -234 652 -267 675 -267 710 c 0
 -267 734 -251 807 -133 828 c 1
 -141 837 -147 848 -147 863 c 0
 -147 924 -66 989 54 989 c 0xb8
 70 989 87 988 105 985 c 1
 93 952 l 1xd8
 76 955 61 956 46 956 c 0xb8
EndSplineSet
EndChar
StartChar: uniF782
Encoding: 345 63362 344
Width: 590
VWidth: 1333
Flags: HW
HStem: -7 43<131 245.2 343 488.7> 400 40<450 547.7>
VStem: 90 41<55 145.707> 555 39<306.047 381.9>
Fore
639 533 m 1
 635 522 626 458 557 419 c 1
 581 401 594 372 594 339 c 0
 594 330 593 321 591 311 c 2
 558 152 l 2
 534 41 468 -7 399 -7 c 0
 355 -7 323 27 310 71 c 1
 278 27 232 -7 188 -7 c 0
 131 -7 90 26 90 99 c 0
 90 115 92 132 96 152 c 2
 177 533 l 1
 217 533 l 1
 136 152 l 2
 133 137 131 122 131 107 c 0
 131 67 146 33 196 33 c 0
 270 33 299 109 308 152 c 2
 370 440 l 1
 408 440 l 1
 348 155 l 2
 345 140 343 125 343 110 c 0
 343 70 358 36 408 36 c 0
 476 36 506 99 518 155 c 2
 552 313 l 2
 554 322 555 330 555 338 c 0
 555 374 536 400 497 400 c 2
 441 400 l 1
 450 440 l 1
 506 440 l 2
 557 440 588 482 599 533 c 1
 639 533 l 1
EndSplineSet
EndChar
StartChar: uniF783
Encoding: 346 63363 345
Width: 809
VWidth: 1333
Flags: HW
HStem: 0 40<123 155> 500 40<283.2 452 644.2 773>
VStem: 490 40<336.477 478.4> 774 41<356.997 470.5>
Fore
179 384 m 1
 245 341 l 1
 203 323 178 300 167 247 c 2
 123 40 l 1
 176 40 l 1
 155 0 l 1
 75 0 l 1
 127 247 l 2
 135 285 169 320 199 339 c 1
 137 376 l 1
 193 500 303 540 369 540 c 0
 465 540 530 472 530 382 c 0
 530 369 529 355 526 341 c 2
 410 -203 l 1
 370 -203 l 1
 486 341 l 2
 489 354 490 366 490 377 c 0
 490 455 431 500 361 500 c 0
 297 500 220 464 179 384 c 1
652 -203 m 1
 767 341 l 2
 771 360 774 380 774 399 c 0
 774 454 752 500 682 500 c 0
 649 500 606 480 565 451 c 1
 575 496 l 1
 614 523 655 540 691 540 c 0
 779 540 815 484 815 407 c 0
 815 386 812 364 807 341 c 2
 692 -203 l 1
 652 -203 l 1
EndSplineSet
LCarets2: 1 0 
EndChar
StartChar: uniF784
Encoding: 347 63364 346
Width: 809
VWidth: 1333
Flags: HW
HStem: 0 40<50 83> 500 40<283.2 452 644.2 773>
VStem: 490 40<336.477 478.4> 774 41<356.997 470.5>
Fore
179 384 m 1
 245 341 l 1
 203 323 178 300 167 247 c 2
 115 0 l 1
 28 0 l 1
 50 40 l 1
 83 40 l 1
 127 247 l 2
 135 285 169 320 199 339 c 1
 137 376 l 1
 193 500 303 540 369 540 c 0
 465 540 530 472 530 382 c 0
 530 369 529 355 526 341 c 2
 410 -203 l 1
 370 -203 l 1
 486 341 l 2
 489 354 490 366 490 377 c 0
 490 455 431 500 361 500 c 0
 297 500 220 464 179 384 c 1
652 -203 m 1
 767 341 l 2
 771 360 774 380 774 399 c 0
 774 454 752 500 682 500 c 0
 649 500 606 480 565 451 c 1
 575 496 l 1
 614 523 655 540 691 540 c 0
 779 540 815 484 815 407 c 0
 815 386 812 364 807 341 c 2
 692 -203 l 1
 652 -203 l 1
EndSplineSet
LCarets2: 1 0 
EndChar
StartChar: uniFB00
Encoding: 348 64256 347
Width: 491
VWidth: 1333
Flags: HW
HStem: 0 21G<64 104 313 353> 413 40<120 152 200 401 447 553> 613 27<272 420.2> 640 27<545.2 618>
Fore
364 640 m 0
 420 640 451 617 467 591 c 1
 506 636 562 667 618 667 c 1
 612 640 l 1
 544 640 471 565 454 487 c 2
 447 453 l 1
 572 453 l 1
 553 413 l 1
 441 413 l 1
 353 0 l 1
 313 0 l 1
 401 413 l 1
 192 413 l 1
 104 0 l 1
 64 0 l 1
 152 413 l 1
 112 413 l 1
 120 453 l 1
 160 453 l 1
 162 460 l 2
 183 560 271 640 364 640 c 0
200 453 m 1
 408 453 l 1
 415 487 l 2
 422 519 437 549 456 576 c 1
 440 601 410 613 376 613 c 0
 296 613 220 547 202 460 c 2
 200 453 l 1
EndSplineSet
LCarets2: 1 0 
Ligature2: "'liga' Standard Ligatures in Latin lookup 0" f f
EndChar
StartChar: uniFB01
Encoding: 349 64257 348
Width: 413
VWidth: 1333
Flags: HW
HStem: 0 21G<64 104 313 352> 413 40<120 152 200 401> 640 27<277 433>
VStem: 420 66<535.8 581.3>
Fore
420 554 m 0
 420 575 443 592 459 592 c 0
 462 592 466 592 468 591 c 1
 455 624 421 640 381 640 c 0
 301 640 226 573 207 487 c 2
 200 453 l 1
 448 453 l 1
 352 0 l 1
 313 0 l 1
 401 413 l 1
 192 413 l 1
 104 0 l 1
 64 0 l 1
 152 413 l 1
 112 413 l 1
 120 453 l 1
 160 453 l 1
 167 487 l 2
 189 587 276 667 370 667 c 0
 455 667 486 618 486 577 c 0
 486 539 460 528 446 528 c 0
 430 528 420 540 420 554 c 0
EndSplineSet
LCarets2: 1 0 
Ligature2: "'liga' Standard Ligatures in Latin lookup 0" f i
EndChar
StartChar: uniFB02
Encoding: 350 64258 349
Width: 415
VWidth: 1333
Flags: HW
HStem: 0 21G<64 104 313 352> 413 40<120 152 200 304> 640 27<365 449>
VStem: 64 430<0 667>
Fore
352 0 m 1
 313 0 l 1
 449 640 l 1
 365 640 l 2
 297 640 224 565 207 487 c 2
 200 453 l 1
 326 453 l 1
 304 413 l 1
 192 413 l 1
 104 0 l 1
 64 0 l 1
 152 413 l 1
 112 413 l 1
 120 453 l 1
 160 453 l 1
 167 487 l 2
 188 585 278 667 370 667 c 2
 494 667 l 1
 352 0 l 1
EndSplineSet
LCarets2: 1 0 
Ligature2: "'liga' Standard Ligatures in Latin lookup 0" f l
EndChar
StartChar: uniFB03
Encoding: 351 64259 350
Width: 662
VWidth: 1333
Flags: HW
HStem: 0 21G<64 104 313 353 563 601> 413 40<120 152 200 401 450 651> 613 27<285 420.2> 640 27<544.9 683>
VStem: 669 67<534.8 580.3>
Fore
669 553 m 0
 669 574 689 592 708 592 c 0
 711 592 715 592 718 591 c 1
 705 624 671 640 631 640 c 0
 551 640 475 573 457 487 c 2
 450 453 l 1
 698 453 l 1
 601 0 l 1
 563 0 l 1
 651 413 l 1
 441 413 l 1
 353 0 l 1
 313 0 l 1
 401 413 l 1
 192 413 l 1
 104 0 l 1
 64 0 l 1
 152 413 l 1
 112 413 l 1
 120 453 l 1
 160 453 l 1
 162 460 l 2
 183 560 271 640 364 640 c 0
 420 640 453 617 468 591 c 1
 507 636 562 667 619 667 c 0
 706 667 736 617 736 576 c 0
 736 538 706 528 695 528 c 0
 680 528 669 539 669 553 c 0
376 613 m 0
 306 613 222 559 200 453 c 1
 410 453 l 1
 417 487 l 2
 424 519 437 551 456 576 c 1
 440 601 410 613 376 613 c 0
EndSplineSet
LCarets2: 2 0 0 
Ligature2: "'liga' Standard Ligatures in Latin lookup 0" f f i
EndChar
StartChar: uniFB04
Encoding: 352 64260 351
Width: 665
VWidth: 1333
Flags: HW
HStem: 0 21G<64 104 313 353 563 601> 413 40<120 152 200 401 450 553> 613 27<272 420.2> 640 27<544.9 699>
Fore
575 453 m 1
 553 413 l 1
 441 413 l 1
 353 0 l 1
 313 0 l 1
 401 413 l 1
 192 413 l 1
 104 0 l 1
 64 0 l 1
 152 413 l 1
 112 413 l 1
 120 453 l 1
 160 453 l 1
 162 460 l 2
 183 560 271 640 364 640 c 0
 420 640 453 617 468 591 c 1
 507 636 562 667 619 667 c 2
 743 667 l 1
 601 0 l 1
 563 0 l 1
 699 640 l 1
 631 640 l 2
 551 640 475 573 457 487 c 2
 450 453 l 1
 575 453 l 1
202 460 m 2
 200 453 l 1
 410 453 l 1
 417 487 l 2
 424 519 437 551 456 576 c 1
 440 601 410 613 376 613 c 0
 296 613 220 547 202 460 c 2
EndSplineSet
LCarets2: 2 0 0 
Ligature2: "'liga' Standard Ligatures in Latin lookup 0" f f l
EndChar
